<svg width="28" height="32" viewBox="0 0 28 32" fill="none" xmlns="http://www.w3.org/2000/svg">
<g clip-path="url(#clip0_319_292)">
<path d="M2.33565 19.4194C1.94868 19.4194 1.63081 19.4194 1.31294 19.4194C0.539002 19.4194 9.33185e-06 18.9589 9.33185e-06 18.2818C9.33185e-06 17.6047 0.525182 17.1308 1.29912 17.1308C2.08688 17.1308 2.87464 17.1308 3.6624 17.1308C3.88352 17.1308 3.98027 17.063 4.07701 16.8735C4.45016 16.1016 4.85095 15.3432 5.23792 14.5713C5.91511 13.2306 7.03456 12.5535 8.5548 12.5535C12.1757 12.5535 15.7967 12.5535 19.4176 12.5535C20.9378 12.5535 22.0296 13.2306 22.7206 14.5578C23.1076 15.3161 23.5084 16.0609 23.8677 16.8193C23.9921 17.063 24.1303 17.1308 24.3929 17.1308C25.1668 17.1172 25.9408 17.1308 26.7285 17.1308C27.4472 17.1308 27.9585 17.6047 27.9724 18.2548C27.9724 18.9183 27.461 19.4058 26.7147 19.4058C26.383 19.4058 26.0513 19.4058 25.6367 19.4058C26.1343 20.0559 26.5627 20.6517 27.0326 21.2205C27.7098 22.033 28.0138 22.9403 27.9724 23.9966C27.9447 24.7143 27.9724 25.4185 27.9724 26.1363C27.9724 26.9488 27.6545 27.6124 26.9911 28.1134C26.8944 28.1947 26.8115 28.3572 26.8115 28.4926C26.7838 28.8989 26.8115 29.3051 26.8115 29.7114C26.7838 30.9843 25.7888 31.9594 24.4896 31.9729C23.7019 31.9729 22.9141 31.9729 22.1264 31.9729C20.8549 31.9458 19.8598 30.9708 19.8322 29.7114C19.8322 29.3322 19.8322 28.953 19.8322 28.5603H8.16783C8.16783 28.8989 8.16783 29.2374 8.16783 29.576C8.16783 30.9843 7.17276 31.9594 5.74927 31.9594C5.03061 31.9594 4.31195 31.9594 3.5933 31.9594C2.1698 31.9594 1.17474 30.9708 1.17474 29.5624C1.17474 29.4541 1.17474 29.3457 1.17474 29.2374C1.23002 28.6416 1.17474 28.154 0.621924 27.7207C0.304057 27.4634 0.069111 26.9217 0.0414703 26.5019C-0.0414517 25.405 -0.013811 24.2945 0.0414703 23.1841C0.069111 22.5611 0.345518 21.9924 0.732487 21.4913C1.24384 20.8142 1.76901 20.1371 2.33565 19.3923V19.4194ZM22.389 19.0131C21.9052 18.0787 21.4354 17.1443 20.9655 16.2234C20.4956 15.3026 19.7401 14.8421 18.6989 14.8421C15.3268 14.8421 11.9546 14.8421 8.56862 14.8421C8.09873 14.8421 7.68412 14.9776 7.44917 15.3838C6.81343 16.5755 6.20534 17.7943 5.58343 18.9996C5.92893 19.2975 6.28826 19.4194 6.73051 19.4194C11.5676 19.4194 16.3909 19.4194 21.228 19.4194C21.6703 19.4194 22.0434 19.311 22.389 19.0131ZM2.9161 24.5383C2.9161 25.4862 3.69004 26.2717 4.65746 26.2717C5.61107 26.2717 6.39882 25.5133 6.41264 24.5925C6.41264 23.6445 5.63871 22.8591 4.67128 22.8591C3.71768 22.8591 2.92992 23.6174 2.9161 24.5383ZM25.0563 24.5654C25.0563 23.6174 24.2685 22.8455 23.2873 22.8455C22.3475 22.8455 21.5597 23.631 21.5597 24.5518C21.5597 25.4998 22.3613 26.2717 23.3287 26.2717C24.2823 26.2717 25.0563 25.4998 25.0563 24.5654Z" fill="url(#paint0_linear_319_292)"/>
<path d="M22.6101 9.14093C22.389 9.14093 22.1678 9.14093 21.9605 9.14093C21.463 9.16801 21.1037 8.97842 20.8411 8.55862C20.3297 7.78672 19.3485 7.80026 18.8371 8.57216C18.5884 8.96488 18.2429 9.15447 17.773 9.12739C17.5933 9.12739 17.4136 9.12739 17.2202 9.12739C16.7779 9.12739 16.46 8.96488 16.2113 8.59924C15.6446 7.75963 14.7048 7.75963 14.1382 8.59924C13.8895 8.95134 13.5716 9.12739 13.1293 9.12739C12.6871 9.12739 12.1895 9.01905 11.7888 9.15447C11.4156 9.28989 11.1668 9.7097 10.8352 9.98054C9.09379 11.416 7.11749 11.8223 4.98915 11.0504C2.847 10.2785 1.57553 8.69404 1.24384 6.48667C0.787772 3.42616 2.73644 0.704194 5.83219 0.121884C8.05727 -0.297922 9.95065 0.392726 11.4571 2.05841C11.6091 2.23445 11.7473 2.28862 11.9822 2.28862C15.6999 2.28862 19.4176 2.28862 23.1214 2.28862C23.923 2.28862 24.5864 2.53238 25.1392 3.11469C25.4571 3.45324 25.8164 3.76471 26.1343 4.10326C27.0602 5.05121 27.0602 6.39188 26.1343 7.33983C25.7611 7.73255 25.3741 8.09819 24.9734 8.47737C24.5035 8.92425 23.923 9.15447 23.2596 9.15447C23.0385 9.15447 22.8174 9.15447 22.6101 9.15447V9.14093ZM6.97928 8.00339C8.26457 8.00339 9.32874 6.98773 9.32874 5.72832C9.32874 4.4689 8.29221 3.4397 6.9931 3.4397C5.72163 3.4397 4.67129 4.45536 4.65747 5.70123C4.65747 6.96065 5.68017 8.00339 6.96546 8.01693L6.97928 8.00339Z" fill="url(#paint1_linear_319_292)"/>
</g>
<defs>
<linearGradient id="paint0_linear_319_292" x1="-0.0108643" y1="22.2632" x2="27.9761" y2="22.2632" gradientUnits="userSpaceOnUse">
<stop stop-color="#CCFF33"/>
<stop offset="0.49" stop-color="#9AFF29"/>
<stop offset="1" stop-color="#68FF20"/>
</linearGradient>
<linearGradient id="paint1_linear_319_292" x1="1.17786" y1="5.71849" x2="26.8287" y2="5.71849" gradientUnits="userSpaceOnUse">
<stop stop-color="#CCFF33"/>
<stop offset="0.49" stop-color="#9AFF29"/>
<stop offset="1" stop-color="#68FF20"/>
</linearGradient>
<clipPath id="clip0_319_292">
<rect width="28" height="32" fill="white"/>
</clipPath>
</defs>
</svg>
