<?xml version="1.0" encoding="UTF-8"?>
<svg id="Camada_1" data-name="Camada 1" xmlns="http://www.w3.org/2000/svg" viewBox="0 0 20.26 23.63">
  <defs>
    <style>
      .cls-1 {
        stroke-width: 0px;
      }
    </style>
  </defs>
  <path class="cls-1" d="m1.69,14.34c-.28,0-.51,0-.74,0-.56,0-.95-.34-.95-.84,0-.5.38-.85.94-.85.57,0,1.14,0,1.71,0,.16,0,.23-.05.3-.19.27-.57.56-1.13.84-1.7.49-.99,1.3-1.49,2.4-1.49,2.62,0,5.24,0,7.86,0,1.1,0,1.89.5,2.39,1.48.28.56.57,1.11.83,1.67.09.18.19.23.38.23.56-.01,1.12,0,1.69,0,.52,0,.89.35.9.83,0,.49-.37.85-.91.85-.24,0-.48,0-.78,0,.36.48.67.92,1.01,1.34.49.6.71,1.27.68,2.05-.02.53,0,1.05,0,1.58,0,.6-.23,1.09-.71,1.46-.07.06-.13.18-.13.28-.02.3,0,.6,0,.9-.02.94-.74,1.66-1.68,1.67-.57,0-1.14,0-1.71,0-.92-.02-1.64-.74-1.66-1.67,0-.28,0-.56,0-.85H5.91c0,.25,0,.5,0,.75,0,1.04-.72,1.76-1.75,1.76-.52,0-1.04,0-1.56,0-1.03,0-1.75-.73-1.75-1.77,0-.08,0-.16,0-.24.04-.44,0-.8-.4-1.12-.23-.19-.4-.59-.42-.9-.06-.81-.04-1.63,0-2.45.02-.46.22-.88.5-1.25.37-.5.75-1,1.16-1.55Zm14.51-.3c-.35-.69-.69-1.38-1.03-2.06q-.51-1.02-1.64-1.02c-2.44,0-4.88,0-7.33,0-.34,0-.64.1-.81.4-.46.88-.9,1.78-1.35,2.67.25.22.51.31.83.31,3.5,0,6.99,0,10.49,0,.32,0,.59-.08.84-.3Zm-14.09,4.08c0,.7.56,1.28,1.26,1.28.69,0,1.26-.56,1.27-1.24,0-.7-.56-1.28-1.26-1.28-.69,0-1.26.56-1.27,1.24Zm16.02.02c0-.7-.57-1.27-1.28-1.27-.68,0-1.25.58-1.25,1.26,0,.7.58,1.27,1.28,1.27.69,0,1.25-.57,1.25-1.26Z"/>
  <path class="cls-1" d="m16.36,6.75c-.16,0-.32,0-.47,0-.36.02-.62-.12-.81-.43-.37-.57-1.08-.56-1.45.01-.18.29-.43.43-.77.41-.13,0-.26,0-.4,0-.32,0-.55-.12-.73-.39-.41-.62-1.09-.62-1.5,0-.18.26-.41.39-.73.39-.32,0-.68-.08-.97.02-.27.1-.45.41-.69.61-1.26,1.06-2.69,1.36-4.23.79-1.55-.57-2.47-1.74-2.71-3.37C.57,2.53,1.98.52,4.22.09c1.61-.31,2.98.2,4.07,1.43.11.13.21.17.38.17,2.69,0,5.38,0,8.06,0,.58,0,1.06.18,1.46.61.23.25.49.48.72.73.67.7.67,1.69,0,2.39-.27.29-.55.56-.84.84-.34.33-.76.5-1.24.5-.16,0-.32,0-.47,0Zm-11.31-.84c.93,0,1.7-.75,1.7-1.68,0-.93-.75-1.69-1.69-1.69-.92,0-1.68.75-1.69,1.67,0,.93.74,1.7,1.67,1.71Z"/>
</svg>