<svg width="32" height="32" viewBox="0 0 32 32" fill="none" xmlns="http://www.w3.org/2000/svg">
<path d="M32 15.0604V16.9396C31.9733 17.1662 31.9467 17.3928 31.92 17.6193C31.5333 21.0579 30.2267 24.0966 27.9067 26.6689C25.44 29.4011 22.3867 31.107 18.76 31.7468C18.16 31.8534 17.5467 31.92 16.9467 32H15.0667C14.9867 31.9867 14.9067 31.96 14.8267 31.9467C12.32 31.7734 9.98667 31.0537 7.84 29.7476C3.69333 27.1887 1.14667 23.5369 0.253333 18.7389C0.133333 18.1391 0.08 17.5394 0 16.9263C0 16.2999 0 15.6735 0 15.0471C0.0266667 14.8205 0.0533333 14.5939 0.08 14.3673C0.466667 10.9288 1.77333 7.89005 4.09333 5.31778C6.56 2.59892 9.61333 0.892961 13.24 0.253228C13.84 0.146606 14.4533 0.0799667 15.0533 0C15.68 0 16.3067 0 16.9333 0C17.0133 0.0133278 17.0933 0.0399833 17.1733 0.0533111C19.68 0.226572 22.0133 0.946272 24.16 2.25239C28.3067 4.798 30.8533 8.44981 31.7467 13.2478C31.8533 13.8476 31.92 14.4606 32 15.0604ZM15.9867 2.66556C8.62667 2.66556 2.64 8.67638 2.66667 16.0067C2.69333 23.3636 8.64 29.3078 15.9867 29.3078C23.3333 29.3078 29.32 23.3369 29.32 15.98C29.32 8.6364 23.3333 2.65223 15.9867 2.66556Z" fill="black"/>
<path d="M14.6722 17.3449H10.6689C10.6689 17.478 10.6689 17.5979 10.6689 17.7177C10.6689 19.3156 10.6689 20.9002 10.6689 22.498C10.6689 23.1106 10.4554 23.6032 9.86822 23.8696C9.04087 24.2557 8.09341 23.6965 8 22.7777C8 22.7244 8 22.6712 8 22.6179C8 18.2104 8 13.8029 8 9.38211C8 8.70301 8.38699 8.21033 9.01418 8.05054C9.74812 7.86412 10.5088 8.34349 10.6289 9.07585C10.6555 9.24895 10.6689 9.42206 10.6689 9.60848C10.6689 11.1531 10.6689 12.711 10.6689 14.2556V14.6418H14.6722C14.6722 14.5086 14.6722 14.3888 14.6722 14.269C14.6722 12.6578 14.6722 11.0466 14.6722 9.43537C14.6722 8.75627 15.0058 8.26359 15.5663 8.07717C16.447 7.77091 17.3144 8.41007 17.3278 9.39542C17.3278 11.0199 17.3278 12.6444 17.3278 14.269C17.3278 14.3888 17.3278 14.5086 17.3278 14.6551H21.3311C21.3311 14.522 21.3311 14.4021 21.3311 14.2823C21.3311 12.6844 21.3311 11.0998 21.3311 9.50195C21.3311 8.88943 21.5446 8.39675 22.1318 8.13044C22.9591 7.74428 23.9066 8.30354 24 9.22232C24 9.27558 24 9.32885 24 9.38211C24 13.7896 24 18.1971 24 22.6179C24 23.297 23.613 23.7897 22.9858 23.9495C22.2519 24.1359 21.4912 23.6565 21.3711 22.9242C21.3445 22.751 21.3311 22.5779 21.3311 22.3915C21.3311 20.8469 21.3311 19.289 21.3311 17.7444V17.3582H17.3278C17.3278 17.4914 17.3278 17.6112 17.3278 17.731C17.3278 19.3422 17.3278 20.9534 17.3278 22.5646C17.3278 23.2437 16.9942 23.7364 16.4337 23.9228C15.553 24.2291 14.6856 23.5899 14.6722 22.6046C14.6722 20.9801 14.6722 19.3555 14.6722 17.731C14.6722 17.6112 14.6722 17.4914 14.6722 17.3449Z" fill="black"/>
</svg>
