<svg width="15" height="15" viewBox="0 0 15 15" fill="none" xmlns="http://www.w3.org/2000/svg">
<path d="M0.667 3.333C1.033 3.333 1.333 3.033 1.333 2.667V2C1.334 1.633 1.634 1.333 2 1.333H2.667C3.033 1.333 3.333 1.033 3.333 0.667C3.333 0.3 3.033 0 2.667 0H2C0.893 0 0 0.893 0 2V2.667C0 3.033 0.3 3.333 0.667 3.333ZM2.667 13.333H2C1.82344 13.3325 1.65424 13.2622 1.52929 13.1374C1.40435 13.0127 1.33379 12.8436 1.333 12.667V12C1.333 11.633 1.033 11.334 0.667 11.334C0.3 11.334 0 11.634 0 12V12.667C0 13.774 0.893 14.667 2 14.667H2.667C3.033 14.667 3.333 14.367 3.333 14C3.333 13.633 3.033 13.334 2.667 13.334V13.333ZM12.667 0H12.001C11.634 0 11.334 0.3 11.334 0.667C11.334 1.033 11.634 1.333 12.001 1.333H12.667C13.034 1.333 13.334 1.633 13.334 2V2.667C13.334 3.033 13.634 3.333 14.001 3.333C14.367 3.333 14.667 3.033 14.667 2.667V2C14.667 0.893 13.774 0 12.667 0ZM14.001 11.333C13.634 11.333 13.334 11.633 13.334 12V12.667C13.334 13.034 13.034 13.334 12.667 13.334H12.001C11.634 13.334 11.334 13.634 11.334 14C11.334 14.367 11.634 14.667 12.001 14.667H12.667C13.774 14.667 14.667 13.774 14.667 12.667V12C14.667 11.633 14.367 11.334 14.001 11.334V11.333ZM11.999 9.247V5.42C11.999 4.94 11.746 4.5 11.333 4.267L7.999 2.347C7.7969 2.22842 7.56682 2.1659 7.3325 2.1659C7.09818 2.1659 6.8681 2.22842 6.666 2.347L3.333 4.259C2.919 4.499 2.666 4.939 2.666 5.419V9.246C2.666 9.726 2.919 10.166 3.333 10.399L6.666 12.319C6.8681 12.4376 7.09818 12.5001 7.3325 12.5001C7.56682 12.5001 7.7969 12.4376 7.999 12.319L11.334 10.4C11.5372 10.2841 11.706 10.1162 11.823 9.91363C11.9401 9.71103 12.0011 9.48097 12 9.247H11.999ZM6.666 10.78L3.999 9.247V6.16L6.666 7.713V10.78ZM7.333 6.56L4.693 5.02L7.333 3.5L9.973 5.02L7.333 6.56ZM10.666 9.247L7.999 10.78V7.713L10.666 6.16V9.247Z" fill="#B3B3B3"/>
</svg>
