<svg width="32" height="26" viewBox="0 0 32 26" fill="none" xmlns="http://www.w3.org/2000/svg">
<path d="M28.8012 0H3.19885C1.44006 0 0.0153604 1.44006 0.0153604 3.20077L0 22.4015C0 24.1622 1.44006 25.6023 3.19885 25.6023H28.8012C30.5599 25.6023 32 24.1622 32 22.4015V3.20077C32 1.44006 30.5599 0 28.8012 0ZM28.1598 6.80091L16.8487 13.8745C16.5935 14.0316 16.2997 14.1148 16 14.1148C15.7003 14.1148 15.4065 14.0316 15.1513 13.8745L3.84015 6.80091C3.68195 6.70972 3.54373 6.58759 3.43376 6.44181C3.32379 6.29603 3.24432 6.12959 3.20009 5.95242C3.15586 5.77525 3.14778 5.59099 3.17632 5.41063C3.20487 5.23026 3.26946 5.0575 3.36624 4.90265C3.46302 4.7478 3.59001 4.61404 3.73962 4.50934C3.88924 4.40465 4.05841 4.33117 4.23705 4.29329C4.41568 4.25542 4.60012 4.25392 4.77934 4.28888C4.95857 4.32385 5.12891 4.39457 5.28021 4.49682L16 11.2017L26.7198 4.49682C26.8711 4.39457 27.0414 4.32385 27.2207 4.28888C27.3999 4.25392 27.5843 4.25542 27.763 4.29329C27.9416 4.33117 28.1108 4.40465 28.2604 4.50934C28.41 4.61404 28.537 4.7478 28.6338 4.90265C28.7305 5.0575 28.7951 5.23026 28.8237 5.41063C28.8522 5.59099 28.8441 5.77525 28.7999 5.95242C28.7557 6.12959 28.6762 6.29603 28.5662 6.44181C28.4563 6.58759 28.3181 6.70972 28.1598 6.80091Z" fill="black"/>
</svg>
