<svg width="20" height="16" viewBox="0 0 20 16" fill="none" xmlns="http://www.w3.org/2000/svg">
<path d="M18.0007 0H1.99928C0.900036 0 0.00960026 0.900036 0.00960026 2.00048L0 14.001C0 15.1014 0.900036 16.0014 1.99928 16.0014H18.0007C19.1 16.0014 20 15.1014 20 14.001V2.00048C20 0.900036 19.1 0 18.0007 0ZM17.5999 4.25057L10.5304 8.67155C10.3709 8.76975 10.1873 8.82175 10 8.82175C9.8127 8.82175 9.62907 8.76975 9.46958 8.67155L2.4001 4.25057C2.30122 4.19358 2.21483 4.11724 2.1461 4.02613C2.07737 3.93502 2.0277 3.83099 2.00006 3.72026C1.97241 3.60953 1.96736 3.49437 1.9852 3.38164C2.00304 3.26892 2.04341 3.16094 2.1039 3.06416C2.16439 2.96738 2.24376 2.88377 2.33727 2.81834C2.43077 2.75291 2.53651 2.70698 2.64815 2.68331C2.7598 2.65963 2.87507 2.6587 2.98709 2.68055C3.09911 2.70241 3.20557 2.74661 3.30013 2.81051L10 7.00108L16.6999 2.81051C16.7944 2.74661 16.9009 2.70241 17.0129 2.68055C17.1249 2.6587 17.2402 2.65963 17.3518 2.68331C17.4635 2.70698 17.5692 2.75291 17.6627 2.81834C17.7562 2.88377 17.8356 2.96738 17.8961 3.06416C17.9566 3.16094 17.997 3.26892 18.0148 3.38164C18.0326 3.49437 18.0276 3.60953 17.9999 3.72026C17.9723 3.83099 17.9226 3.93502 17.8539 4.02613C17.7852 4.11724 17.6988 4.19358 17.5999 4.25057Z" fill="url(#paint0_linear_321_436)"/>
<defs>
<linearGradient id="paint0_linear_321_436" x1="0.410721" y1="6.17027e-06" x2="19.5894" y2="16.0014" gradientUnits="userSpaceOnUse">
<stop stop-color="#CCFF33"/>
<stop offset="0.49" stop-color="#9AFF29"/>
<stop offset="1" stop-color="#68FF20"/>
</linearGradient>
</defs>
</svg>
