<?xml version="1.0" encoding="UTF-8"?>
<svg id="Camada_1" data-name="Camada 1" xmlns="http://www.w3.org/2000/svg" viewBox="0 0 18.61 21.82">
  <defs>
    <style>
      .cls-1 {
        stroke-width: 0px;
      }
    </style>
  </defs>
  <path class="cls-1" d="m9.54,21.82h-.43c-.18-.08-.37-.14-.54-.23-.66-.38-1.33-.76-1.98-1.17-1.65-1.06-3.16-2.28-4.47-3.75C.92,15.32.12,13.79.07,11.95c-.04-1.28-.09-2.55-.06-3.83.03-1.42.2-2.83.48-4.22.11-.57.44-.91.95-1.1,1.89-.71,3.78-1.42,5.68-2.11C7.76.44,8.42.23,9.07,0c.16,0,.31,0,.47,0,.01,0,.02.02.03.03,1.63.58,3.26,1.14,4.89,1.73.92.33,1.83.69,2.74,1.05.45.18.85.46.92.97.15,1,.27,2.01.36,3.02.14,1.65.17,3.31.04,4.96-.05.66-.12,1.32-.27,1.96-.21.85-.68,1.59-1.21,2.28-.88,1.16-1.93,2.14-3.07,3.03-1.38,1.08-2.82,2.07-4.43,2.8Zm-1.57-10.73c-.06-.07-.11-.14-.16-.19-.51-.53-1.03-1.06-1.54-1.59-.29-.3-.64-.47-1.05-.49-.69-.04-1.32.35-1.6.96-.28.61-.15,1.25.36,1.78.94.96,1.87,1.92,2.81,2.88.75.77,1.71.76,2.45-.01,1.79-1.87,3.58-3.73,5.36-5.61.12-.13.23-.27.31-.43.34-.68.11-1.52-.54-1.98-.65-.47-1.5-.43-2.05.12-.54.54-1.06,1.11-1.59,1.66-.91.96-1.82,1.91-2.76,2.9Z"/>
</svg>