<svg width="26" height="32" viewBox="0 0 26 32" fill="none" xmlns="http://www.w3.org/2000/svg">
<g clip-path="url(#clip0_317_262)">
<path d="M13.3285 32H12.7277C12.4762 31.8827 12.2108 31.7947 11.9733 31.6627C11.0512 31.1054 10.1151 30.5481 9.20703 29.9468C6.90182 28.3923 4.7922 26.6031 2.962 24.4473C1.28549 22.4675 0.167809 20.2236 0.0979537 17.5252C0.0420698 15.648 -0.0277851 13.7855 0.0141278 11.9083C0.0560408 9.82585 0.293548 7.75802 0.684735 5.71952C0.838416 4.88359 1.29946 4.38497 2.01198 4.10632C4.65249 3.06508 7.29301 2.02383 9.9475 1.01192C10.8416 0.64528 11.7637 0.337305 12.6718 0C12.8954 0 13.1049 0 13.3285 0C13.3424 0 13.3564 0.0293309 13.3704 0.0439963C15.6477 0.894592 17.9249 1.71586 20.2022 2.58112C21.4875 3.06508 22.7589 3.59303 24.0302 4.12099C24.6589 4.38497 25.2178 4.7956 25.3156 5.54354C25.5251 7.01008 25.6928 8.49129 25.8185 9.9725C26.0141 12.3923 26.056 14.8268 25.8744 17.2466C25.8046 18.2145 25.7068 19.1824 25.4972 20.121C25.2038 21.3676 24.5472 22.4528 23.8067 23.4647C22.5773 25.1659 21.1103 26.6031 19.5176 27.9083C17.5896 29.4922 15.5778 30.9441 13.3285 32.0147V32ZM11.135 16.264C11.0512 16.1613 10.9813 16.0587 10.9115 15.9853C10.199 15.2081 9.47248 14.4308 8.75996 13.6535C8.3548 13.2136 7.86582 12.9643 7.29301 12.9349C6.32901 12.8763 5.44884 13.4482 5.05765 14.3428C4.66646 15.2374 4.84809 16.176 5.56061 16.9533C6.87388 18.3611 8.17318 19.769 9.48645 21.1769C10.5343 22.3061 11.8755 22.2915 12.9093 21.1622C15.4101 18.4198 17.911 15.692 20.3978 12.9349C20.5654 12.7443 20.7191 12.539 20.8309 12.3043C21.3059 11.3071 20.9846 10.0752 20.0765 9.40055C19.1683 8.71127 17.9808 8.76994 17.2124 9.57654C16.458 10.3685 15.7315 11.2044 14.991 12.011C13.7197 13.4189 12.4483 14.8121 11.135 16.264Z" fill="url(#paint0_linear_317_262)"/>
</g>
<defs>
<linearGradient id="paint0_linear_317_262" x1="0.00134277" y1="16.0073" x2="25.9903" y2="16.0073" gradientUnits="userSpaceOnUse">
<stop stop-color="#CCFF33"/>
<stop offset="0.49" stop-color="#9AFF29"/>
<stop offset="1" stop-color="#68FF20"/>
</linearGradient>
<clipPath id="clip0_317_262">
<rect width="26" height="32" fill="white"/>
</clipPath>
</defs>
</svg>
