<svg width="32" height="32" viewBox="0 0 32 32" fill="none" xmlns="http://www.w3.org/2000/svg">
<g clip-path="url(#clip0_316_248)">
<path d="M5.53392e-05 27.0667C0.146722 26.7067 0.413389 26.4933 0.760055 26.3333C1.34672 26.0533 1.93339 25.76 2.52006 25.4533C2.65339 25.3867 2.78672 25.2533 2.85339 25.12C3.18672 24.4933 3.49339 23.8667 3.80006 23.2267C3.98672 22.84 4.28006 22.6533 4.69339 22.6533C5.09339 22.6533 5.40006 22.84 5.58672 23.2267C5.89339 23.8667 6.21339 24.4933 6.53339 25.12C6.60006 25.2533 6.73339 25.3867 6.86672 25.4533C7.49339 25.7867 8.12006 26.0933 8.76006 26.4C9.13339 26.5867 9.37339 26.8667 9.37339 27.2933C9.37339 27.72 9.13339 28 8.74672 28.1867C8.14672 28.48 7.53339 28.7733 6.93339 29.0933C6.76006 29.1867 6.58672 29.36 6.49339 29.5333C6.20006 30.0667 5.92006 30.6133 5.66672 31.1733C5.48006 31.5733 5.24006 31.8667 4.80006 32H4.54672C4.12006 31.88 3.86672 31.5733 3.68006 31.1733C3.41339 30.5867 3.12006 30.0133 2.81339 29.4533C2.74672 29.3333 2.62672 29.2 2.49339 29.1333C1.90672 28.8267 1.32006 28.52 0.720055 28.24C0.373389 28.08 0.106722 27.8533 -0.0266113 27.4933V27.0533L5.53392e-05 27.0667Z" fill="url(#paint0_linear_316_248)"/>
<path d="M32 4.88C31.8534 5.25333 31.56 5.46666 31.2134 5.62666C30.64 5.89333 30.0667 6.17333 29.52 6.48C29.3734 6.56 29.2267 6.70666 29.1467 6.85333C28.8134 7.46666 28.5067 8.09333 28.2 8.72C28.0134 9.09333 27.7334 9.33333 27.2934 9.32C26.8667 9.32 26.6 9.08 26.4267 8.72C26.12 8.10666 25.8267 7.48 25.4934 6.88C25.4 6.70666 25.24 6.54666 25.08 6.45333C24.48 6.13333 23.8534 5.82666 23.24 5.53333C22.8667 5.34666 22.6267 5.06666 22.6267 4.64C22.6267 4.2 22.88 3.93333 23.2534 3.74666C23.8934 3.44 24.52 3.12 25.1467 2.8C25.28 2.73333 25.4 2.61333 25.4667 2.48C25.7734 1.90666 26.0534 1.33333 26.3334 0.746664C26.4934 0.399997 26.7067 0.119997 27.0667 -0.0133362H27.5734C27.9334 0.119997 28.1467 0.399997 28.3067 0.746664C28.5734 1.33333 28.8667 1.90666 29.1734 2.48C29.24 2.6 29.36 2.73333 29.4934 2.8C30.08 3.10666 30.68 3.41333 31.28 3.69333C31.6267 3.85333 31.8934 4.08 32.0267 4.44V4.88H32Z" fill="url(#paint1_linear_316_248)"/>
<path d="M15.9333 3.88C16.4 3.88 16.7067 4.10667 16.8667 4.6C17.72 7.14667 18.5733 9.69334 19.4133 12.24C19.48 12.4267 19.56 12.52 19.76 12.5867C22.2533 13.4133 24.7333 14.24 27.2133 15.0667C27.3333 15.1067 27.4533 15.1467 27.56 15.1867C27.9467 15.3467 28.16 15.64 28.1733 16.0533C28.1867 16.4533 27.96 16.8 27.56 16.9467C26.7067 17.2533 25.8533 17.5333 24.9867 17.8133C23.2667 18.3867 21.56 18.96 19.84 19.52C19.5867 19.6 19.4667 19.7467 19.3733 19.9867C18.5467 22.52 17.6933 25.04 16.8533 27.56C16.72 27.9467 16.4933 28.2133 16.08 28.2933C15.7333 28.36 15.44 28.24 15.2133 27.9733C15.1067 27.84 15.04 27.6667 14.9733 27.5067C14.1333 25 13.2933 22.4933 12.4667 19.9867C12.3733 19.72 12.24 19.5867 11.9733 19.5067C9.45332 18.68 6.94665 17.84 4.42665 17C3.93332 16.84 3.65332 16.4933 3.65332 16.0533C3.65332 15.6267 3.93332 15.2933 4.41332 15.1333C6.93332 14.2933 9.46665 13.4533 11.9867 12.6133C12.24 12.5333 12.3733 12.4 12.4533 12.1467C13.28 9.62667 14.12 7.12 14.96 4.6C15.12 4.10667 15.4267 3.88 15.8933 3.88H15.9333Z" fill="url(#paint2_linear_316_248)"/>
<path d="M5.68002 5.74667C5.68002 5.41334 5.68002 5.12 5.68002 4.84C5.68002 4.28 6.09335 3.88 6.61335 3.88C7.13335 3.88 7.53335 4.29334 7.54669 4.85334C7.54669 5.14667 7.54669 5.42667 7.54669 5.76C7.85335 5.76 8.14669 5.76 8.42669 5.76C9.00002 5.76 9.42669 6.17334 9.41335 6.70667C9.41335 7.22667 8.98669 7.62667 8.44002 7.62667C8.16002 7.62667 7.88002 7.62667 7.54669 7.62667C7.54669 7.94667 7.54669 8.25334 7.54669 8.56C7.53335 9.10667 7.10669 9.52 6.58669 9.50667C6.08002 9.50667 5.68002 9.09334 5.68002 8.54667C5.68002 8.25334 5.68002 7.96 5.68002 7.62667C5.38669 7.62667 5.10669 7.62667 4.84002 7.62667C4.22669 7.62667 3.81335 7.24 3.81335 6.69334C3.81335 6.14667 4.22669 5.76 4.84002 5.74667C5.10669 5.74667 5.37335 5.74667 5.69335 5.74667H5.68002Z" fill="url(#paint3_linear_316_248)"/>
<path d="M26.3067 22.6267C26.6267 22.6267 26.92 22.6267 27.2 22.6267C27.76 22.6267 28.1734 23.0267 28.1734 23.5467C28.1734 24.08 27.76 24.48 27.1867 24.4933C26.9067 24.4933 26.6267 24.4933 26.3067 24.4933C26.3067 24.7867 26.3067 25.0667 26.3067 25.3333C26.3067 25.9333 25.9067 26.36 25.3734 26.36C24.8267 26.36 24.44 25.9333 24.44 25.3333C24.44 25.0667 24.44 24.8 24.44 24.4933C24.1334 24.4933 23.84 24.4933 23.56 24.4933C22.9867 24.4933 22.5734 24.0933 22.5734 23.5467C22.5734 23.0133 22.9867 22.6267 23.5734 22.6133C23.8534 22.6133 24.1334 22.6133 24.4534 22.6133C24.4534 22.3067 24.4534 22.0133 24.4534 21.72C24.4534 21.16 24.84 20.7467 25.3734 20.7333C25.9067 20.7333 26.32 21.1333 26.3334 21.7067C26.3334 22 26.3334 22.28 26.3334 22.6L26.3067 22.6267Z" fill="url(#paint4_linear_316_248)"/>
</g>
<defs>
<linearGradient id="paint0_linear_316_248" x1="-0.0266113" y1="27.3267" x2="9.37339" y2="27.3267" gradientUnits="userSpaceOnUse">
<stop stop-color="#CCFF33"/>
<stop offset="0.49" stop-color="#9AFF29"/>
<stop offset="1" stop-color="#68FF20"/>
</linearGradient>
<linearGradient id="paint1_linear_316_248" x1="22.6267" y1="4.65359" x2="32.0267" y2="4.65359" gradientUnits="userSpaceOnUse">
<stop stop-color="#CCFF33"/>
<stop offset="0.49" stop-color="#9AFF29"/>
<stop offset="1" stop-color="#68FF20"/>
</linearGradient>
<linearGradient id="paint2_linear_316_248" x1="3.65332" y1="16.0957" x2="28.1739" y2="16.0957" gradientUnits="userSpaceOnUse">
<stop stop-color="#CCFF33"/>
<stop offset="0.49" stop-color="#9AFF29"/>
<stop offset="1" stop-color="#68FF20"/>
</linearGradient>
<linearGradient id="paint3_linear_316_248" x1="3.81335" y1="6.69349" x2="9.41366" y2="6.69349" gradientUnits="userSpaceOnUse">
<stop stop-color="#CCFF33"/>
<stop offset="0.49" stop-color="#9AFF29"/>
<stop offset="1" stop-color="#68FF20"/>
</linearGradient>
<linearGradient id="paint4_linear_316_248" x1="22.5734" y1="23.5467" x2="28.1734" y2="23.5467" gradientUnits="userSpaceOnUse">
<stop stop-color="#CCFF33"/>
<stop offset="0.49" stop-color="#9AFF29"/>
<stop offset="1" stop-color="#68FF20"/>
</linearGradient>
<clipPath id="clip0_316_248">
<rect width="32" height="32" fill="white"/>
</clipPath>
</defs>
</svg>
