<?xml version="1.0" encoding="UTF-8"?>
<svg id="Camada_1" data-name="Camada 1" xmlns="http://www.w3.org/2000/svg" viewBox="0 0 24 24">
  <defs>
    <style>
      .cls-1 {
        stroke-width: 0px;
      }
    </style>
  </defs>
  <path class="cls-1" d="m0,20.3c.11-.27.31-.43.57-.55.44-.21.88-.43,1.32-.66.1-.05.2-.15.25-.25.25-.47.48-.94.71-1.42.14-.29.36-.43.67-.43.3,0,.53.14.67.43.23.48.47.95.71,1.42.05.1.15.2.25.25.47.25.94.48,1.42.71.28.14.46.35.46.67,0,.32-.18.53-.47.67-.45.22-.91.44-1.36.68-.13.07-.26.2-.33.33-.22.4-.43.81-.62,1.23-.14.3-.32.52-.65.62h-.19c-.32-.09-.51-.32-.65-.62-.2-.44-.42-.87-.65-1.29-.05-.09-.14-.19-.24-.24-.44-.23-.88-.46-1.33-.67-.26-.12-.46-.29-.56-.56v-.33Z"/>
  <path class="cls-1" d="m24,3.66c-.11.28-.33.44-.59.56-.43.2-.86.41-1.27.64-.11.06-.22.17-.28.28-.25.46-.48.93-.71,1.4-.14.28-.35.46-.68.45-.32,0-.52-.18-.65-.45-.23-.46-.45-.93-.7-1.38-.07-.13-.19-.25-.31-.32-.45-.24-.92-.47-1.38-.69-.28-.14-.46-.35-.46-.67,0-.33.19-.53.47-.67.48-.23.95-.47,1.42-.71.1-.05.19-.14.24-.24.23-.43.44-.86.65-1.3.12-.26.28-.47.55-.57h.38c.27.1.43.31.55.57.2.44.42.87.65,1.3.05.09.14.19.24.24.44.23.89.46,1.34.67.26.12.46.29.56.56v.33Z"/>
  <path class="cls-1" d="m11.95,2.91c.35,0,.58.17.7.54.64,1.91,1.28,3.82,1.91,5.73.05.14.11.21.26.26,1.87.62,3.73,1.24,5.59,1.86.09.03.18.06.26.09.29.12.45.34.46.65.01.3-.16.56-.46.67-.64.23-1.28.44-1.93.65-1.29.43-2.57.86-3.86,1.28-.19.06-.28.17-.35.35-.62,1.9-1.26,3.79-1.89,5.68-.1.29-.27.49-.58.55-.26.05-.48-.04-.65-.24-.08-.1-.13-.23-.18-.35-.63-1.88-1.26-3.76-1.88-5.64-.07-.2-.17-.3-.37-.36-1.89-.62-3.77-1.25-5.66-1.88-.37-.12-.58-.38-.58-.71,0-.32.21-.57.57-.69,1.89-.63,3.79-1.26,5.68-1.89.19-.06.29-.16.35-.35.62-1.89,1.25-3.77,1.88-5.66.12-.37.35-.54.7-.54Z"/>
  <path class="cls-1" d="m4.26,4.31c0-.25,0-.47,0-.68,0-.42.31-.72.7-.72.39,0,.69.31.7.73,0,.22,0,.43,0,.68.23,0,.45,0,.66,0,.43,0,.75.31.74.71,0,.39-.32.69-.73.69-.21,0-.42,0-.67,0,0,.24,0,.47,0,.7-.01.41-.33.72-.72.71-.38,0-.68-.31-.68-.72,0-.22,0-.44,0-.69-.22,0-.43,0-.63,0-.46,0-.77-.29-.77-.7,0-.41.31-.7.77-.71.2,0,.4,0,.64,0Z"/>
  <path class="cls-1" d="m19.73,16.97c.24,0,.46,0,.67,0,.42,0,.73.3.73.69,0,.4-.31.7-.74.71-.21,0-.42,0-.66,0,0,.22,0,.43,0,.63,0,.45-.3.77-.7.77-.41,0-.7-.32-.7-.77,0-.2,0-.4,0-.63-.23,0-.45,0-.66,0-.43,0-.74-.3-.74-.71,0-.4.31-.69.75-.7.21,0,.42,0,.66,0,0-.23,0-.45,0-.67,0-.42.29-.73.69-.74.4,0,.71.3.72.73,0,.22,0,.43,0,.67Z"/>
</svg>