<svg width="32" height="35" viewBox="0 0 32 35" fill="none" xmlns="http://www.w3.org/2000/svg">
<path d="M0 32.9697V3.87879C0 2.81212 0.379798 1.89899 1.13939 1.13939C1.89899 0.379798 2.81212 0 3.87879 0H15.5152C16.5818 0 17.4949 0.379798 18.2545 1.13939C19.0141 1.89899 19.3939 2.81212 19.3939 3.87879V17.4545H21.3333C22.4 17.4545 23.3131 17.8343 24.0727 18.5939C24.8323 19.3535 25.2121 20.2667 25.2121 21.3333V30.0606C25.2121 30.6101 25.398 31.0707 25.7697 31.4424C26.1414 31.8141 26.602 32 27.1515 32C27.701 32 28.1616 31.8141 28.5333 31.4424C28.905 31.0707 29.0909 30.6101 29.0909 30.0606V16.097C28.8 16.2586 28.4929 16.3636 28.1697 16.4121C27.8465 16.4606 27.5071 16.4848 27.1515 16.4848C25.7939 16.4848 24.6465 16.0162 23.7091 15.0788C22.7717 14.1414 22.303 12.9939 22.303 11.6364C22.303 10.602 22.5859 9.67273 23.1515 8.84849C23.7172 8.02424 24.4687 7.43434 25.4061 7.07879L22.3515 4.02424C22.0606 3.73333 21.9152 3.39394 21.9152 3.00606C21.9152 2.61818 22.0606 2.27879 22.3515 1.98788C22.6101 1.72929 22.9414 1.59192 23.3455 1.57576C23.7495 1.5596 24.097 1.68081 24.3879 1.93939L30.5455 7.95152C31.0303 8.43636 31.3939 9.00202 31.6364 9.64849C31.8788 10.295 32 10.9576 32 11.6364V30.0606C32 31.4182 31.5313 32.5657 30.5939 33.503C29.6566 34.4404 28.5091 34.9091 27.1515 34.9091C25.7939 34.9091 24.6465 34.4404 23.7091 33.503C22.7717 32.5657 22.303 31.4182 22.303 30.0606V20.3636H19.3939V32.9697C19.3939 33.5192 19.2081 33.9798 18.8364 34.3515C18.4646 34.7232 18.004 34.9091 17.4545 34.9091H1.93939C1.3899 34.9091 0.929293 34.7232 0.557576 34.3515C0.185859 33.9798 0 33.5192 0 32.9697ZM3.87879 13.5758H15.5152V3.87879H3.87879V13.5758ZM27.1515 13.5758C27.701 13.5758 28.1616 13.3899 28.5333 13.0182C28.905 12.6465 29.0909 12.1859 29.0909 11.6364C29.0909 11.0869 28.905 10.6263 28.5333 10.2545C28.1616 9.88283 27.701 9.69697 27.1515 9.69697C26.602 9.69697 26.1414 9.88283 25.7697 10.2545C25.398 10.6263 25.2121 11.0869 25.2121 11.6364C25.2121 12.1859 25.398 12.6465 25.7697 13.0182C26.1414 13.3899 26.602 13.5758 27.1515 13.5758Z" fill="black"/>
</svg>
