<?xml version="1.0" encoding="UTF-8"?>
<svg id="Camada_1" data-name="Camada 1" xmlns="http://www.w3.org/2000/svg" viewBox="0 0 24 24">
  <defs>
    <style>
      .cls-1 {
        stroke-width: 0px;
      }
    </style>
  </defs>
  <path class="cls-1" d="m11.99,24C5.39,24,0,18.63,0,12.05,0,5.37,5.33.01,11.97,0c6.65-.01,12.03,5.36,12.03,12.02,0,6.62-5.37,11.98-12.01,11.98Zm10.21-11.02c-.23.17-.47.32-.67.51-.38.35-.68.38-1.09.06-.12-.09-.23-.19-.32-.3-.6-.69-1.06-1.47-1.4-2.31-.31-.75-.3-1.51,0-2.27.13-.32.29-.63.42-.96.08-.21.17-.42.2-.64.12-.89-.03-1.75-.36-2.58-.03-.06-.06-.13-.11-.17-1.3-1.17-2.81-1.96-4.51-2.36-.07-.02-.2.03-.23.08-.33.55-.82.89-1.41,1.1-.82.29-1.35.88-1.48,1.74-.11.76-.11,1.53-.17,2.29-.02.26-.05.52-.13.77-.2.62-.75.87-1.35.64-.19-.07-.38-.17-.57-.27-.29-.14-.57-.31-.87-.43-.48-.2-.91-.08-1.18.31-.27.39-.24.88.11,1.24.43.45.67.96.71,1.58.05.73.43,1.16,1.15,1.3.42.08.87.08,1.3.07.5-.01.99-.09,1.48-.12.59-.04,1.08.19,1.53.57.5.43.8.98,1.03,1.58.27.69.71,1.15,1.5,1.17.07,0,.14.02.21.04.53.11,1.05.26,1.51.57.66.45.8,1.06.39,1.74-.11.18-.23.35-.38.5-.42.43-.85.85-1.27,1.28-.55.57-1.02,1.19-1.31,1.94-.03.08-.06.17-.09.27,4.15-1.12,7.12-4.93,7.38-8.93ZM2.23,8.63c-1.05,3.48-.62,6.66,1.51,9.53,1.79,2.43,4.25,3.76,7.25,4.12.13-.93-.08-2.05-1.09-2.61-.29-.16-.58-.32-.87-.48-.26-.15-.53-.31-.77-.48-.43-.31-.62-.74-.61-1.29,0-.75-.04-1.5-.05-2.25,0-.34-.16-.55-.45-.7-.5-.26-1-.52-1.5-.8-1.5-.86-2.57-2.07-3.09-3.73-.13-.4-.21-.82-.33-1.31Z"/>
</svg>