<svg width="32" height="32" viewBox="0 0 32 32" fill="none" xmlns="http://www.w3.org/2000/svg">
<g clip-path="url(#clip0_319_280)">
<path d="M15.9867 32C7.18667 32 0 24.84 0 16.0667C0 7.16002 7.10667 0.0133519 15.96 1.85917e-05C24.8267 -0.0133147 32 7.14669 32 16.0267C32 24.8534 24.84 32 15.9867 32ZM29.6 17.3067C29.2933 17.5334 28.9733 17.7334 28.7067 17.9867C28.2 18.4534 27.8 18.4934 27.2533 18.0667C27.0933 17.9467 26.9467 17.8134 26.8267 17.6667C26.0267 16.7467 25.4133 15.7067 24.96 14.5867C24.5467 13.5867 24.56 12.5734 24.96 11.56C25.1333 11.1334 25.3467 10.72 25.52 10.28C25.6267 10 25.7467 9.72002 25.7867 9.42669C25.9467 8.24002 25.7467 7.09335 25.3067 5.98668C25.2667 5.90668 25.2267 5.81335 25.16 5.76002C23.4267 4.20002 21.4133 3.14669 19.1467 2.61335C19.0533 2.58669 18.88 2.65335 18.84 2.72002C18.4 3.45335 17.7467 3.90669 16.96 4.18669C15.8667 4.57335 15.16 5.36002 14.9867 6.50669C14.84 7.52002 14.84 8.54669 14.76 9.56002C14.7333 9.90669 14.6933 10.2534 14.5867 10.5867C14.32 11.4134 13.5867 11.7467 12.7867 11.44C12.5333 11.3467 12.28 11.2134 12.0267 11.08C11.64 10.8934 11.2667 10.6667 10.8667 10.5067C10.2267 10.24 9.65333 10.4 9.29333 10.92C8.93333 11.44 8.97333 12.0934 9.44 12.5734C10.0133 13.1734 10.3333 13.8534 10.3867 14.68C10.4533 15.6534 10.96 16.2267 11.92 16.4134C12.48 16.52 13.08 16.52 13.6533 16.5067C14.32 16.4934 14.9733 16.3867 15.6267 16.3467C16.4133 16.2934 17.0667 16.6 17.6667 17.1067C18.3333 17.68 18.7333 18.4134 19.04 19.2134C19.4 20.1334 19.9867 20.7467 21.04 20.7734C21.1333 20.7734 21.2267 20.8 21.32 20.8267C22.0267 20.9734 22.72 21.1734 23.3333 21.5867C24.2133 22.1867 24.4 23 23.8533 23.9067C23.7067 24.1467 23.5467 24.3734 23.3467 24.5734C22.7867 25.1467 22.2133 25.7067 21.6533 26.28C20.92 27.04 20.2933 27.8667 19.9067 28.8667C19.8667 28.9734 19.8267 29.0934 19.7867 29.2267C25.32 27.7334 29.28 22.6534 29.6267 17.32L29.6 17.3067ZM2.97333 11.5067C1.57333 16.1467 2.14667 20.3867 4.98667 24.2134C7.37333 27.4534 10.6533 29.2267 14.6533 29.7067C14.8267 28.4667 14.5467 26.9734 13.2 26.2267C12.8133 26.0134 12.4267 25.8 12.04 25.5867C11.6933 25.3867 11.3333 25.1734 11.0133 24.9467C10.44 24.5333 10.1867 23.96 10.2 23.2267C10.2 22.2267 10.1467 21.2267 10.1333 20.2267C10.1333 19.7734 9.92 19.4934 9.53333 19.2934C8.86667 18.9467 8.2 18.6 7.53333 18.2267C5.53333 17.08 4.10667 15.4667 3.41333 13.2534C3.24 12.72 3.13333 12.16 2.97333 11.5067Z" fill="url(#paint0_linear_319_280)"/>
</g>
<defs>
<linearGradient id="paint0_linear_319_280" x1="0" y1="16" x2="32" y2="16" gradientUnits="userSpaceOnUse">
<stop stop-color="#CCFF33"/>
<stop offset="0.49" stop-color="#9AFF29"/>
<stop offset="1" stop-color="#68FF20"/>
</linearGradient>
<clipPath id="clip0_319_280">
<rect width="32" height="32" fill="white"/>
</clipPath>
</defs>
</svg>
