<svg width="27" height="27" viewBox="0 0 27 27" fill="none" xmlns="http://www.w3.org/2000/svg">
<path d="M12.1283 17.5093C10.6298 17.8067 9.17541 18.071 7.73204 18.3793C6.86161 18.5775 6.03526 18.9299 5.28603 19.4365C4.91142 19.7008 4.52578 19.6568 4.12913 19.6017C2.3993 19.3374 1 17.7516 1 15.9896C1 15.8024 1.07713 15.5711 1.19833 15.4279C3.93081 12.1352 6.66329 8.85345 9.40679 5.57171C10.0679 4.7788 10.8942 4.27223 11.952 4.20615C11.996 4.20615 12.0511 4.18413 12.1172 4.17311C12.1172 3.83172 12.1172 3.49033 12.1172 3.15996C12.1172 2.67541 12.1172 2.20187 12.1172 1.71731C12.1172 1.19972 12.3486 0.979471 12.8665 1.0015C14.5192 1.04555 16.0176 2.28997 16.3812 3.91982C16.4033 3.99691 16.4143 4.08501 16.4363 4.17311C16.833 4.23919 17.2296 4.28324 17.6263 4.36033C19.7858 4.80083 21.5487 5.9131 22.981 7.55397C24.6888 9.5142 25.6364 11.8158 25.9119 14.3818C25.9669 14.9104 26 15.439 26 15.9676C26 18.0049 26 20.0312 26 22.0685C26 22.6302 25.8017 22.8394 25.2398 22.8284C23.1573 22.8064 21.2071 23.357 19.3451 24.249C17.9678 24.8987 16.5355 25.4163 15.037 25.6806C13.7589 25.9119 12.4588 26 11.1587 26C10.762 26 10.5196 25.7467 10.5196 25.3392C10.5196 24.0288 10.8281 22.7843 11.2358 21.5619C11.5663 20.5928 11.8969 19.6237 12.0291 18.5996C12.0732 18.2361 12.0952 17.8727 12.1283 17.4983V17.5093ZM11.6985 24.7886C11.8087 24.7996 11.8638 24.8106 11.9079 24.8106C12.7232 24.7446 13.5386 24.7005 14.3539 24.5904C15.9405 24.3812 17.4279 23.8305 18.8713 23.1698C20.2045 22.5531 21.5597 22.0245 23.0251 21.8262C23.6091 21.7492 24.2041 21.6941 24.799 21.639C24.799 21.617 24.8211 21.595 24.81 21.573C24.799 19.3704 24.8541 17.1679 24.755 14.9764C24.6448 12.5537 23.7964 10.3732 22.2208 8.51206C20.5791 6.56284 18.5187 5.43956 15.9185 5.38449C15.5108 5.38449 15.2904 5.15323 15.2684 4.72374C15.2353 3.99691 14.9599 3.38021 14.42 2.88464C14.1005 2.5873 13.7369 2.37807 13.2741 2.28997C13.2741 2.4111 13.2741 2.4992 13.2741 2.5873C13.2741 3.29211 13.2741 3.99691 13.2741 4.6907C13.2741 5.14222 13.0428 5.37348 12.591 5.37348C12.5029 5.37348 12.4037 5.37348 12.3156 5.37348C11.5223 5.38449 10.8502 5.65981 10.3433 6.28752C9.75937 7.01435 9.14235 7.71916 8.54738 8.43497C6.46496 10.9348 4.38255 13.4237 2.31115 15.9235C2.23402 16.0116 2.18995 16.1768 2.21199 16.2979C2.37726 17.4212 3.30278 18.3132 4.43764 18.4344C4.52578 18.4344 4.63596 18.4123 4.71309 18.3683C5.94711 17.6194 7.29132 17.1789 8.69061 16.9257C9.60511 16.7605 10.5196 16.6173 11.4231 16.4301C12.6571 16.1768 13.3733 15.4169 13.5606 14.1725C13.6267 13.732 13.6487 13.2805 13.6708 12.84C13.6928 12.3885 13.9132 12.1132 14.2768 12.1242C14.6404 12.1242 14.8828 12.4105 14.8607 12.862C14.8277 13.3906 14.7946 13.9192 14.7065 14.4368C14.5522 15.3509 14.1886 16.1658 13.4504 16.7605C13.3182 16.8706 13.2741 16.9697 13.2741 17.1349C13.3182 18.4344 13.0868 19.6788 12.6902 20.9122C12.4588 21.628 12.2164 22.3328 12.0181 23.0596C11.8638 23.6213 11.7867 24.205 11.6765 24.7886H11.6985Z" fill="url(#paint0_linear_324_470)" stroke="url(#paint1_linear_324_470)" stroke-miterlimit="10"/>
<defs>
<linearGradient id="paint0_linear_324_470" x1="1" y1="24.0329" x2="26" y2="2.9671" gradientUnits="userSpaceOnUse">
<stop stop-color="#CCFF33"/>
<stop offset="0.49" stop-color="#9AFF29"/>
<stop offset="1" stop-color="#68FF20"/>
</linearGradient>
<linearGradient id="paint1_linear_324_470" x1="0.999972" y1="24.1539" x2="26" y2="2.84604" gradientUnits="userSpaceOnUse">
<stop stop-color="#CCFF33"/>
<stop offset="0.49" stop-color="#9AFF29"/>
<stop offset="1" stop-color="#68FF20"/>
</linearGradient>
</defs>
</svg>
