<svg width="32" height="30" viewBox="0 0 32 30" fill="none" xmlns="http://www.w3.org/2000/svg">
<path d="M17.6461 19.4904C19.4442 19.8235 21.1895 20.1195 22.9216 20.4648C23.9661 20.6868 24.9577 21.0815 25.8568 21.6489C26.3063 21.9449 26.7691 21.8956 27.245 21.8339C29.3208 21.5379 31 19.7618 31 17.7883C31 17.5787 30.9074 17.3196 30.762 17.1593C27.483 13.4714 24.2041 9.79586 20.9119 6.12031C20.1186 5.23226 19.1269 4.66489 17.8576 4.59089C17.8048 4.59089 17.7386 4.56622 17.6593 4.55389C17.6593 4.17153 17.6593 3.78917 17.6593 3.41915C17.6593 2.87645 17.6593 2.34609 17.6593 1.80339C17.6593 1.22369 17.3817 0.977008 16.7602 1.00168C14.777 1.05101 12.9788 2.44476 12.5425 4.2702C12.5161 4.35654 12.5029 4.45521 12.4764 4.55389C12.0004 4.62789 11.5245 4.67723 11.0485 4.76357C8.45703 5.25693 6.34156 6.50267 4.62274 8.34044C2.57338 10.5359 1.43632 13.1137 1.10577 15.9876C1.03967 16.5796 1 17.1716 1 17.7637C1 20.0455 1 22.3149 1 24.5967C1 25.2258 1.23799 25.4601 1.91229 25.4478C4.41119 25.4231 6.75143 26.0398 8.9859 27.0389C10.6386 27.7666 12.3574 28.3463 14.1556 28.6423C15.6893 28.9013 17.2494 29 18.8096 29C19.2856 29 19.5765 28.7163 19.5765 28.26C19.5765 26.7922 19.2063 25.3985 18.7171 24.0294C18.3204 22.944 17.9238 21.8586 17.7651 20.7115C17.7122 20.3045 17.6858 19.8975 17.6461 19.4781V19.4904ZM18.1617 27.6433C18.0295 27.6556 17.9634 27.6679 17.9105 27.6679C16.9321 27.5939 15.9537 27.5446 14.9753 27.4212C13.0714 27.1869 11.2865 26.5702 9.55443 25.8301C7.95461 25.1394 6.32834 24.5474 4.56985 24.3254C3.8691 24.2391 3.15514 24.1774 2.44116 24.1157C2.44116 24.091 2.41472 24.0664 2.42794 24.0417C2.44116 21.5749 2.37506 19.1081 2.49405 16.6536C2.62627 13.9401 3.64434 11.498 5.53504 9.41351C7.50507 7.23038 9.97752 5.9723 13.0978 5.91063C13.587 5.91063 13.8515 5.65162 13.8779 5.17059C13.9176 4.35654 14.2481 3.66583 14.896 3.1108C15.2794 2.77778 15.7157 2.54343 16.271 2.44476C16.271 2.58044 16.271 2.67911 16.271 2.77778C16.271 3.56716 16.271 4.35654 16.271 5.13359C16.271 5.63928 16.5487 5.8983 17.0908 5.8983C17.1966 5.8983 17.3156 5.8983 17.4213 5.8983C18.3733 5.91063 19.1798 6.21899 19.788 6.92203C20.4888 7.73607 21.2292 8.52546 21.9431 9.32717C24.442 12.127 26.9409 14.9145 29.4266 17.7143C29.5192 17.813 29.5721 17.998 29.5456 18.1337C29.3473 19.3918 28.2367 20.3908 26.8748 20.5265C26.7691 20.5265 26.6368 20.5018 26.5443 20.4525C25.0635 19.6138 23.4504 19.1204 21.7713 18.8367C20.6739 18.6517 19.5765 18.4914 18.4923 18.2817C17.0115 17.998 16.152 17.147 15.9273 15.7532C15.8479 15.2599 15.8215 14.7542 15.7951 14.2608C15.7686 13.7551 15.5042 13.4467 15.0679 13.4591C14.6316 13.4591 14.3407 13.7798 14.3671 14.2855C14.4068 14.8775 14.4465 15.4695 14.5522 16.0492C14.7373 17.073 15.1736 17.9857 16.0595 18.6517C16.2182 18.7751 16.271 18.8861 16.271 19.0711C16.2182 20.5265 16.4958 21.9203 16.9718 23.3017C17.2494 24.1034 17.5403 24.8928 17.7783 25.7068C17.9634 26.3358 18.056 26.9895 18.1882 27.6433H18.1617Z" fill="black" stroke="black" stroke-miterlimit="10"/>
</svg>
