<svg width="27" height="32" viewBox="0 0 27 32" fill="none" xmlns="http://www.w3.org/2000/svg">
<path d="M13.0112 0C6.18065 0 0 5.23609 0 13.3351C0 18.5068 3.98512 24.5899 11.9378 31.598C12.2383 31.8573 12.622 32 13.019 32C13.4159 32 13.7996 31.8573 14.1002 31.598C22.0372 24.5899 26.0223 18.5068 26.0223 13.3351C26.0223 5.23609 19.8417 0 13.0112 0ZM13.0112 16.2625C11.2216 16.2625 9.75789 14.7988 9.75789 13.0092C9.75789 11.2196 11.2216 9.75594 13.0112 9.75594C14.8008 9.75594 16.2645 11.2196 16.2645 13.0092C16.2645 14.7988 14.8008 16.2625 13.0112 16.2625Z" fill="#CCFF33"/>
</svg>
