<svg width="32" height="32" viewBox="0 0 32 32" fill="none" xmlns="http://www.w3.org/2000/svg">
<path d="M19.5152 31.9579C19.0303 32.0667 18.6061 31.9647 18.2424 31.6518C17.8788 31.3389 17.697 30.9103 17.697 30.3662C17.697 29.9852 17.8249 29.6383 18.0808 29.3254C18.3367 29.0125 18.6532 28.8017 19.0303 28.6928C19.7037 28.5296 20.3569 28.3187 20.9899 28.0602C21.6229 27.8018 22.2357 27.4821 22.8283 27.1011C23.1785 26.8835 23.5623 26.795 23.9798 26.8358C24.3973 26.8767 24.7407 27.0331 25.0101 27.3052C25.3872 27.6861 25.5556 28.1215 25.5152 28.6112C25.4747 29.101 25.2391 29.4819 24.8081 29.754C23.9731 30.2981 23.1178 30.7471 22.2424 31.1008C21.367 31.4545 20.4579 31.7402 19.5152 31.9579ZM27.3131 24.9789C27.0438 24.7068 26.8889 24.3667 26.8485 23.9585C26.8081 23.5504 26.8956 23.1831 27.1111 22.8566C27.4613 22.258 27.771 21.6458 28.0404 21.02C28.3098 20.3942 28.5253 19.7276 28.6869 19.0202C28.7946 18.6392 29.0101 18.3127 29.3333 18.0406C29.6566 17.7686 30.0067 17.6325 30.3838 17.6325C30.9226 17.6325 31.3468 17.823 31.6566 18.2039C31.9663 18.5848 32.0539 19.0202 31.9192 19.5099C31.7037 20.4894 31.4141 21.4213 31.0505 22.3056C30.6869 23.1899 30.2357 24.0266 29.697 24.8156C29.4276 25.2237 29.0572 25.4482 28.5859 25.489C28.1145 25.5298 27.6902 25.3598 27.3131 24.9789ZM30.3434 14.3675C29.9663 14.3675 29.6229 14.2314 29.3131 13.9594C29.0034 13.6873 28.7946 13.3608 28.6869 12.9798C28.5253 12.2724 28.3098 11.599 28.0404 10.9596C27.771 10.3202 27.4613 9.7148 27.1111 9.14342C26.8956 8.81692 26.8081 8.4496 26.8485 8.04147C26.8889 7.63334 27.0438 7.29323 27.3131 7.02115C27.6902 6.64023 28.1145 6.46337 28.5859 6.49058C29.0572 6.51779 29.4276 6.73546 29.697 7.14359C30.2357 7.93264 30.6936 8.78291 31.0707 9.6944C31.4478 10.6059 31.7441 11.5378 31.9596 12.4901C32.0673 12.9798 31.9596 13.4152 31.6364 13.7961C31.3131 14.177 30.8822 14.3675 30.3434 14.3675ZM12.6869 31.9171C8.99663 31.0464 5.9596 29.1418 3.57576 26.2032C1.19192 23.2647 0 19.8636 0 16C0 12.1092 1.18519 8.68087 3.55556 5.71513C5.92593 2.74939 8.95623 0.858389 12.6465 0.0421295C13.1313 -0.0667051 13.5556 0.0353274 13.9192 0.348227C14.2828 0.661126 14.4646 1.07606 14.4646 1.59302C14.4646 1.97394 14.3367 2.32085 14.0808 2.63375C13.8249 2.94665 13.5084 3.15752 13.1313 3.26635C10.2492 3.97378 7.87879 5.51107 6.0202 7.87822C4.16162 10.2454 3.23232 12.9526 3.23232 16C3.23232 19.0474 4.16162 21.7342 6.0202 24.0606C7.87879 26.3869 10.2492 27.931 13.1313 28.6928C13.5084 28.8017 13.8249 29.0193 14.0808 29.3458C14.3367 29.6723 14.4646 30.0261 14.4646 30.407C14.4646 30.9239 14.2896 31.3321 13.9394 31.6314C13.5892 31.9307 13.1717 32.0259 12.6869 31.9171ZM22.9495 4.93969C22.33 4.55876 21.697 4.22546 21.0505 3.93977C20.404 3.65408 19.7441 3.42961 19.0707 3.26635C18.6936 3.15752 18.3704 2.94665 18.101 2.63375C17.8316 2.32085 17.697 1.97394 17.697 1.59302C17.697 1.07606 17.8788 0.661126 18.2424 0.348227C18.6061 0.0353274 19.0303 -0.0667051 19.5152 0.0421295C20.4579 0.259799 21.3737 0.545489 22.2626 0.899202C23.1515 1.25291 24.0135 1.70186 24.8485 2.24603C25.2795 2.51812 25.5152 2.89904 25.5556 3.38879C25.596 3.87855 25.4276 4.31389 25.0505 4.69481C24.7811 4.96689 24.4512 5.13015 24.0606 5.18456C23.67 5.23898 23.2997 5.15735 22.9495 4.93969ZM16.1212 23.5912C15.9057 23.5912 15.697 23.5572 15.4949 23.4892C15.2929 23.4212 15.1246 23.3191 14.9899 23.1831C13.2121 21.5234 11.8788 19.9725 10.9899 18.5304C10.101 17.0883 9.65657 15.7551 9.65657 14.5307C9.65657 12.6261 10.2694 11.0344 11.4949 9.75562C12.7205 8.47681 14.2626 7.83741 16.1212 7.83741C17.9798 7.83741 19.5219 8.47681 20.7475 9.75562C21.9731 11.0344 22.5859 12.6261 22.5859 14.5307C22.5859 15.7551 22.1414 17.0883 21.2525 18.5304C20.3636 19.9725 19.0303 21.5234 17.2525 23.1831C17.1178 23.3191 16.9495 23.4212 16.7475 23.4892C16.5455 23.5572 16.3367 23.5912 16.1212 23.5912ZM16.1212 16C16.6061 16 17.0168 15.8299 17.3535 15.4898C17.6902 15.1497 17.8586 14.7348 17.8586 14.245C17.8586 13.7553 17.6902 13.3404 17.3535 13.0002C17.0168 12.6601 16.6061 12.4901 16.1212 12.4901C15.6364 12.4901 15.2256 12.6601 14.8889 13.0002C14.5522 13.3404 14.3838 13.7553 14.3838 14.245C14.3838 14.7348 14.5522 15.1497 14.8889 15.4898C15.2256 15.8299 15.6364 16 16.1212 16Z" fill="black"/>
</svg>
