<svg width="20" height="25" viewBox="0 0 20 25" fill="none" xmlns="http://www.w3.org/2000/svg">
<path d="M10 0C4.75026 0 0 4.0243 0 10.249C0 14.2238 3.06285 18.8991 9.17504 24.2853C9.40601 24.4846 9.70092 24.5942 10.006 24.5942C10.3111 24.5942 10.606 24.4846 10.837 24.2853C16.9372 18.8991 20 14.2238 20 10.249C20 4.0243 15.2497 0 10 0ZM10 12.4989C8.62457 12.4989 7.49963 11.3739 7.49963 9.9985C7.49963 8.62307 8.62457 7.49812 10 7.49812C11.3754 7.49812 12.5004 8.62307 12.5004 9.9985C12.5004 11.3739 11.3754 12.4989 10 12.4989Z" fill="url(#paint0_linear_321_437)"/>
<defs>
<linearGradient id="paint0_linear_321_437" x1="1.29281e-05" y1="3.6736" x2="20" y2="20.9207" gradientUnits="userSpaceOnUse">
<stop stop-color="#CCFF33"/>
<stop offset="0.49" stop-color="#9AFF29"/>
<stop offset="1" stop-color="#68FF20"/>
</linearGradient>
</defs>
</svg>
