<svg width="15" height="15" viewBox="0 0 15 15" fill="none" xmlns="http://www.w3.org/2000/svg">
<path d="M7.335 0C3.30088 0 0 3.30088 0 7.335C0 11.3691 3.30088 14.67 7.335 14.67C11.3691 14.67 14.67 11.3691 14.67 7.335C14.67 3.30088 11.3691 0 7.335 0ZM9.93874 10.1227L6.94594 8.28125C6.83818 8.21689 6.74905 8.12558 6.68731 8.0163C6.62557 7.90703 6.59336 7.78356 6.59384 7.65805V4.21721C6.5977 4.07115 6.65798 3.93226 6.76203 3.82969C6.86608 3.72712 7.00581 3.66883 7.15191 3.66706C7.29746 3.66821 7.43673 3.72654 7.53965 3.82947C7.64258 3.93239 7.70091 4.07165 7.70206 4.21721V7.48112L10.5188 9.17557C10.7829 9.33753 10.8709 9.68171 10.7089 9.94666C10.6293 10.0712 10.5039 10.1594 10.3599 10.1923C10.2158 10.2253 10.0645 10.2003 9.93874 10.1227V10.1227Z" fill="#B3B3B3"/>
</svg>
