<svg width="32" height="24" viewBox="0 0 32 24" fill="none" xmlns="http://www.w3.org/2000/svg">
<path d="M0 8.74667C0.332917 8.13333 0.732418 7.90667 1.22514 8.02667C1.7578 8.16 1.9975 8.56 1.9975 9.28C1.9975 10.4 1.9975 11.5067 1.9975 12.6267V12.9867H3.99501C3.99501 12.1333 3.99501 11.2933 3.99501 10.4533C3.99501 10.1733 3.99501 9.89333 4.04827 9.61333C4.23471 8.68 5.02039 8.02667 5.96588 8C6.29879 8 6.63171 8 6.99126 8C6.99126 7.38667 6.99126 6.8 6.99126 6.2C6.99126 4.8 7.80358 4 9.20183 4C10.6667 4 12.1315 4 13.5963 4H13.9559V2C13.836 2 13.7295 2 13.6097 2C12.4378 2 11.2526 2 10.0807 2C9.42821 2 8.97545 1.58667 8.97545 0.986667C8.98876 0.413333 9.44153 0 10.0807 0C13.3433 0 16.6192 0 19.8818 0C20.521 0 20.9738 0.413333 20.9738 0.986667C20.9738 1.56 20.521 1.98667 19.8951 1.98667C18.6034 1.98667 17.3117 1.98667 16.0067 1.98667V3.98667C16.1132 3.98667 16.2197 3.98667 16.3396 3.98667C17.2984 3.98667 18.2572 3.98667 19.216 3.98667C20.1481 3.98667 20.8672 4.50667 21.1735 5.38667C21.3333 5.85333 21.4931 6.30667 21.6396 6.77333C21.6929 6.93333 21.7595 6.98667 21.9326 6.97333C22.2655 6.97333 22.5984 6.97333 22.9313 6.97333C24.1298 6.97333 24.9821 7.84 24.9954 9.05333C24.9954 9.34667 24.9954 9.64 24.9954 9.94667H25.9942C25.9942 9.65333 25.9942 9.36 25.9942 9.06667C25.9942 7.84 26.8464 7.01333 28.0716 6.96C28.9904 6.92 29.7362 7.18667 30.3354 7.89333C30.5352 8.13333 30.7615 8.34667 31.0012 8.56C31.454 8.97333 31.8402 9.42667 32 10.04V17.92C31.8402 18.52 31.454 18.9867 31.0012 19.4C30.7615 19.6133 30.5218 19.84 30.3221 20.08C29.7495 20.76 29.0304 21.0267 28.1382 21C26.8331 20.96 26.0075 20.1467 26.0075 18.84C26.0075 18.56 26.0075 18.2933 26.0075 18C25.6613 18 25.355 18.0133 25.062 18C24.8223 17.9867 24.7025 18.0533 24.6226 18.3067C24.1698 19.7067 23.7037 21.1067 23.2376 22.5067C22.9047 23.5067 22.2122 24 21.1469 24C17.9908 24 14.8481 24 11.6921 24C10.9064 24 10.2938 23.7067 9.82772 23.0667C9.36163 22.4267 8.88223 21.8 8.40283 21.16C8.10986 20.7733 7.8968 20.2533 7.51061 20.0667C7.12443 19.8667 6.57844 20 6.09904 20C4.88722 20 4.03496 19.1333 4.03496 17.9333C4.03496 17.0667 4.03496 16.2 4.03496 15.3333C4.03496 15.2267 4.03496 15.12 4.03496 15.0133H2.03745V15.3733C2.03745 16.4933 2.03745 17.6 2.03745 18.72C2.03745 19.4533 1.79775 19.84 1.26509 19.9733C0.772368 20.0933 0.372867 19.8667 0.0399501 19.2533V8.74667H0ZM22.9713 9C22.3321 9 21.7195 9 21.1203 9C20.4811 9 20.1748 8.77333 19.975 8.16C19.762 7.53333 19.5489 6.92 19.3625 6.29333C19.2959 6.06667 19.1893 5.98667 18.9496 5.98667C15.7403 5.98667 12.5177 5.98667 9.30836 5.98667C9.20183 5.98667 9.10861 5.98667 8.98876 6C8.98876 6.85333 8.98876 7.68 8.98876 8.52C8.98876 8.65333 8.98876 8.78667 8.98876 8.92C8.98876 9.56 8.57595 9.97333 7.93675 9.98667C7.29754 9.98667 6.65834 9.98667 6.01914 9.98667V17.9867C6.64503 17.9867 7.24428 17.9867 7.85685 17.9867C8.2963 17.9867 8.62921 18.1467 8.89555 18.5067C9.69455 19.5867 10.5069 20.6533 11.3059 21.7333C11.439 21.92 11.5855 22 11.8119 22C14.8481 22 17.8843 22 20.9205 22C21.1735 22 21.2934 21.9333 21.3733 21.68C21.8926 20.0533 22.4386 18.44 22.9846 16.8267C23.171 16.2933 23.4773 16.0133 23.9567 16C24.9821 16 25.9942 16 27.0196 16C27.4723 16 27.8319 16.3067 27.9384 16.7467C27.9784 16.88 27.9784 17.04 27.9784 17.1733C27.9784 17.7733 27.9784 18.3733 27.9784 18.96C28.3779 19.0667 28.6575 18.96 28.8972 18.6667C29.1635 18.3467 29.4698 18.0667 29.7761 17.7867C29.9226 17.6533 29.9892 17.5067 29.9759 17.2933C29.9759 15.5333 29.9759 13.7733 29.9759 12.0133C29.9759 11.4667 30.109 10.8667 29.9226 10.4133C29.7362 9.96 29.1902 9.66667 28.8439 9.25333C28.5909 8.96 28.3113 8.96 27.9784 9.01333C27.9784 9.64 27.9784 10.2533 27.9784 10.8667C27.9784 11.5867 27.5789 11.9867 26.8464 11.9867C25.9276 11.9867 25.0221 11.9867 24.1032 11.9867C23.3841 11.9867 22.9846 11.5867 22.9846 10.8667C22.9846 10.2533 22.9846 9.64 22.9846 8.98667L22.9713 9Z" fill="url(#paint0_linear_324_477)"/>
<path d="M16.5112 15.9956C15.3491 15.9956 14.2538 15.9956 13.1451 15.9956C12.2234 15.9956 11.7692 15.3431 12.1165 14.4908C12.7577 12.8795 13.3989 11.2681 14.0534 9.65682C14.2404 9.20406 14.6411 8.96435 15.0819 9.0043C15.5094 9.04426 15.8834 9.33722 15.9502 9.77667C15.9903 10.0031 15.9502 10.2561 15.87 10.4691C15.456 11.5478 15.0151 12.6131 14.5877 13.6785C14.5476 13.7717 14.5209 13.8649 14.4675 13.9981C15.643 13.9981 16.7784 13.9981 17.9138 13.9981C18.3279 13.9981 18.6484 14.1446 18.8622 14.5041C19.0358 14.7971 19.0358 15.09 18.9156 15.4097C18.2477 17.0609 17.5932 18.7122 16.9253 20.3502C16.6982 20.8961 16.1372 21.1358 15.6162 20.9228C15.0953 20.7097 14.8549 20.1504 15.0686 19.6044C15.496 18.5124 15.9368 17.4205 16.3776 16.3285C16.4177 16.2353 16.4578 16.1421 16.5112 15.9956Z" fill="url(#paint1_linear_324_477)"/>
<defs>
<linearGradient id="paint0_linear_324_477" x1="1.67106" y1="24" x2="30.3289" y2="-3.14349e-05" gradientUnits="userSpaceOnUse">
<stop stop-color="#CCFF33"/>
<stop offset="0.49" stop-color="#9AFF29"/>
<stop offset="1" stop-color="#68FF20"/>
</linearGradient>
<linearGradient id="paint1_linear_324_477" x1="12.3655" y1="21" x2="21.7688" y2="17.5547" gradientUnits="userSpaceOnUse">
<stop stop-color="#CCFF33"/>
<stop offset="0.49" stop-color="#9AFF29"/>
<stop offset="1" stop-color="#68FF20"/>
</linearGradient>
</defs>
</svg>
