<svg width="32" height="24" viewBox="0 0 32 24" fill="none" xmlns="http://www.w3.org/2000/svg">
<path d="M0 8.74667C0.332917 8.13333 0.732418 7.90667 1.22514 8.02667C1.7578 8.16 1.9975 8.56 1.9975 9.28C1.9975 10.4 1.9975 11.5067 1.9975 12.6267V12.9867H3.99501C3.99501 12.1333 3.99501 11.2933 3.99501 10.4533C3.99501 10.1733 3.99501 9.89333 4.04827 9.61333C4.23471 8.68 5.02039 8.02667 5.96588 8C6.29879 8 6.63171 8 6.99126 8C6.99126 7.38667 6.99126 6.8 6.99126 6.2C6.99126 4.8 7.80358 4 9.20183 4C10.6667 4 12.1315 4 13.5963 4H13.9559V2C13.836 2 13.7295 2 13.6097 2C12.4378 2 11.2526 2 10.0807 2C9.42821 2 8.97545 1.58667 8.97545 0.986667C8.98876 0.413333 9.44153 0 10.0807 0C13.3433 0 16.6192 0 19.8818 0C20.521 0 20.9738 0.413333 20.9738 0.986667C20.9738 1.56 20.521 1.98667 19.8951 1.98667C18.6034 1.98667 17.3117 1.98667 16.0067 1.98667V3.98667C16.1132 3.98667 16.2197 3.98667 16.3396 3.98667C17.2984 3.98667 18.2572 3.98667 19.216 3.98667C20.1481 3.98667 20.8672 4.50667 21.1735 5.38667C21.3333 5.85333 21.4931 6.30667 21.6396 6.77333C21.6929 6.93333 21.7595 6.98667 21.9326 6.97333C22.2655 6.97333 22.5984 6.97333 22.9313 6.97333C24.1298 6.97333 24.9821 7.84 24.9954 9.05333C24.9954 9.34667 24.9954 9.64 24.9954 9.94667H25.9942C25.9942 9.65333 25.9942 9.36 25.9942 9.06667C25.9942 7.84 26.8464 7.01333 28.0716 6.96C28.9904 6.92 29.7362 7.18667 30.3354 7.89333C30.5352 8.13333 30.7615 8.34667 31.0012 8.56C31.454 8.97333 31.8402 9.42667 32 10.04V17.92C31.8402 18.52 31.454 18.9867 31.0012 19.4C30.7615 19.6133 30.5218 19.84 30.3221 20.08C29.7495 20.76 29.0304 21.0267 28.1382 21C26.8331 20.96 26.0075 20.1467 26.0075 18.84C26.0075 18.56 26.0075 18.2933 26.0075 18C25.6613 18 25.355 18.0133 25.062 18C24.8223 17.9867 24.7025 18.0533 24.6226 18.3067C24.1698 19.7067 23.7037 21.1067 23.2376 22.5067C22.9047 23.5067 22.2122 24 21.1469 24C17.9908 24 14.8481 24 11.6921 24C10.9064 24 10.2938 23.7067 9.82772 23.0667C9.36163 22.4267 8.88223 21.8 8.40283 21.16C8.10986 20.7733 7.8968 20.2533 7.51061 20.0667C7.12443 19.8667 6.57844 20 6.09904 20C4.88722 20 4.03496 19.1333 4.03496 17.9333C4.03496 17.0667 4.03496 16.2 4.03496 15.3333C4.03496 15.2267 4.03496 15.12 4.03496 15.0133H2.03745V15.3733C2.03745 16.4933 2.03745 17.6 2.03745 18.72C2.03745 19.4533 1.79775 19.84 1.26509 19.9733C0.772368 20.0933 0.372867 19.8667 0.0399501 19.2533V8.74667H0ZM22.9713 9C22.3321 9 21.7195 9 21.1203 9C20.4811 9 20.1748 8.77333 19.975 8.16C19.762 7.53333 19.5489 6.92 19.3625 6.29333C19.2959 6.06667 19.1893 5.98667 18.9496 5.98667C15.7403 5.98667 12.5177 5.98667 9.30836 5.98667C9.20183 5.98667 9.10861 5.98667 8.98876 6C8.98876 6.85333 8.98876 7.68 8.98876 8.52C8.98876 8.65333 8.98876 8.78667 8.98876 8.92C8.98876 9.56 8.57595 9.97333 7.93675 9.98667C7.29754 9.98667 6.65834 9.98667 6.01914 9.98667V17.9867C6.64503 17.9867 7.24428 17.9867 7.85685 17.9867C8.2963 17.9867 8.62921 18.1467 8.89555 18.5067C9.69455 19.5867 10.5069 20.6533 11.3059 21.7333C11.439 21.92 11.5855 22 11.8119 22C14.8481 22 17.8843 22 20.9205 22C21.1735 22 21.2934 21.9333 21.3733 21.68C21.8926 20.0533 22.4386 18.44 22.9846 16.8267C23.171 16.2933 23.4773 16.0133 23.9567 16C24.9821 16 25.9942 16 27.0196 16C27.4723 16 27.8319 16.3067 27.9384 16.7467C27.9784 16.88 27.9784 17.04 27.9784 17.1733C27.9784 17.7733 27.9784 18.3733 27.9784 18.96C28.3779 19.0667 28.6575 18.96 28.8972 18.6667C29.1635 18.3467 29.4698 18.0667 29.7761 17.7867C29.9226 17.6533 29.9892 17.5067 29.9759 17.2933C29.9759 15.5333 29.9759 13.7733 29.9759 12.0133C29.9759 11.4667 30.109 10.8667 29.9226 10.4133C29.7362 9.96 29.1902 9.66667 28.8439 9.25333C28.5909 8.96 28.3113 8.96 27.9784 9.01333C27.9784 9.64 27.9784 10.2533 27.9784 10.8667C27.9784 11.5867 27.5789 11.9867 26.8464 11.9867C25.9276 11.9867 25.0221 11.9867 24.1032 11.9867C23.3841 11.9867 22.9846 11.5867 22.9846 10.8667C22.9846 10.2533 22.9846 9.64 22.9846 8.98667L22.9713 9Z" fill="black"/>
<path d="M16.9809 15.1669L17.2258 14.4956H16.5112H16.5044H16.4976H16.4908H16.484H16.4772H16.4704H16.4636H16.4568H16.45H16.4432H16.4364H16.4296H16.4228H16.416H16.4092H16.4025H16.3957H16.3889H16.3821H16.3753H16.3685H16.3618H16.355H16.3482H16.3414H16.3347H16.3279H16.3211H16.3144H16.3076H16.3008H16.2941H16.2873H16.2806H16.2738H16.267H16.2603H16.2535H16.2468H16.24H16.2333H16.2265H16.2198H16.213H16.2063H16.1995H16.1928H16.1861H16.1793H16.1726H16.1658H16.1591H16.1524H16.1456H16.1389H16.1322H16.1255H16.1187H16.112H16.1053H16.0986H16.0918H16.0851H16.0784H16.0717H16.065H16.0582H16.0515H16.0448H16.0381H16.0314H16.0247H16.018H16.0113H16.0046H15.9979H15.9912H15.9845H15.9778H15.9711H15.9644H15.9577H15.951H15.9443H15.9376H15.9309H15.9242H15.9175H15.9108H15.9041H15.8974H15.8908H15.8841H15.8774H15.8707H15.864H15.8574H15.8507H15.844H15.8373H15.8307H15.824H15.8173H15.8106H15.804H15.7973H15.7906H15.784H15.7773H15.7706H15.764H15.7573H15.7507H15.744H15.7373H15.7307H15.724H15.7174H15.7107H15.7041H15.6974H15.6908H15.6841H15.6775H15.6708H15.6642H15.6575H15.6509H15.6442H15.6376H15.631H15.6243H15.6177H15.6111H15.6044H15.5978H15.5911H15.5845H15.5779H15.5713H15.5646H15.558H15.5514H15.5447H15.5381H15.5315H15.5249H15.5182H15.5116H15.505H15.4984H15.4918H15.4851H15.4785H15.4719H15.4653H15.4587H15.4521H15.4455H15.4388H15.4322H15.4256H15.419H15.4124H15.4058H15.3992H15.3926H15.386H15.3794H15.3728H15.3662H15.3596H15.353H15.3464H15.3398H15.3332H15.3266H15.32H15.3134H15.3068H15.3002H15.2936H15.287H15.2805H15.2739H15.2673H15.2607H15.2541H15.2475H15.2409H15.2344H15.2278H15.2212H15.2146H15.208H15.2015H15.1949H15.1883H15.1817H15.1751H15.1686H15.162H15.1554H15.1489H15.1423H15.1357H15.1291H15.1226H15.116H15.1094H15.1029H15.0963H15.0897H15.0832H15.0766H15.07H15.0635H15.0569H15.0504H15.0438H15.0372H15.0307H15.0241H15.0176H15.011H15.0045H14.9979H14.9913H14.9848H14.9782H14.9717H14.9651H14.9586H14.952H14.9455H14.9389H14.9324H14.9258H14.9193H14.9127H14.9062H14.8997H14.8931H14.8866H14.88H14.8735H14.8669H14.8604H14.8539H14.8473H14.8408H14.8342H14.8277H14.8212H14.8146H14.8081H14.8016H14.795H14.7885H14.782H14.7754H14.7689H14.7624H14.7558H14.7493H14.7428H14.7362H14.7297H14.7232H14.7167H14.7101H14.7036H14.6971H14.6906H14.684H14.6775H14.671H14.6645H14.6579H14.6514H14.6449H14.6384H14.6319H14.6253H14.6188H14.6123H14.6058H14.5993H14.5927H14.5862H14.5797H14.5732H14.5667H14.5602H14.5537H14.5471H14.5406H14.5341H14.5276H14.5211H14.5146H14.5081H14.5016H14.495H14.4885H14.482H14.4755H14.469H14.4625H14.456H14.4495H14.443H14.4365H14.43H14.4235H14.417H14.4104H14.4039H14.3974H14.3909H14.3844H14.3779H14.3714H14.3649H14.3584H14.3519H14.3454H14.3389H14.3324H14.3259H14.3194H14.3129H14.3064H14.2999H14.2934H14.2869H14.2804H14.2739H14.2674H14.2609H14.2544H14.2479H14.2414H14.235H14.2285H14.222H14.2155H14.209H14.2025H14.196H14.1895H14.183H14.1765H14.17H14.1635H14.157H14.1505H14.144H14.1375H14.1311H14.1246H14.1181H14.1116H14.1051H14.0986H14.0921H14.0856H14.0791H14.0726H14.0662H14.0597H14.0532H14.0467H14.0402H14.0337H14.0272H14.0207H14.0143H14.0078H14.0013H13.9948H13.9883H13.9818H13.9753H13.9688H13.9624H13.9559H13.9494H13.9429H13.9364H13.9299H13.9234H13.917H13.9105H13.904H13.8975H13.891H13.8845H13.878H13.8716H13.8651H13.8586H13.8521H13.8456H13.8391H13.8327H13.8262H13.8197H13.8132H13.8067H13.8002H13.7938H13.7873H13.7808H13.7743H13.7678H13.7613H13.7549H13.7484H13.7419H13.7354H13.7289H13.7224H13.716H13.7095H13.703H13.6965H13.69H13.6835H13.6771H13.6706H13.6641H13.6576H13.6511H13.6446H13.6382H13.6317H13.6252H13.6187H13.6122H13.6057H13.5993H13.5928H13.5863H13.5798H13.5733H13.5668H13.5604H13.5539H13.5474H13.5409H13.5344H13.5279H13.5214H13.515H13.5085H13.502H13.4955H13.489H13.4825H13.4761H13.4696H13.4631H13.4566H13.4501H13.4436H13.4371H13.4307H13.4242H13.4177H13.4112H13.4047H13.3982H13.3917H13.3852H13.3788H13.3723H13.3658H13.3593H13.3528H13.3463H13.3398H13.3333H13.3269H13.3204H13.3139H13.3074H13.3009H13.2944H13.2879H13.2814H13.2749H13.2684H13.262H13.2555H13.249H13.2425H13.236H13.2295H13.223H13.2165H13.21H13.2035H13.197H13.1905H13.184H13.1775H13.171H13.1646H13.1581H13.1516H13.1451C12.7976 14.4956 12.6333 14.3761 12.567 14.2796C12.5023 14.1854 12.4505 13.9962 12.5796 13.6795L12.5796 13.6795L12.5811 13.6757C13.2222 12.0646 13.8625 10.4554 14.516 8.84649C14.6238 8.58671 14.8252 8.48334 15.0361 8.5022C15.2759 8.52489 15.4295 8.6782 15.4559 8.8518L15.4557 8.85183L15.4578 8.86383C15.4784 8.97971 15.4596 9.1395 15.4026 9.29167C15.1121 10.0484 14.8093 10.7962 14.5053 11.5469C14.3787 11.8595 14.2519 12.1726 14.1257 12.4871C14.1 12.5477 14.0792 12.606 14.0621 12.654L14.0615 12.6556L14.0605 12.6586C14.0423 12.7098 14.0255 12.7568 14.0034 12.8119L13.7281 13.4981H14.4675H14.4744H14.4813H14.4881H14.495H14.5019H14.5088H14.5157H14.5226H14.5294H14.5363H14.5432H14.5501H14.5569H14.5638H14.5707H14.5776H14.5844H14.5913H14.5982H14.605H14.6119H14.6188H14.6257H14.6325H14.6394H14.6463H14.6531H14.66H14.6668H14.6737H14.6806H14.6874H14.6943H14.7011H14.708H14.7149H14.7217H14.7286H14.7354H14.7423H14.7491H14.756H14.7628H14.7697H14.7765H14.7834H14.7902H14.7971H14.8039H14.8107H14.8176H14.8244H14.8313H14.8381H14.845H14.8518H14.8586H14.8655H14.8723H14.8791H14.886H14.8928H14.8997H14.9065H14.9133H14.9201H14.927H14.9338H14.9406H14.9475H14.9543H14.9611H14.9679H14.9748H14.9816H14.9884H14.9952H15.0021H15.0089H15.0157H15.0225H15.0293H15.0362H15.043H15.0498H15.0566H15.0634H15.0702H15.0771H15.0839H15.0907H15.0975H15.1043H15.1111H15.1179H15.1247H15.1315H15.1383H15.1451H15.1519H15.1588H15.1656H15.1724H15.1792H15.186H15.1928H15.1996H15.2064H15.2132H15.22H15.2268H15.2336H15.2404H15.2471H15.2539H15.2607H15.2675H15.2743H15.2811H15.2879H15.2947H15.3015H15.3083H15.3151H15.3218H15.3286H15.3354H15.3422H15.349H15.3558H15.3626H15.3693H15.3761H15.3829H15.3897H15.3965H15.4032H15.41H15.4168H15.4236H15.4303H15.4371H15.4439H15.4507H15.4574H15.4642H15.471H15.4778H15.4845H15.4913H15.4981H15.5048H15.5116H15.5184H15.5251H15.5319H15.5387H15.5454H15.5522H15.559H15.5657H15.5725H15.5793H15.586H15.5928H15.5995H15.6063H15.6131H15.6198H15.6266H15.6333H15.6401H15.6468H15.6536H15.6604H15.6671H15.6739H15.6806H15.6874H15.6941H15.7009H15.7076H15.7144H15.7211H15.7279H15.7346H15.7414H15.7481H15.7549H15.7616H15.7684H15.7751H15.7818H15.7886H15.7953H15.8021H15.8088H15.8156H15.8223H15.829H15.8358H15.8425H15.8493H15.856H15.8627H15.8695H15.8762H15.8829H15.8897H15.8964H15.9031H15.9099H15.9166H15.9233H15.9301H15.9368H15.9435H15.9503H15.957H15.9637H15.9705H15.9772H15.9839H15.9906H15.9974H16.0041H16.0108H16.0175H16.0243H16.031H16.0377H16.0444H16.0512H16.0579H16.0646H16.0713H16.078H16.0848H16.0915H16.0982H16.1049H16.1116H16.1184H16.1251H16.1318H16.1385H16.1452H16.1519H16.1587H16.1654H16.1721H16.1788H16.1855H16.1922H16.1989H16.2057H16.2124H16.2191H16.2258H16.2325H16.2392H16.2459H16.2526H16.2593H16.266H16.2727H16.2795H16.2862H16.2929H16.2996H16.3063H16.313H16.3197H16.3264H16.3331H16.3398H16.3465H16.3532H16.3599H16.3666H16.3733H16.38H16.3867H16.3934H16.4001H16.4068H16.4135H16.4202H16.4269H16.4336H16.4403H16.447H16.4537H16.4604H16.4671H16.4738H16.4805H16.4872H16.4938H16.5005H16.5072H16.5139H16.5206H16.5273H16.534H16.5407H16.5474H16.5541H16.5608H16.5674H16.5741H16.5808H16.5875H16.5942H16.6009H16.6076H16.6143H16.621H16.6276H16.6343H16.641H16.6477H16.6544H16.6611H16.6677H16.6744H16.6811H16.6878H16.6945H16.7012H16.7078H16.7145H16.7212H16.7279H16.7346H16.7413H16.7479H16.7546H16.7613H16.768H16.7747H16.7813H16.788H16.7947H16.8014H16.808H16.8147H16.8214H16.8281H16.8348H16.8414H16.8481H16.8548H16.8615H16.8681H16.8748H16.8815H16.8882H16.8948H16.9015H16.9082H16.9148H16.9215H16.9282H16.9349H16.9415H16.9482H16.9549H16.9616H16.9682H16.9749H16.9816H16.9882H16.9949H17.0016H17.0082H17.0149H17.0216H17.0282H17.0349H17.0416H17.0483H17.0549H17.0616H17.0683H17.0749H17.0816H17.0883H17.0949H17.1016H17.1083H17.1149H17.1216H17.1283H17.1349H17.1416H17.1482H17.1549H17.1616H17.1682H17.1749H17.1816H17.1882H17.1949H17.2016H17.2082H17.2149H17.2215H17.2282H17.2349H17.2415H17.2482H17.2549H17.2615H17.2682H17.2748H17.2815H17.2882H17.2948H17.3015H17.3081H17.3148H17.3215H17.3281H17.3348H17.3414H17.3481H17.3548H17.3614H17.3681H17.3747H17.3814H17.3881H17.3947H17.4014H17.408H17.4147H17.4213H17.428H17.4347H17.4413H17.448H17.4546H17.4613H17.4679H17.4746H17.4813H17.4879H17.4946H17.5012H17.5079H17.5145H17.5212H17.5279H17.5345H17.5412H17.5478H17.5545H17.5611H17.5678H17.5744H17.5811H17.5877H17.5944H17.6011H17.6077H17.6144H17.621H17.6277H17.6343H17.641H17.6476H17.6543H17.6609H17.6676H17.6743H17.6809H17.6876H17.6942H17.7009H17.7075H17.7142H17.7208H17.7275H17.7341H17.7408H17.7474H17.7541H17.7608H17.7674H17.7741H17.7807H17.7874H17.794H17.8007H17.8073H17.814H17.8206H17.8273H17.8339H17.8406H17.8472H17.8539H17.8605H17.8672H17.8739H17.8805H17.8872H17.8938H17.9005H17.9071H17.9138C18.0626 13.4981 18.1634 13.5244 18.2345 13.5609C18.3016 13.5954 18.3685 13.6523 18.4322 13.7593C18.5122 13.8944 18.5259 14.0228 18.4496 14.2283C18.1708 14.9176 17.8953 15.6044 17.6205 16.2895C17.2357 17.249 16.8523 18.205 16.463 19.1596C16.3356 19.4642 16.0581 19.5633 15.8055 19.46C15.5438 19.3529 15.4175 19.0847 15.5342 18.7867C15.9598 17.6993 16.3989 16.6115 16.8392 15.5209C16.8796 15.4269 16.9236 15.3241 16.9809 15.1669Z" fill="black" stroke="black"/>
</svg>
