<svg width="24" height="20" viewBox="0 0 24 20" fill="none" xmlns="http://www.w3.org/2000/svg">
<path d="M0 12.8382C0 10.9461 0 9.04449 0 7.15234C0.01 7.15234 0.03 7.13342 0.03 7.12396C0.22 6.76445 0.51 6.60362 0.84 6.6793C1.2 6.76445 1.4 7.01989 1.4 7.4267C1.4 7.61592 1.4 7.80513 1.4 7.98488H2.81C2.81 7.89028 2.81 7.81459 2.81 7.72945C2.81 6.73607 2.81 5.74269 2.81 4.74931C2.81 3.85054 3.25 3.21667 4.11 2.83824C4.22 2.79094 4.28 2.73417 4.27 2.61119C4.26 2.39359 4.27 2.18545 4.27 1.96785C4.29 0.936634 5.13 0.0851682 6.21 2.15191e-05C7.3 -0.0756644 8.27 0.633891 8.44 1.65565C8.5 1.97732 8.48 2.3179 8.5 2.64903H9.89C9.89 2.40305 9.89 2.17599 9.89 1.94893C9.92 0.927174 10.76 0.0851682 11.83 2.15191e-05C12.92 -0.0851251 13.89 0.62443 14.07 1.64619C14.13 1.96786 14.11 2.30844 14.13 2.63957H15.52C15.52 2.39359 15.52 2.16653 15.52 1.93947C15.54 0.917713 16.39 0.0757074 17.45 -0.00943922C18.53 -0.0945859 19.51 0.614969 19.69 1.63673C19.74 1.95839 19.71 2.28952 19.74 2.61119C19.74 2.67741 19.8 2.78148 19.86 2.80986C20.75 3.20721 21.19 3.86 21.19 4.79662C21.19 6.65092 21.19 8.51469 21.19 10.369V10.6434C21.89 10.6434 22.57 10.6434 23.25 10.6434C23.69 10.6434 24 10.9272 24 11.3056C24 11.684 23.69 11.9679 23.26 11.9773C22.67 11.9773 22.09 11.9773 21.5 11.9773C21.4 11.9773 21.3 11.9773 21.21 11.9773V13.3113C21.91 13.3113 22.59 13.3113 23.27 13.3113C23.69 13.3113 24 13.5762 24 13.9641C24 14.8628 24 15.7522 24 16.6509C24 17.0199 23.7 17.2848 23.31 17.3037C23.22 17.3037 23.12 17.3037 23.03 17.3037C22.42 17.3037 21.82 17.3037 21.19 17.3037C21.19 17.5213 21.19 17.72 21.19 17.9187C21.19 19.0539 20.26 19.9527 19.06 19.9622C17.17 19.9716 15.28 19.9622 13.39 19.9622C12.36 19.9622 11.51 19.2621 11.34 18.3066C11.28 17.9849 11.3 17.6443 11.28 17.3037C11.18 17.3037 11.09 17.3037 11 17.3037C9.02 17.3037 7.03 17.3037 5.05 17.3037C3.74 17.3037 2.82 16.4239 2.82 15.194C2.82 14.2006 2.82 13.2072 2.82 12.2138C2.82 12.1381 2.82 12.0625 2.82 11.9773H1.41C1.41 12.2044 1.41 12.4314 1.41 12.649C1.4 12.9612 1.18 13.2072 0.86 13.2829C0.56 13.3491 0.25 13.2072 0.09 12.9329C0.06 12.8855 0.04 12.8477 0.01 12.8099L0 12.8382ZM12.8 10.6528C12.78 10.5487 12.75 10.4636 12.74 10.3785C12.72 9.82973 12.7 9.28101 12.7 8.74174C12.7 8.30655 12.98 8.00381 13.39 8.00381C13.81 8.00381 14.1 8.29709 14.1 8.7512C14.1 9.16748 14.1 9.58375 14.1 9.99056C14.1 10.3311 14.33 10.615 14.67 10.6528C14.97 10.6907 15.28 10.6528 15.6 10.6528C15.58 10.5487 15.54 10.4636 15.54 10.3785C15.52 9.82973 15.5 9.28101 15.5 8.74174C15.5 8.30655 15.79 8.01327 16.2 8.00381C16.61 8.00381 16.9 8.30655 16.91 8.73228C16.91 9.11071 16.91 9.48914 16.91 9.86757C16.91 10.4163 17.17 10.6717 17.75 10.6717C18.35 10.6717 18.95 10.6717 19.55 10.6717C19.62 10.6717 19.68 10.6717 19.75 10.6623V6.69822H4.23V13.3302H19.76V12.0152H19.46C16.07 12.0152 12.68 12.0152 9.29 12.0152C7.97 12.0152 7.07 11.1637 7.07 9.90542C7.07 9.51753 7.07 9.13909 7.07 8.7512C7.07 8.31601 7.36 8.02273 7.77 8.01327C8.18 8.01327 8.47 8.31601 8.48 8.74174C8.48 9.16748 8.48 9.58375 8.48 10.0095C8.48 10.3595 8.75 10.6434 9.11 10.6717C9.4 10.6907 9.69 10.6717 9.92 10.6717C9.91 10.0189 9.89 9.37561 9.89 8.74174C9.89 8.31601 10.19 8.01327 10.6 8.01327C11.01 8.01327 11.3 8.31601 11.3 8.7512C11.3 9.16748 11.3 9.58375 11.3 9.99056C11.3 10.3406 11.54 10.6244 11.89 10.6623C12.19 10.6907 12.49 10.6623 12.81 10.6623L12.8 10.6528ZM4.21 14.6736C4.21 14.8439 4.21 14.9953 4.21 15.1467C4.21 15.7332 4.49 15.9981 5.11 15.9981C7.36 15.9981 9.61 15.9981 11.86 15.9981C12.44 15.9981 12.7 16.2441 12.7 16.8023C12.7 17.1902 12.7 17.5686 12.7 17.9565C12.7 18.3822 13 18.6661 13.45 18.6661C15.29 18.6661 17.13 18.6661 18.98 18.6661C19.47 18.6661 19.78 18.3728 19.78 17.8997C19.78 16.8969 19.78 15.8846 19.78 14.8818C19.78 14.8155 19.78 14.7493 19.78 14.6831H4.22L4.21 14.6736ZM19.77 5.32642C19.77 5.15612 19.77 5.00475 19.77 4.86284C19.77 4.25735 19.5 4.00191 18.86 4.00191C14.28 4.00191 9.7 4.00191 5.13 4.00191C5.06 4.00191 4.99 4.00191 4.92 4.00191C4.58 4.0303 4.26 4.26681 4.23 4.56956C4.2 4.81554 4.23 5.07098 4.23 5.32642H19.78H19.77ZM1.41 10.6528H2.79V9.35669H1.41V10.6528ZM21.19 15.9887H22.57V14.6831H21.19V15.9887ZM5.67 2.64903H7.07C7.07 2.40305 7.08 2.17599 7.07 1.94893C7.05 1.59889 6.73 1.33399 6.37 1.33399C6.01 1.33399 5.69 1.60835 5.67 1.94893C5.66 2.17599 5.67 2.40305 5.67 2.64903ZM12.7 2.64903C12.7 2.39359 12.71 2.16653 12.7 1.93947C12.68 1.59889 12.38 1.33399 12.03 1.32452C11.69 1.31506 11.36 1.55158 11.32 1.87325C11.29 2.12869 11.32 2.38413 11.32 2.64903H12.71H12.7ZM18.33 2.64903C18.33 2.45035 18.33 2.2706 18.33 2.09084C18.33 2.03408 18.33 1.96786 18.33 1.91109C18.28 1.5705 17.97 1.32452 17.62 1.32452C17.28 1.32452 16.97 1.57996 16.94 1.91109C16.92 2.14761 16.94 2.39359 16.94 2.64903H18.34H18.33Z" fill="#7fff24"/>
</svg>
