<svg width="32" height="32" viewBox="0 0 32 32" fill="none" xmlns="http://www.w3.org/2000/svg">
<g clip-path="url(#clip0_317_254)">
<path d="M18.8093 0C22.1176 0 25.4403 0 28.7487 0C29.1479 0.0997773 29.5615 0.142539 29.918 0.299332C31.3012 0.912249 31.9715 2.0098 31.9715 3.50646C31.9715 6.49978 31.9715 9.47884 32 12.4722C32 13.9118 31.5009 15.1234 30.4742 16.1354C25.5116 21.0815 20.5633 26.0419 15.6007 31.0022C14.2745 32.3278 12.6203 32.3278 11.3084 31.0022C7.98574 27.6811 4.6631 24.3599 1.34046 21.0388C0.727273 20.4258 0.171123 19.7987 0 18.9149V18.1024C0.156863 17.4753 0.427807 16.9194 0.884135 16.4633C5.918 11.4459 10.9519 6.42851 15.9857 1.39688C16.5989 0.783964 17.3119 0.370601 18.1533 0.156793C18.3672 0.0997773 18.5954 0.0570156 18.8235 0L18.8093 0ZM14.7736 18.131C16.9554 18.131 19.1515 18.131 21.3333 18.131C21.4617 18.131 21.59 18.131 21.7041 18.131C22.1604 18.0882 22.5169 17.7318 22.5455 17.2757C22.574 16.8339 22.2888 16.4205 21.861 16.3207C21.7184 16.278 21.5472 16.278 21.3904 16.278C16.9697 16.278 12.5633 16.278 8.1426 16.278C8 16.278 7.84314 16.278 7.71479 16.3207C7.30125 16.4205 7.01604 16.7768 7.00178 17.2045C7.00178 17.6036 7.27273 18.0027 7.67201 18.1167C7.81462 18.1595 7.98574 18.1595 8.1426 18.1595C10.3529 18.1595 12.5633 18.1595 14.7736 18.1595V18.131ZM25.369 3.79154C23.8146 3.79154 22.5455 5.06013 22.5597 6.61381C22.5597 8.15323 23.8431 9.40757 25.369 9.42183C26.9234 9.42183 28.1925 8.15323 28.1925 6.59955C28.1925 5.03163 26.9376 3.79154 25.369 3.79154ZM11.9643 11.8735C11.9643 13.4414 13.205 14.6958 14.7736 14.6958C16.328 14.6958 17.5971 13.4272 17.5971 11.8735C17.5971 10.3341 16.328 9.07973 14.7879 9.06548C13.2335 9.06548 11.9643 10.3198 11.9643 11.8735ZM11.9643 22.5354C11.9643 24.1033 13.2335 25.3577 14.7879 25.3434C16.3422 25.3292 17.5829 24.0748 17.5829 22.5354C17.5829 20.9817 16.3137 19.7131 14.7594 19.7131C13.205 19.7131 11.9501 20.9817 11.9501 22.5354H11.9643Z" fill="url(#paint0_linear_317_254)"/>
<path d="M14.8021 12.8143C14.2745 12.8143 13.8752 12.4151 13.861 11.902C13.861 11.3746 14.2602 10.9327 14.7879 10.9327C15.3012 10.9327 15.7433 11.3746 15.7433 11.8878C15.7433 12.4009 15.3155 12.8143 14.8021 12.8143Z" fill="url(#paint1_linear_317_254)"/>
<path d="M13.861 22.5212C13.861 22.008 14.2602 21.5947 14.7879 21.5804C15.3012 21.5804 15.7433 22.008 15.7433 22.5212C15.7433 23.0343 15.3012 23.4762 14.7879 23.4619C14.2745 23.4619 13.861 23.0343 13.861 22.5212Z" fill="url(#paint2_linear_317_254)"/>
</g>
<defs>
<linearGradient id="paint0_linear_317_254" x1="0" y1="15.9982" x2="32" y2="15.9982" gradientUnits="userSpaceOnUse">
<stop stop-color="#CCFF33"/>
<stop offset="0.49" stop-color="#9AFF29"/>
<stop offset="1" stop-color="#68FF20"/>
</linearGradient>
<linearGradient id="paint1_linear_317_254" x1="13.861" y1="11.8735" x2="15.7433" y2="11.8735" gradientUnits="userSpaceOnUse">
<stop stop-color="#CCFF33"/>
<stop offset="0.49" stop-color="#9AFF29"/>
<stop offset="1" stop-color="#68FF20"/>
</linearGradient>
<linearGradient id="paint2_linear_317_254" x1="13.861" y1="22.5213" x2="15.7433" y2="22.5213" gradientUnits="userSpaceOnUse">
<stop stop-color="#CCFF33"/>
<stop offset="0.49" stop-color="#9AFF29"/>
<stop offset="1" stop-color="#68FF20"/>
</linearGradient>
<clipPath id="clip0_317_254">
<rect width="32" height="32" fill="white"/>
</clipPath>
</defs>
</svg>
