<?xml version="1.0" encoding="UTF-8"?>
<svg id="Camada_1" data-name="Camada 1" xmlns="http://www.w3.org/2000/svg" viewBox="0 0 22.44 22.45">
  <defs>
    <style>
      .cls-1 {
        stroke-width: 0px;
      }
    </style>
  </defs>
  <path class="cls-1" d="m13.19,0c2.32,0,4.65,0,6.97,0,.28.07.57.1.82.21.97.43,1.44,1.2,1.44,2.25,0,2.1,0,4.19.02,6.29,0,1.01-.35,1.86-1.07,2.57-3.48,3.47-6.95,6.95-10.43,10.43-.93.93-2.09.93-3.01,0-2.33-2.33-4.66-4.66-6.99-6.99-.43-.43-.82-.87-.94-1.49v-.57c.11-.44.3-.83.62-1.15C4.15,8.03,7.68,4.51,11.21.98c.43-.43.93-.72,1.52-.87.15-.04.31-.07.47-.11Zm-2.83,12.72c1.53,0,3.07,0,4.6,0,.09,0,.18,0,.26,0,.32-.03.57-.28.59-.6.02-.31-.18-.6-.48-.67-.1-.03-.22-.03-.33-.03-3.1,0-6.19,0-9.29,0-.1,0-.21,0-.3.03-.29.07-.49.32-.5.62,0,.28.19.56.47.64.1.03.22.03.33.03,1.55,0,3.1,0,4.65,0Zm7.43-10.06c-1.09,0-1.98.89-1.97,1.98,0,1.08.9,1.96,1.97,1.97,1.09,0,1.98-.89,1.98-1.98,0-1.1-.88-1.97-1.98-1.97Zm-9.4,5.67c0,1.1.87,1.98,1.97,1.98,1.09,0,1.98-.89,1.98-1.98,0-1.08-.89-1.96-1.97-1.97-1.09,0-1.98.88-1.98,1.97Zm0,7.48c0,1.1.89,1.98,1.98,1.97,1.09-.01,1.96-.89,1.96-1.97,0-1.09-.89-1.98-1.98-1.98-1.09,0-1.97.89-1.97,1.98Z"/>
  <path class="cls-1" d="m10.38,8.99c-.37,0-.65-.28-.66-.64,0-.37.28-.68.65-.68.36,0,.67.31.67.67,0,.36-.3.65-.66.65Z"/>
  <path class="cls-1" d="m9.72,15.8c0-.36.28-.65.65-.66.36,0,.67.3.67.66,0,.36-.31.67-.67.66-.36,0-.65-.3-.65-.66Z"/>
</svg>