<?xml version="1.0" encoding="UTF-8"?>
<svg id="Camada_1" data-name="Camada 1" xmlns="http://www.w3.org/2000/svg" viewBox="0 0 24 20.92">
  <defs>
    <style>
      .cls-1 {
        stroke-width: 0px;
      }
    </style>
  </defs>
  <path class="cls-1" d="m13.69,0c.76,0,1.52,0,2.28,0,.61,0,1.1.24,1.45.74,2.13,3.07,4.27,6.13,6.4,9.2.27.39.25.72-.04,1.14-1.56,2.24-3.11,4.48-4.67,6.71-.54.77-1.08,1.54-1.61,2.32-.38.56-.89.81-1.56.81-1.51,0-3.02,0-4.52,0-.37,0-.69-.08-.87-.43-.19-.35-.08-.66.13-.96,1.94-2.81,3.87-5.63,5.81-8.45.36-.52.35-.77,0-1.28-1.93-2.8-3.86-5.59-5.8-8.39-.16-.23-.3-.47-.22-.77.09-.39.4-.63.82-.63.81,0,1.61,0,2.42,0Z"/>
  <path class="cls-1" d="m3.28,0c.76,0,1.52,0,2.28,0,.6,0,1.08.23,1.42.72,2.13,3.06,4.26,6.11,6.38,9.17.25.37.25.67,0,1.04-2.13,3.07-4.26,6.13-6.4,9.2-.34.49-.82.74-1.42.73-1.54,0-3.07,0-4.61,0-.36,0-.65-.11-.81-.44-.17-.32-.09-.62.11-.92,1.94-2.81,3.88-5.63,5.82-8.44.36-.52.36-.76,0-1.28C4.12,7,2.18,4.21.25,1.41.09,1.19-.04.96.01.67.09.27.41,0,.84,0c.82,0,1.63,0,2.45,0Z"/>
</svg>