<svg width="32" height="28" viewBox="0 0 32 28" fill="none" xmlns="http://www.w3.org/2000/svg">
<g clip-path="url(#clip0_319_289)">
<path d="M18.2533 0C19.2667 0 20.28 0 21.2933 0C22.1067 0 22.76 0.321224 23.2267 0.99044C26.0667 5.09943 28.92 9.19503 31.76 13.304C32.12 13.826 32.0933 14.2677 31.7067 14.8298C29.6267 17.8279 27.56 20.826 25.48 23.8107C24.76 24.8413 24.04 25.8719 23.3333 26.9159C22.8267 27.6654 22.1467 28 21.2533 28C19.24 28 17.2267 28 15.2267 28C14.7333 28 14.3067 27.8929 14.0667 27.4245C13.8133 26.956 13.96 26.5411 14.24 26.1396C16.8267 22.3786 19.4 18.6042 21.9867 14.8298C22.4667 14.1338 22.4533 13.7992 21.9867 13.1166C19.4133 9.36903 16.84 5.6348 14.2533 1.88719C14.04 1.57935 13.8533 1.25813 13.96 0.856597C14.08 0.334608 14.4933 0.0133843 15.0533 0.0133843C16.1333 0.0133843 17.2 0.0133843 18.28 0.0133843L18.2533 0Z" fill="url(#paint0_linear_319_289)"/>
<path d="M4.37338 0C5.38671 0 6.40005 0 7.41338 0C8.21338 0 8.85338 0.307839 9.30671 0.963671C12.1467 5.05927 14.9867 9.14149 17.8134 13.2371C18.1467 13.7323 18.1467 14.1338 17.8134 14.6291C14.9734 18.738 12.1334 22.8337 9.28005 26.9426C8.82671 27.5985 8.18671 27.9331 7.38671 27.9197C5.33338 27.9197 3.29338 27.9197 1.24005 27.9197C0.760046 27.9197 0.373379 27.7725 0.160046 27.3308C-0.0666212 26.9025 0.0400455 26.501 0.306712 26.0994C2.89338 22.3384 5.48005 18.5641 8.06671 14.8031C8.54671 14.1071 8.54671 13.7858 8.06671 13.0899C5.49338 9.36902 2.90671 5.6348 0.333379 1.88719C0.120046 1.59273 -0.0532878 1.28489 0.0133788 0.896749C0.120046 0.361377 0.546712 0 1.12005 0C2.21338 0 3.29338 0 4.38671 0H4.37338Z" fill="url(#paint1_linear_319_289)"/>
</g>
<defs>
<linearGradient id="paint0_linear_319_289" x1="13.9291" y1="14" x2="32.0141" y2="14" gradientUnits="userSpaceOnUse">
<stop stop-color="#CCFF33"/>
<stop offset="0.49" stop-color="#9AFF29"/>
<stop offset="1" stop-color="#68FF20"/>
</linearGradient>
<linearGradient id="paint1_linear_319_289" x1="-0.00109863" y1="13.96" x2="18.0634" y2="13.96" gradientUnits="userSpaceOnUse">
<stop stop-color="#CCFF33"/>
<stop offset="0.49" stop-color="#9AFF29"/>
<stop offset="1" stop-color="#68FF20"/>
</linearGradient>
<clipPath id="clip0_319_289">
<rect width="32" height="28" fill="white"/>
</clipPath>
</defs>
</svg>
