<svg width="32" height="32" viewBox="0 0 32 32" fill="none" xmlns="http://www.w3.org/2000/svg">
<path d="M16 0C7.20029 0 0 7.20029 0 16C0 24.7997 7.20029 32 16 32C24.7997 32 32 24.7997 32 16C32 7.20029 24.7997 0 16 0ZM21.6796 22.0809L15.1513 18.0641C14.9163 17.9237 14.7219 17.7245 14.5872 17.4861C14.4525 17.2478 14.3822 16.9784 14.3833 16.7047V9.19909C14.3917 8.88049 14.5232 8.57753 14.7502 8.35379C14.9771 8.13004 15.2819 8.0029 15.6006 7.99904C15.9181 8.00155 16.2219 8.12879 16.4464 8.3533C16.6709 8.57781 16.7982 8.88159 16.8007 9.19909V16.3187L22.9449 20.0149C23.5209 20.3682 23.7129 21.1189 23.3597 21.6969C23.186 21.9685 22.9125 22.1609 22.5982 22.2328C22.2839 22.3046 21.954 22.25 21.6796 22.0809V22.0809Z" fill="black"/>
</svg>
