<svg width="61" height="26" viewBox="0 0 61 26" fill="none" xmlns="http://www.w3.org/2000/svg">
<path d="M24.92 6.64C24.92 8.21333 24.48 9.66667 23.6 11C22.72 12.3333 21.2667 13.3467 19.24 14.04L23.88 26H14.96L11.44 14.92H11L8.64 26H0L5.4 0.599998H15.92C17.1467 0.599998 18.3067 0.679999 19.4 0.84C20.4933 0.973333 21.44 1.26667 22.24 1.72C23.0667 2.14667 23.72 2.76 24.2 3.56C24.68 4.33333 24.92 5.36 24.92 6.64ZM13.4 12.36C14.0933 12.36 14.68 12.1333 15.16 11.68C15.6667 11.2 16.0667 10.6267 16.36 9.96C16.68 9.29333 16.9067 8.58667 17.04 7.84C17.1733 7.06667 17.24 6.4 17.24 5.84C17.24 5.14667 17.12 4.56 16.88 4.08C16.64 3.57333 16.12 3.32 15.32 3.32H13.52L11.52 12.36H13.4ZM54.6725 26H45.7925L49.4725 8.72L39.9925 26H34.5525L32.7525 8.12L28.9125 26H25.3125L30.7125 0.599998H40.9125L42.1525 14.92L49.8325 0.599998H60.1125L54.6725 26Z" fill="#F7F7F7"/>
</svg>
