<svg width="233" height="34" viewBox="0 0 233 34" fill="none" xmlns="http://www.w3.org/2000/svg">
<path d="M24.92 7.64C24.92 9.21333 24.48 10.6667 23.6 12C22.72 13.3333 21.2667 14.3467 19.24 15.04L23.88 27H14.96L11.44 15.92H11L8.64 27H0L5.4 1.6H15.92C17.1467 1.6 18.3067 1.68 19.4 1.84C20.4933 1.97333 21.44 2.26667 22.24 2.72C23.0667 3.14667 23.72 3.76 24.2 4.56C24.68 5.33333 24.92 6.36 24.92 7.64ZM13.4 13.36C14.0933 13.36 14.68 13.1333 15.16 12.68C15.6667 12.2 16.0667 11.6267 16.36 10.96C16.68 10.2933 16.9067 9.58667 17.04 8.84C17.1733 8.06667 17.24 7.4 17.24 6.84C17.24 6.14667 17.12 5.56 16.88 5.08C16.64 4.57333 16.12 4.32 15.32 4.32H13.52L11.52 13.36H13.4ZM37.2094 9.36C40.3827 9.36 42.6894 9.92 44.1294 11.04C45.6494 12.2133 46.4094 14.16 46.4094 16.88C46.4094 18.56 46.1294 20.08 45.5694 21.44C45.0094 22.7733 44.2227 23.88 43.2094 24.76C41.1827 26.4667 38.2494 27.32 34.4094 27.32C31.1294 27.32 28.7827 26.6933 27.3694 25.44C25.8494 24.1333 25.0894 22.1733 25.0894 19.56C25.0894 17.8267 25.436 16.2533 26.1294 14.84C26.8494 13.4267 27.876 12.2533 29.2094 11.32C31.156 10.0133 33.8227 9.36 37.2094 9.36ZM34.4894 24.6C35.156 24.6 35.7294 24.2267 36.2094 23.48C36.716 22.7333 37.116 21.8267 37.4094 20.76C37.7027 19.6667 37.916 18.5467 38.0494 17.4C38.2094 16.2267 38.2894 15.2133 38.2894 14.36C38.2894 13.6133 38.2094 13.0533 38.0494 12.68C37.916 12.28 37.6094 12.08 37.1294 12.08C36.4094 12.08 35.7827 12.4667 35.2494 13.24C34.7427 14.0133 34.3294 14.9333 34.0094 16C33.6894 17.0667 33.4494 18.16 33.2894 19.28C33.156 20.4 33.0894 21.3067 33.0894 22C33.0894 23.7333 33.556 24.6 34.4894 24.6ZM56.7978 9.8L57.9978 21.56L64.3178 9.8H68.5578L58.9178 27C57.9578 28.68 56.9845 29.9733 55.9978 30.88C55.0111 31.7867 53.9311 32.4533 52.7578 32.88C51.6111 33.3067 50.3311 33.5467 48.9178 33.6C47.5311 33.68 45.9445 33.72 44.1578 33.72L44.7578 30.96C45.6378 30.96 46.4511 30.9467 47.1978 30.92C47.9711 30.8933 48.5845 30.8133 49.0378 30.68C49.6511 30.52 50.0911 30.2267 50.3578 29.8C50.6245 29.4 50.7578 28.8 50.7578 28C50.7578 27.4667 50.7045 26.8533 50.5978 26.16C50.5178 25.4667 50.4245 24.7333 50.3178 23.96L48.3578 9.8H56.7978ZM69.9113 11.28C71.2713 10.6133 72.6579 10.1333 74.0713 9.84C75.5113 9.52 77.1113 9.36 78.8713 9.36C80.5779 9.36 81.9913 9.49333 83.1113 9.76C84.2313 10.0267 85.1246 10.4133 85.7913 10.92C86.4579 11.4267 86.9246 12.0267 87.1913 12.72C87.4579 13.4133 87.5912 14.2 87.5912 15.08C87.5912 15.5867 87.5513 16.1333 87.4713 16.72C87.4179 17.3067 87.3513 17.8 87.2713 18.2L85.3913 27H78.9513L78.2313 24.44H77.9913C77.1379 25.3733 76.1379 26.0933 74.9913 26.6C73.8713 27.08 72.7513 27.32 71.6313 27.32C70.9913 27.32 70.3646 27.2267 69.7513 27.04C69.1379 26.8533 68.5913 26.5733 68.1113 26.2C67.6313 25.8 67.2446 25.3067 66.9512 24.72C66.6579 24.1067 66.5112 23.3733 66.5112 22.52C66.5112 21.1333 66.8846 20.04 67.6313 19.24C68.4046 18.4133 69.4046 17.8 70.6313 17.4C71.8846 16.9733 73.2846 16.7067 74.8313 16.6C76.4046 16.4933 77.9779 16.44 79.5513 16.44C79.6046 16.1733 79.6713 15.8 79.7513 15.32C79.8313 14.8133 79.8713 14.3733 79.8713 14C79.8713 13.52 79.7379 13.08 79.4713 12.68C79.2313 12.2533 78.7113 12.04 77.9113 12.04C76.9779 12.04 76.2846 12.32 75.8313 12.88C75.4046 13.4133 75.1246 14.0667 74.9913 14.84H69.1513L69.9113 11.28ZM79.1113 18.32H78.3913C77.6179 18.32 76.9513 18.4267 76.3913 18.64C75.8579 18.8267 75.4179 19.08 75.0713 19.4C74.7513 19.72 74.5113 20.08 74.3513 20.48C74.1913 20.88 74.1113 21.28 74.1113 21.68C74.1113 22.32 74.2713 22.8 74.5913 23.12C74.9379 23.44 75.3379 23.6 75.7913 23.6C76.3513 23.6 76.8979 23.4 77.4313 23C77.9913 22.6 78.3379 22.0667 78.4713 21.4L79.1113 18.32ZM96.8616 27H88.7016L94.3816 0.119998H102.582L96.8616 27ZM130.18 27H121.3L124.98 9.72L115.5 27H110.06L108.26 9.12L104.42 27H100.82L106.22 1.6H116.42L117.66 15.92L125.34 1.6H135.62L130.18 27ZM146.936 9.36C150.109 9.36 152.416 9.92 153.856 11.04C155.376 12.2133 156.136 14.16 156.136 16.88C156.136 18.56 155.856 20.08 155.296 21.44C154.736 22.7733 153.949 23.88 152.936 24.76C150.909 26.4667 147.976 27.32 144.136 27.32C140.856 27.32 138.509 26.6933 137.096 25.44C135.576 24.1333 134.816 22.1733 134.816 19.56C134.816 17.8267 135.163 16.2533 135.856 14.84C136.576 13.4267 137.603 12.2533 138.936 11.32C140.883 10.0133 143.549 9.36 146.936 9.36ZM144.216 24.6C144.883 24.6 145.456 24.2267 145.936 23.48C146.443 22.7333 146.843 21.8267 147.136 20.76C147.429 19.6667 147.643 18.5467 147.776 17.4C147.936 16.2267 148.016 15.2133 148.016 14.36C148.016 13.6133 147.936 13.0533 147.776 12.68C147.643 12.28 147.336 12.08 146.856 12.08C146.136 12.08 145.509 12.4667 144.976 13.24C144.469 14.0133 144.056 14.9333 143.736 16C143.416 17.0667 143.176 18.16 143.016 19.28C142.883 20.4 142.816 21.3067 142.816 22C142.816 23.7333 143.283 24.6 144.216 24.6ZM158.442 9.8C159.428 9.58667 160.295 9.34667 161.042 9.08C161.788 8.81333 162.468 8.48 163.082 8.08C163.722 7.68 164.322 7.18667 164.882 6.6C165.468 6.01333 166.095 5.29333 166.762 4.44H170.882L169.722 9.8H172.842L172.322 12.48H169.162L167.522 20.28C167.388 20.8933 167.282 21.44 167.202 21.92C167.122 22.4 167.082 22.7733 167.082 23.04C167.082 23.5733 167.268 23.9067 167.642 24.04C168.042 24.1733 168.775 24.24 169.842 24.24L169.242 27C169.055 27.0533 168.762 27.0933 168.362 27.12C167.988 27.1467 167.562 27.1733 167.082 27.2C166.628 27.2533 166.148 27.28 165.642 27.28C165.162 27.3067 164.735 27.32 164.362 27.32C163.695 27.32 163.042 27.2667 162.402 27.16C161.762 27.08 161.188 26.9067 160.682 26.64C160.175 26.3467 159.762 25.9333 159.442 25.4C159.148 24.8667 159.002 24.1467 159.002 23.24C159.002 22.92 159.015 22.52 159.042 22.04C159.095 21.56 159.188 21.0267 159.322 20.44L161.002 12.48H157.882L158.442 9.8ZM184.514 9.36C187.687 9.36 189.994 9.92 191.434 11.04C192.954 12.2133 193.714 14.16 193.714 16.88C193.714 18.56 193.434 20.08 192.874 21.44C192.314 22.7733 191.527 23.88 190.514 24.76C188.487 26.4667 185.554 27.32 181.714 27.32C178.434 27.32 176.087 26.6933 174.674 25.44C173.154 24.1333 172.394 22.1733 172.394 19.56C172.394 17.8267 172.741 16.2533 173.434 14.84C174.154 13.4267 175.181 12.2533 176.514 11.32C178.461 10.0133 181.127 9.36 184.514 9.36ZM181.794 24.6C182.461 24.6 183.034 24.2267 183.514 23.48C184.021 22.7333 184.421 21.8267 184.714 20.76C185.007 19.6667 185.221 18.5467 185.354 17.4C185.514 16.2267 185.594 15.2133 185.594 14.36C185.594 13.6133 185.514 13.0533 185.354 12.68C185.221 12.28 184.914 12.08 184.434 12.08C183.714 12.08 183.087 12.4667 182.554 13.24C182.047 14.0133 181.634 14.9333 181.314 16C180.994 17.0667 180.754 18.16 180.594 19.28C180.461 20.4 180.394 21.3067 180.394 22C180.394 23.7333 180.861 24.6 181.794 24.6ZM198.162 9.8H204.682L205.282 12.8H205.562C206.175 11.84 206.962 11.0267 207.922 10.36C208.882 9.69333 210.149 9.36 211.722 9.36C211.829 9.36 211.989 9.37333 212.202 9.4C212.442 9.4 212.695 9.44 212.962 9.52C213.255 9.57333 213.549 9.66667 213.842 9.8C214.162 9.90667 214.469 10.0667 214.762 10.28L213.002 18.52H208.642C208.589 16.8667 208.442 15.72 208.202 15.08C207.962 14.4133 207.575 14.08 207.042 14.08C206.775 14.08 206.482 14.1467 206.162 14.28C205.869 14.3867 205.562 14.64 205.242 15.04L202.682 27H194.522L198.162 9.8ZM226.538 14.84C226.564 14.7067 226.591 14.5733 226.618 14.44C226.644 14.3067 226.658 14.16 226.658 14C226.658 13.52 226.564 13.08 226.378 12.68C226.218 12.2533 225.884 12.04 225.378 12.04C224.924 12.04 224.471 12.24 224.018 12.64C223.564 13.0133 223.338 13.52 223.338 14.16C223.338 14.5867 223.444 14.9333 223.658 15.2C223.898 15.44 224.204 15.64 224.578 15.8C224.951 15.96 225.364 16.0933 225.818 16.2C226.298 16.3067 226.764 16.4133 227.218 16.52C227.858 16.68 228.458 16.88 229.018 17.12C229.604 17.3333 230.124 17.6267 230.578 18C231.031 18.3733 231.391 18.84 231.658 19.4C231.924 19.9333 232.058 20.6 232.058 21.4C232.058 22.52 231.791 23.4667 231.258 24.24C230.751 24.9867 230.031 25.6 229.098 26.08C228.191 26.5333 227.111 26.8533 225.858 27.04C224.631 27.2267 223.311 27.32 221.898 27.32C219.738 27.32 217.951 27.16 216.538 26.84C215.124 26.52 214.138 26.2133 213.578 25.92L214.418 21.92H219.818C219.791 22.0533 219.778 22.1867 219.778 22.32C219.778 22.4267 219.778 22.5467 219.778 22.68C219.778 23.2933 219.911 23.7867 220.178 24.16C220.471 24.5067 220.964 24.68 221.658 24.68C222.431 24.68 222.978 24.4667 223.298 24.04C223.644 23.5867 223.818 23.1733 223.818 22.8C223.818 22.4267 223.671 22.1067 223.378 21.84C223.111 21.5467 222.764 21.3067 222.338 21.12C221.911 20.9067 221.431 20.7333 220.898 20.6C220.391 20.44 219.898 20.2933 219.418 20.16C219.071 20.08 218.671 19.9467 218.218 19.76C217.791 19.5733 217.378 19.3067 216.978 18.96C216.578 18.6133 216.244 18.1733 215.978 17.64C215.711 17.08 215.578 16.3867 215.578 15.56C215.578 14.3867 215.858 13.4133 216.418 12.64C217.004 11.84 217.751 11.2 218.658 10.72C219.591 10.24 220.631 9.89333 221.778 9.68C222.951 9.46667 224.124 9.36 225.298 9.36C226.764 9.36 228.151 9.49333 229.458 9.76C230.764 10.0267 231.831 10.3733 232.658 10.8L231.738 14.84H226.538Z" fill="white"/>
</svg>
