<svg width="32" height="32" viewBox="0 0 32 32" fill="none" xmlns="http://www.w3.org/2000/svg">
<path d="M28.8641 21.8228L24.3388 21.3055C23.807 21.2432 23.268 21.3021 22.7623 21.478C22.2565 21.6539 21.7972 21.942 21.4188 22.3208L18.1397 25.5978C13.0837 23.026 8.97396 18.9163 6.40218 13.8602L9.69622 10.564C10.4636 9.79877 10.8377 8.72997 10.7116 7.64193L10.1964 3.15297C10.0952 2.28384 9.67787 1.48228 9.02395 0.900883C8.37003 0.319486 7.52514 -0.00115266 6.65014 3.11372e-06H3.56985C1.55623 3.11372e-06 -0.117507 1.67588 0.00647387 3.68737C0.951294 18.9007 13.1164 31.0487 28.3126 31.9935C30.3241 32.1175 32 30.4437 32 28.4301V25.3498C32.0044 24.4786 31.6866 23.6366 31.1078 22.9855C30.5289 22.3344 29.7298 21.9203 28.8641 21.8228Z" fill="url(#paint0_linear_321_435)"/>
<defs>
<linearGradient id="paint0_linear_321_435" x1="2.96402e-05" y1="29.4401" x2="32" y2="2.56002" gradientUnits="userSpaceOnUse">
<stop stop-color="#CCFF33"/>
<stop offset="0.49" stop-color="#9AFF29"/>
<stop offset="1" stop-color="#68FF20"/>
</linearGradient>
</defs>
</svg>
