<svg width="20" height="20" viewBox="0 0 20 20" fill="none" xmlns="http://www.w3.org/2000/svg">
<path d="M18.0401 13.6392L15.2117 13.3159C14.8794 13.277 14.5425 13.3138 14.2264 13.4238C13.9103 13.5337 13.6233 13.7138 13.3868 13.9505L11.3373 15.9986C8.17729 14.3912 5.60873 11.8227 4.00136 8.66263L6.06014 6.60252C6.53976 6.12423 6.77356 5.45623 6.69474 4.77621L6.37276 1.9706C6.30948 1.4274 6.04867 0.926424 5.63997 0.563052C5.23127 0.199679 4.70322 -0.000720414 4.15634 1.94607e-06H2.23116C0.972646 1.94607e-06 -0.0734419 1.04743 0.00404617 2.3046C0.594559 11.8129 8.19774 19.4054 17.6954 19.9959C18.9525 20.0734 20 19.0273 20 17.7688V15.8436C20.0027 15.2991 19.8041 14.7729 19.4423 14.3659C19.0806 13.959 18.5811 13.7002 18.0401 13.6392Z" fill="url(#paint0_linear_321_435)"/>
<defs>
<linearGradient id="paint0_linear_321_435" x1="7.42486e-06" y1="1.70436" x2="20" y2="18.2956" gradientUnits="userSpaceOnUse">
<stop stop-color="#CCFF33"/>
<stop offset="0.49" stop-color="#9AFF29"/>
<stop offset="1" stop-color="#68FF20"/>
</linearGradient>
</defs>
</svg>
