<svg width="25" height="25" viewBox="0 0 25 25" fill="none" xmlns="http://www.w3.org/2000/svg">
<path d="M25 11.7659V13.2341C24.9792 13.4111 24.9583 13.5881 24.9375 13.7651C24.6354 16.4515 23.6146 18.8255 21.8021 20.8351C19.875 22.9696 17.4896 24.3024 14.6562 24.8022C14.1875 24.8855 13.7083 24.9375 13.2396 25H11.7708C11.7083 24.9896 11.6458 24.9688 11.5833 24.9584C9.625 24.823 7.80208 24.2607 6.125 23.2403C2.88542 21.2411 0.895833 18.3882 0.197917 14.6397C0.104167 14.1712 0.0625 13.7026 0 13.2237C0 12.7343 0 12.2449 0 11.7555C0.0208333 11.5785 0.0416667 11.4015 0.0625 11.2245C0.364583 8.53811 1.38542 6.1641 3.19792 4.15452C5.125 2.0304 7.51042 0.697626 10.3437 0.197834C10.8125 0.114536 11.2917 0.062474 11.7604 0C12.25 0 12.7396 0 13.2292 0C13.2917 0.0104123 13.3542 0.031237 13.4167 0.0416493C15.375 0.17701 17.1979 0.739275 18.875 1.75968C22.1146 3.74844 24.1042 6.60142 24.8021 10.3499C24.8854 10.8184 24.9375 11.2974 25 11.7659ZM12.4896 2.08247C6.73958 2.08247 2.0625 6.77843 2.08333 12.5052C2.10417 18.2528 6.75 22.8967 12.4896 22.8967C18.2292 22.8967 22.9062 18.232 22.9062 12.4844C22.9062 6.74719 18.2292 2.07205 12.4896 2.08247Z" fill="url(#paint0_linear_324_476)"/>
<path d="M11.4627 13.5507H8.33507C8.33507 13.6547 8.33507 13.7483 8.33507 13.842C8.33507 15.0903 8.33507 16.3283 8.33507 17.5766C8.33507 18.0551 8.16827 18.44 7.70955 18.6481C7.06318 18.9498 6.32298 18.5129 6.25 17.7951C6.25 17.7534 6.25 17.7118 6.25 17.6702C6.25 14.2269 6.25 10.7835 6.25 7.32977C6.25 6.79923 6.55234 6.41432 7.04233 6.28949C7.61572 6.14385 8.20997 6.51835 8.30379 7.09051C8.32465 7.22574 8.33507 7.36098 8.33507 7.50662C8.33507 8.71335 8.33507 9.93049 8.33507 11.1372V11.4389H11.4627C11.4627 11.3349 11.4627 11.2413 11.4627 11.1476C11.4627 9.88888 11.4627 8.63013 11.4627 7.37138C11.4627 6.84084 11.7233 6.45593 12.1612 6.31029C12.8492 6.07103 13.5269 6.57036 13.5373 7.34018C13.5373 8.60933 13.5373 9.87848 13.5373 11.1476C13.5373 11.2413 13.5373 11.3349 13.5373 11.4493H16.6649C16.6649 11.3453 16.6649 11.2517 16.6649 11.158C16.6649 9.90968 16.6649 8.67174 16.6649 7.4234C16.6649 6.94487 16.8317 6.55996 17.2905 6.3519C17.9368 6.05022 18.677 6.48714 18.75 7.20494C18.75 7.24655 18.75 7.28816 18.75 7.32977C18.75 10.7731 18.75 14.2165 18.75 17.6702C18.75 18.2008 18.4477 18.5857 17.9577 18.7105C17.3843 18.8562 16.79 18.4817 16.6962 17.9095C16.6754 17.7743 16.6649 17.639 16.6649 17.4934C16.6649 16.2866 16.6649 15.0695 16.6649 13.8628V13.5611H13.5373C13.5373 13.6651 13.5373 13.7587 13.5373 13.8524C13.5373 15.1111 13.5373 16.3699 13.5373 17.6286C13.5373 18.1592 13.2767 18.5441 12.8388 18.6897C12.1508 18.929 11.4731 18.4296 11.4627 17.6598C11.4627 16.3907 11.4627 15.1215 11.4627 13.8524C11.4627 13.7587 11.4627 13.6651 11.4627 13.5507Z" fill="url(#paint1_linear_324_476)"/>
<defs>
<linearGradient id="paint0_linear_324_476" x1="2.69919e-05" y1="23.1349" x2="25" y2="1.86508" gradientUnits="userSpaceOnUse">
<stop stop-color="#CCFF33"/>
<stop offset="0.49" stop-color="#9AFF29"/>
<stop offset="1" stop-color="#68FF20"/>
</linearGradient>
<linearGradient id="paint1_linear_324_476" x1="6.25001" y1="17.8175" x2="18.75" y2="7.18254" gradientUnits="userSpaceOnUse">
<stop stop-color="#CCFF33"/>
<stop offset="0.49" stop-color="#9AFF29"/>
<stop offset="1" stop-color="#68FF20"/>
</linearGradient>
</defs>
</svg>
