<?xml version="1.0" encoding="UTF-8"?>
<svg id="Camada_1" data-name="Camada 1" xmlns="http://www.w3.org/2000/svg" viewBox="0 0 24 24">
  <defs>
    <style>
      .cls-1 {
        stroke-width: 0px;
      }
    </style>
  </defs>
  <path class="cls-1" d="m24,11.3v1.41c-.02.17-.04.34-.06.51-.29,2.58-1.27,4.86-3.01,6.79-1.85,2.05-4.14,3.33-6.86,3.81-.45.08-.91.13-1.36.19h-1.41c-.06-.01-.12-.03-.18-.04-1.88-.13-3.63-.67-5.24-1.65C2.77,20.4.86,17.66.19,14.06.1,13.61.06,13.16,0,12.7c0-.47,0-.94,0-1.41.02-.17.04-.34.06-.51.29-2.58,1.27-4.86,3.01-6.79C4.92,1.95,7.21.67,9.93.19c.45-.08.91-.13,1.36-.19.47,0,.94,0,1.41,0,.06.01.12.03.18.04,1.88.13,3.63.67,5.24,1.65,3.11,1.91,5.02,4.65,5.69,8.25.08.45.13.91.19,1.36ZM11.99,2c-5.52,0-10.01,4.51-9.99,10.01.02,5.52,4.48,9.98,9.99,9.98,5.51,0,10-4.48,10-10,0-5.51-4.49-10-10-9.99Z"/>
  <path class="cls-1" d="m11,13.01h-3c0,.1,0,.19,0,.28,0,1.2,0,2.39,0,3.59,0,.46-.16.83-.6,1.03-.62.29-1.33-.13-1.4-.82,0-.04,0-.08,0-.12,0-3.31,0-6.62,0-9.94,0-.51.29-.88.76-1,.55-.14,1.12.22,1.21.77.02.13.03.26.03.4,0,1.16,0,2.33,0,3.49v.29h3c0-.1,0-.19,0-.28,0-1.21,0-2.42,0-3.63,0-.51.25-.88.67-1.02.66-.23,1.31.25,1.32.99,0,1.22,0,2.44,0,3.66,0,.09,0,.18,0,.29h3c0-.1,0-.19,0-.28,0-1.2,0-2.39,0-3.59,0-.46.16-.83.6-1.03.62-.29,1.33.13,1.4.82,0,.04,0,.08,0,.12,0,3.31,0,6.62,0,9.94,0,.51-.29.88-.76,1-.55.14-1.12-.22-1.21-.77-.02-.13-.03-.26-.03-.4,0-1.16,0-2.33,0-3.49v-.29h-3c0,.1,0,.19,0,.28,0,1.21,0,2.42,0,3.63,0,.51-.25.88-.67,1.02-.66.23-1.31-.25-1.32-.99,0-1.22,0-2.44,0-3.66,0-.09,0-.18,0-.29Z"/>
</svg>