<svg width="25" height="21" viewBox="0 0 25 21" fill="none" xmlns="http://www.w3.org/2000/svg">
<g clip-path="url(#clip0_550_209)">
<path d="M21.8268 7.63247C21.7035 7.81731 21.6304 8.0319 21.6151 8.25454C21.5997 8.47719 21.6425 8.7 21.7393 8.90047C22.0493 9.63464 22.268 10.4056 22.3893 11.1956C22.7111 13.2372 22.4101 15.3299 21.5268 17.1932C21.4195 17.3976 21.2591 17.5683 21.063 17.6867C20.8668 17.8052 20.6425 17.8669 20.4142 17.8652H4.60128C4.37174 17.8657 4.14649 17.8021 3.95025 17.6813C3.75401 17.5605 3.59434 17.3873 3.48875 17.1805C2.68857 15.5339 2.34389 13.698 2.49145 11.8683C2.639 10.0387 3.27327 8.28391 4.32662 6.79114C5.37998 5.29838 6.81294 4.12354 8.47274 3.39188C10.1325 2.66022 11.957 2.39917 13.7515 2.63654C14.6595 2.7448 15.5477 2.9839 16.3891 3.34662C16.5867 3.44473 16.8064 3.48819 17.0259 3.4726C17.2454 3.45702 17.4569 3.38294 17.6391 3.25786C17.829 3.13099 17.9811 2.954 18.0792 2.74594C18.1773 2.53788 18.2175 2.30663 18.1957 2.07708C18.1738 1.84753 18.0907 1.62838 17.9552 1.4432C17.8197 1.25803 17.6369 1.11385 17.4266 1.02618C15.0118 -0.0241578 12.3321 -0.275945 9.76818 0.306588C7.20425 0.889121 4.88646 2.27635 3.14406 4.27123C1.40165 6.2661 0.32322 8.76718 0.0619617 11.4192C-0.199297 14.0712 0.369899 16.7393 1.6887 19.0445C1.90684 19.4278 2.22007 19.7465 2.59726 19.9689C2.97445 20.1914 3.40246 20.3098 3.83876 20.3125H21.1517C21.5923 20.3143 22.0255 20.1979 22.4074 19.9752C22.7894 19.7526 23.1065 19.4315 23.3268 19.0445C24.2923 17.3472 24.8569 15.446 24.9761 13.4901C25.0954 11.5343 24.7662 9.57702 24.0143 7.77195C23.9191 7.56623 23.7711 7.39025 23.5858 7.26243C23.4006 7.13461 23.1849 7.05966 22.9612 7.0454C22.7376 7.03114 22.5144 7.07811 22.3148 7.18139C22.1152 7.28467 21.9466 7.44046 21.8268 7.63247Z" fill="#7fff24"/>
<path d="M10.913 10.433C10.4285 10.9175 10.1563 11.5747 10.1562 12.26C10.1562 12.5993 10.2231 12.9353 10.3529 13.2487C10.4828 13.5622 10.6731 13.8471 10.913 14.087C11.1529 14.3269 11.4378 14.5172 11.7512 14.6471C12.0647 14.7769 12.4007 14.8438 12.74 14.8438C13.4253 14.8438 14.0825 14.5715 14.567 14.087L21.875 3.125L10.913 10.433Z" fill="#7fff24"/>
</g>
<defs>
<clipPath id="clip0_550_209">
<rect width="25" height="21" fill="white"/>
</clipPath>
</defs>
</svg>
