<svg width="32" height="26" viewBox="0 0 32 26" fill="none" xmlns="http://www.w3.org/2000/svg">
<path d="M27.9383 9.76956C27.7804 10.0062 27.6869 10.2808 27.6673 10.5658C27.6476 10.8508 27.7025 11.136 27.8262 11.3926C28.2231 12.3323 28.5031 13.3192 28.6583 14.3303C29.0702 16.9436 28.6849 19.6222 27.5542 22.0073C27.4169 22.2689 27.2116 22.4874 26.9606 22.639C26.7095 22.7907 26.4224 22.8697 26.1302 22.8675H5.88963C5.59582 22.8681 5.30751 22.7867 5.05632 22.6321C4.80513 22.4775 4.60075 22.2557 4.4656 21.9911C3.44137 19.8834 3.00018 17.5334 3.18905 15.1914C3.37792 12.8495 4.18978 10.6034 5.53808 8.69267C6.88637 6.78192 8.72056 5.27813 10.8451 4.34161C12.9697 3.40509 15.3049 3.07093 17.602 3.37478C18.7642 3.51335 19.901 3.8194 20.9781 4.28368C21.231 4.40926 21.5122 4.46488 21.7931 4.44493C22.0741 4.42498 22.3449 4.33017 22.5781 4.17007C22.8211 4.00767 23.0159 3.78112 23.1414 3.5148C23.2669 3.24849 23.3185 2.95249 23.2905 2.65866C23.2625 2.36484 23.1561 2.08432 22.9826 1.8473C22.8092 1.61028 22.5753 1.42573 22.3061 1.31351C19.2151 -0.0309225 15.7851 -0.353209 12.5033 0.392433C9.22144 1.13808 6.25467 2.91373 4.02439 5.46717C1.79411 8.02061 0.413721 11.222 0.0793109 14.6166C-0.2551 18.0112 0.473471 21.4263 2.16153 24.3769C2.44076 24.8675 2.84169 25.2755 3.32449 25.5602C3.80729 25.8449 4.35515 25.9966 4.91361 26H27.0742C27.6381 26.0022 28.1926 25.8533 28.6815 25.5683C29.1704 25.2833 29.5764 24.8723 29.8583 24.3769C31.0941 22.2044 31.8168 19.7709 31.9695 17.2674C32.1222 14.7639 31.7007 12.2586 30.7383 9.94809C30.6164 9.68477 30.427 9.45952 30.1899 9.29591C29.9527 9.13231 29.6766 9.03636 29.3904 9.01811C29.1042 8.99986 28.8184 9.05998 28.5629 9.19218C28.3074 9.32437 28.0917 9.52379 27.9383 9.76956Z" fill="black"/>
<path d="M13.9687 13.3542C13.3484 13.9744 13 14.8157 13 15.6928C13 16.1271 13.0855 16.5571 13.2517 16.9584C13.418 17.3596 13.6616 17.7242 13.9687 18.0313C14.2758 18.3384 14.6403 18.582 15.0416 18.7483C15.4428 18.9145 15.8729 19 16.3072 19C17.1843 19 18.0256 18.6516 18.6458 18.0313L28 4L13.9687 13.3542Z" fill="black"/>
</svg>
