<svg width="32" height="23" viewBox="0 0 32 23" fill="none" xmlns="http://www.w3.org/2000/svg">
<path d="M31.3307 3.52134C31.1499 2.84037 30.7934 2.21885 30.2968 1.71902C29.8003 1.21919 29.1811 0.85859 28.5013 0.67334C26.0067 -1.78814e-07 16 0 16 0C16 0 5.99333 -1.78814e-07 3.49733 0.67334C2.81788 0.85892 2.19906 1.21965 1.70277 1.71944C1.20648 2.21924 0.850122 2.84059 0.669333 3.52134C0 6.03334 0 11.2733 0 11.2733C0 11.2733 0 16.5133 0.669333 19.0253C0.850115 19.7063 1.20663 20.3278 1.70319 20.8276C2.19974 21.3274 2.8189 21.688 3.49867 21.8733C5.99333 22.5466 16 22.5466 16 22.5466C16 22.5466 26.0067 22.5466 28.5027 21.8733C29.1825 21.6882 29.8017 21.3276 30.2983 20.8278C30.7949 20.3279 31.1513 19.7063 31.332 19.0253C32 16.5133 32 11.2733 32 11.2733C32 11.2733 32 6.03334 31.3307 3.52134ZM12.7267 16.0306V6.51604L21.0907 11.2733L12.7267 16.0306Z" fill="#fff"/>
</svg>
