<?xml version="1.0" encoding="UTF-8"?>
<svg id="Camada_1" data-name="Camada 1" xmlns="http://www.w3.org/2000/svg" viewBox="0 0 300 68.27">
  <defs>
    <style>
      .cls-1 {
        fill: #9c9c9c;
        stroke-width: 0px;
      }
    </style>
  </defs>
  <path class="cls-1" d="m65.82.02C85.85.02,105.89.04,125.92,0c4.5,0,7.72,1.98,9.93,5.78.22.39.44.77.65,1.17.84,1.58,2.21,2.32,3.96,2.41.35.02.7.02,1.05.02,5.64,0,11.28,0,16.91,0,.29,0,.57,0,.86,0,1.91-.04,3.36-.81,4.27-2.54.72-1.38,1.53-2.71,2.67-3.82,2.02-1.96,4.4-2.98,7.22-2.99.57,0,1.15,0,1.72,0,39.78,0,79.57,0,119.35,0,.7,0,1.41.02,2.09.17,2.57.55,3.91,2.82,3.21,5.35-.06.21-.11.44-.22.63-1.03,1.75-2.02,3.54-3.14,5.24-.69,1.06-1.82,1.61-3.07,1.75-1.35.14-2.21.84-2.81,2-.57,1.1-1.21,2.16-1.8,3.26-.97,1.83-2.4,3.04-4.52,3.26-1.4.15-2.31.93-2.99,2.1-.67,1.15-1.33,2.32-2.11,3.41-1.49,2.09-3.51,3.47-5.98,4.2-14.74,4.32-29.48,8.64-44.22,12.97-.58.17-1.15.37-1.72.57-2.71.94-4.86,2.59-6.39,5.04-2.04,3.26-5.02,5.26-8.7,6.26-11.69,3.18-23.39,6.35-35.09,9.52-2.64.72-5.29,1.41-7.92,2.14-3.47.97-6.48.15-9.08-2.29-2.41-2.27-4.8-4.57-7.21-6.84-.53-.5-1.09-.98-1.67-1.42-.78-.58-1.61-.56-2.39.01-.46.34-.9.71-1.32,1.1-2.5,2.36-4.98,4.74-7.48,7.1-2.1,1.98-4.55,3.04-7.47,2.66-1.16-.15-2.3-.49-3.44-.79-13.54-3.66-27.07-7.35-40.62-11-3.87-1.04-7.12-2.98-9.27-6.41-1.79-2.87-4.37-4.54-7.54-5.46-7.82-2.28-15.63-4.58-23.44-6.87-7.08-2.08-14.15-4.18-21.24-6.22-2.76-.79-4.91-2.35-6.5-4.72-.46-.69-.86-1.41-1.3-2.12-.34-.54-.67-1.09-1.05-1.59-.52-.68-1.2-1.13-2.07-1.25-.25-.03-.5-.11-.75-.16-1.69-.34-2.96-1.28-3.83-2.75-.75-1.26-1.49-2.52-2.18-3.81-.59-1.09-1.42-1.71-2.69-1.87-1.5-.18-2.69-.97-3.49-2.25-.85-1.35-1.68-2.7-2.44-4.1-.33-.6-.57-1.3-.65-1.97C-.27,2.2,1.52.21,4.28.03c.48-.03.96-.02,1.43-.02,20.04,0,40.07,0,60.11,0h0Zm150.96,33.21V12.38c-1.05-.2-132.86-.16-133.56.03v20.82h133.56Zm-51.33-23.46c.49,0,.83,0,1.17,0,40.76,0,81.52,0,122.28,0,.83,0,1.66,0,2.48-.05.86-.05,1.75-.12,2.45-.68,1.39-1.14,2.21-2.69,2.87-4.32.31-.76-.18-1.37-1.02-1.48-.41-.05-.83-.04-1.24-.04-39.9,0-79.8,0-119.7,0-.6,0-1.21.01-1.81.04-1.59.07-2.95.68-4.13,1.75-1.44,1.31-2.22,3.05-3.35,4.77Zm-30.98,0c-.55-.93-.99-1.73-1.5-2.49-.46-.69-.95-1.36-1.5-1.97-1.19-1.3-2.69-2-4.47-2.07-.64-.02-1.27-.04-1.91-.04-39.84,0-79.68,0-119.52,0-.32,0-.64,0-.96,0-1.27.07-1.77.89-1.15,2.02.54,1,1.16,1.97,1.81,2.92.56.83,1.37,1.34,2.38,1.42,1.2.1,2.41.18,3.62.18,40.67,0,81.34,0,122.01,0,.35,0,.7,0,1.2,0ZM11.61,12.56c.77,1.45,1.41,2.73,2.11,3.97.62,1.12,1.58,1.85,2.85,2.04,1.03.16,2.09.28,3.13.25,2.35-.06,4.71-.22,7.06-.36,3.85-.22,7.69-.46,11.54-.68,3.81-.22,7.63-.43,11.44-.65,4.86-.28,9.73-.58,14.59-.87,4.96-.29,9.92-.56,14.88-.84.5-.03,1-.09,1.52-.13v-3.03c-23.03.1-45.99.2-69.12.29Zm207.68,2.66c.22.03.37.06.52.07,6.29.37,12.58.75,18.87,1.12,5.97.35,11.95.67,17.92,1.03,6.99.41,13.98.85,20.97,1.25,1.4.08,2.8.08,4.2.03,1.63-.06,3.03-.69,4.11-1.94,1.07-1.23,1.59-2.79,2.64-4.32-23.23.01-46.22-.22-69.24-.23v2.99Zm-83.01,48.9c.06.06.12.11.18.17.51-.42,1.05-.81,1.53-1.26,2.43-2.29,4.84-4.61,7.28-6.89.65-.6,1.35-1.17,2.1-1.64,1.76-1.09,3.57-1.07,5.31.03.75.47,1.45,1.04,2.09,1.65,2.37,2.22,4.71,4.47,7.07,6.7.41.39.87.74,1.33,1.08.15.12.36.16.74.33-1.18-1.73-1.84-3.44-2.42-5.19-2.48-7.42-4.96-14.83-7.44-22.25-.12-.36-.25-.71-.38-1.07h-7.29c-.12.33-.24.63-.34.93-2.36,7.08-4.71,14.18-7.1,21.25-.54,1.59-1.21,3.14-1.85,4.7-.21.51-.54.98-.81,1.47Zm-16.37-2.76c.04.08.08.15.12.23.45.13.89.26,1.34.38,2.58.7,5.14,1.43,7.73,2.09,2.33.59,3.87-.05,5.1-2.11.47-.78.84-1.64,1.14-2.51,2.64-7.6,5.26-15.2,7.88-22.81.09-.26.16-.54.25-.86h-6.21c-.19.3-.4.61-.6.93-4.31,6.87-8.64,13.74-12.94,20.62-.92,1.47-1.99,2.8-3.39,3.83-.12.09-.28.14-.42.21Zm60.23.12c-.26-.15-.38-.21-.48-.28-1.34-.96-2.36-2.21-3.23-3.6-3.24-5.18-6.49-10.35-9.74-15.53-1.32-2.1-2.64-4.2-3.94-6.27h-6.26c.12.39.2.69.3.99.61,1.81,1.23,3.61,1.85,5.41,2.03,5.86,4.05,11.72,6.11,17.57.28.8.65,1.59,1.1,2.32,1.18,1.89,2.74,2.5,4.9,2.01.22-.05.43-.1.65-.16,2.55-.7,5.09-1.39,7.64-2.09.29-.08.58-.2,1.09-.38ZM80.67,17.76c-19.86,1.23-39.65,2.45-59.63,3.68.72,1.23,1.34,2.29,1.96,3.36.65,1.11,1.66,1.6,2.89,1.8,1.63.26,3.24.05,4.85-.12,2.4-.26,4.8-.58,7.2-.84,3.86-.42,7.72-.81,11.58-1.23,4.43-.48,8.86-.97,13.28-1.44,5.03-.54,10.06-1.07,15.09-1.6.91-.1,1.82-.22,2.77-.33v-3.27Zm138.63,3.32c.39.05.7.1,1.01.13,2.03.22,4.05.43,6.08.64,3.35.36,6.71.73,10.06,1.09,3.77.4,7.53.8,11.3,1.21,3.26.35,6.52.71,9.77,1.07,3.83.42,7.65.85,11.48,1.25,1.74.18,3.48.43,5.23.11,1.15-.21,2.1-.69,2.72-1.74.63-1.07,1.27-2.12,1.91-3.18-.84-.33-58.5-3.83-59.56-3.71v3.13Zm-114.03,36.52c.14.04.28.09.42.13,2.52.69,5.03,1.39,7.55,2.05,2.41.64,4.55.11,6.31-1.69.58-.59,1.1-1.24,1.54-1.94,4.21-6.56,8.39-13.14,12.58-19.72.13-.2.22-.43.36-.7-.25-.03-.4-.06-.55-.06-1.91,0-3.82.02-5.73-.02-.59-.01-1,.16-1.41.59-4.86,5.09-9.73,10.17-14.6,15.24-2.01,2.08-3.91,4.28-6.38,5.87-.04.02-.04.11-.07.23Zm60.69-21.88c.24.41.37.65.52.89,4.12,6.47,8.24,12.94,12.37,19.4.34.54.71,1.06,1.11,1.55,1.83,2.21,4.15,2.94,6.92,2.2,1.26-.34,2.52-.69,3.77-1.03,1.36-.37,2.73-.75,4.23-1.15-.23-.2-.33-.31-.45-.39-1.47-.97-2.76-2.15-3.97-3.42-3.48-3.63-6.96-7.27-10.44-10.9-2.12-2.21-4.23-4.41-6.35-6.61-.26-.27-.49-.55-.95-.55-2.19.02-4.39,0-6.76,0Zm-75.95,17.71c.31.09.6.18.9.27,2.45.67,4.91,1.31,7.35,2.02,1.93.56,3.75.35,5.4-.74,1.19-.78,2.33-1.68,3.33-2.69,5.22-5.31,10.39-10.67,15.57-16.02.14-.14.23-.32.38-.55-.23-.03-.35-.06-.48-.06-2.16,0-4.33.01-6.49-.02-.6,0-1.09.15-1.58.51-5.45,3.97-10.91,7.94-16.39,11.87-2.55,1.84-5,3.83-7.87,5.2-.05.02-.07.1-.13.19Zm86.86-17.76c.38.42.58.65.79.88,1.37,1.42,2.75,2.83,4.13,4.24,3.59,3.69,7.19,7.39,10.79,11.08,1.18,1.21,2.41,2.36,3.89,3.2,1.66.94,3.39,1.2,5.24.65,1.31-.39,2.63-.73,3.95-1.09,1.43-.39,2.85-.79,4.39-1.22-.2-.15-.29-.24-.4-.29-1.63-.75-3.09-1.77-4.53-2.82-6.47-4.68-12.95-9.35-19.41-14.04-.6-.44-1.19-.63-1.93-.61-1.91.04-3.82.01-5.73.01-.31,0-.63,0-1.19,0Zm42.43-8.56c.3.07.57.15.85.19,1.35.22,2.7.42,4.05.63,8.79,1.42,17.57,2.86,26.37,4.26,2.98.47,5.98.48,8.91-.26,3.05-.76,6.06-1.69,9.08-2.56.06-.02.1-.12.19-.26-16.52-1.87-32.96-3.73-49.46-5.6v3.59Zm-138.63-3.6c-16.47,1.88-32.87,3.74-49.27,5.62-.02,0-.04.04-.05.07,0,.03,0,.06-.01.12.2.07.4.16.61.22,2.29.67,4.57,1.36,6.87,2,2.97.84,6,1.17,9.07.78,3.25-.42,6.49-.91,9.72-1.42,6.66-1.06,13.31-2.15,19.97-3.23,1.03-.17,2.06-.35,3.1-.53v-3.63Zm139.95,21.42c-3.51-.57-4.1-.72-7.44-2.31-4.51-2.15-8.99-4.35-13.48-6.54-.5-.24-.99-.38-1.55-.38-2.61.02-5.22,0-7.83.01-.24,0-.47.02-.89.05.32.26.48.4.65.52,5.91,4.21,11.81,8.44,17.74,12.62.98.69,2.07,1.25,3.14,1.79.94.48,1.96.72,3.04.74.77,0,1.44-.19,1.98-.76.52-.55,1.11-1.06,1.57-1.66,1.03-1.32,2.01-2.68,3.05-4.08Zm-110.12-9.17c-.3-.04-.45-.08-.59-.08-2.8,0-5.6-.02-8.41.01-.39,0-.81.16-1.17.34-4.43,2.15-8.85,4.34-13.29,6.49-2.38,1.16-4.82,2.16-7.5,2.38-.05,0-.09.06-.19.13.07.09.14.19.21.28.8,1.03,1.58,2.07,2.4,3.08.6.74,1.25,1.44,1.88,2.15.67.75,1.54.97,2.51.86.32-.03.63-.07.94-.15,1.8-.43,3.37-1.33,4.85-2.39,5.84-4.14,11.67-8.3,17.5-12.45.25-.18.48-.37.85-.66Zm-60.38-.91c.38.15.52.21.67.26,2.72.79,5.43,1.6,8.16,2.34.82.22,1.69.33,2.54.37,2.18.12,4.34-.14,6.43-.68,4.15-1.07,8.28-2.25,12.42-3.38.15-.04.28-.14.42-.2v-3.84c-10.2,1.71-20.31,3.4-30.63,5.13Zm169.15-1.24c.24.08.42.15.6.21,2.9.83,5.81,1.64,8.71,2.49,2.3.67,4.61,1.22,7,1.44,1.88.18,3.75.23,5.59-.3,2.66-.77,5.31-1.53,7.97-2.31.18-.05.34-.17.6-.3-10.23-1.71-20.31-3.41-30.47-5.11v3.89Zm-14.29,2.11c-.01.05-.02.1-.03.15.1.06.19.13.29.18,3.65,1.72,7.29,3.47,10.97,5.14,2.59,1.18,5.33,1.39,8.13.94,2.59-.41,5.05-1.28,7.55-2.01.09-.03.17-.1.36-.22-.98-.26-1.81-.45-2.63-.69-3.76-1.09-7.5-2.19-11.26-3.27-.48-.14-1-.21-1.5-.22-3.69-.02-7.39,0-11.08,0h-.81Zm-137.26,4.3c2.81.79,5.41,1.76,8.17,2.11,2.89.36,5.7.12,8.38-1.17,3.29-1.59,6.62-3.11,9.93-4.66.27-.13.53-.28.8-.42-.01-.05-.02-.11-.04-.16-.3,0-.61,0-.91,0-3.53,0-7.07-.01-10.6.01-.69,0-1.4.11-2.06.29-4.44,1.23-8.87,2.5-13.31,3.76-.08.02-.15.09-.37.24Z"/>
  <path class="cls-1" d="m162.77,29.03h-2.67c-.22-2.39-.44-4.75-.66-7.12-.05-.02-.11-.05-.16-.07-.15.21-.32.41-.43.64-.97,1.93-1.96,3.86-2.89,5.81-.25.53-.55.74-1.14.5-1.13-2.26-2.27-4.55-3.42-6.84-.07.02-.15.04-.22.05-.22,2.33-.44,4.66-.66,7.02h-2.05c.55-4.12,1.09-8.17,1.63-12.28.24-.04.45-.08.66-.09.19-.01.38.01.61.02,1.41,2.7,2.82,5.4,4.29,8.24.24-.41.4-.67.54-.94,1.17-2.19,2.34-4.38,3.52-6.56.45-.83.46-.82,1.58-.66.49,4.04.97,8.11,1.47,12.28Z"/>
  <path class="cls-1" d="m117.14,22.84c0-3.32,1.79-5.72,4.82-6.47,4.01-.98,7.73,1.76,7.99,5.87.19,3.01-1.13,5.46-3.59,6.6-4.08,1.89-9.3-.56-9.22-6.01Zm10.14.06c-.05-1.1-.22-2.15-.79-3.11-1.47-2.49-4.65-2.5-5.99.07-1.05,2-1.02,4.11.05,6.13.63,1.17,1.65,1.88,3,1.86,1.35-.02,2.31-.78,2.98-1.93.54-.93.69-1.97.75-3.02Z"/>
  <path class="cls-1" d="m209.45,24.58v-7.86h1.91v12.27c-.8.25-1.33,0-1.85-.6-1.96-2.26-3.97-4.48-5.97-6.71-.21-.23-.42-.46-.79-.86-.12,1.05-.05,1.92-.07,2.78-.01.89,0,1.78,0,2.67s0,1.78,0,2.74h-1.89v-12.28c.78-.16,1.37-.07,1.95.58,1.93,2.2,3.94,4.33,5.93,6.49.2.22.43.43.79.79Z"/>
  <path class="cls-1" d="m133.48,29.02h-1.91v-12.28c.74-.19,1.34-.13,1.92.52,1.94,2.19,3.94,4.32,5.92,6.48.21.23.41.48.7.82.28-.76.14-1.39.16-2,.03-.67,0-1.34,0-2,0-.64,0-1.27,0-1.91v-1.95h1.89v12.27c-.81.26-1.34,0-1.86-.6-1.98-2.28-4.01-4.52-6.03-6.77-.2-.23-.42-.43-.8-.82v8.23Z"/>
  <path class="cls-1" d="m186.04,29.03c-1.08,0-1.93.04-2.77-.03-.26-.02-.53-.3-.72-.53-1.12-1.34-2.22-2.71-3.33-4.06-.24-.29-.45-.66-1.02-.35v4.94h-2.25c-.19-.65-.23-10.68-.04-12.35.08-.04.16-.11.24-.11,1.62.01,3.24-.02,4.86.08,1.67.1,2.71,1.45,3,2.68.34,1.48-.28,2.88-1.64,3.76-.26.17-.54.33-.87.53,1.49,1.78,2.94,3.53,4.54,5.44Zm-7.73-10.85c-.19,1.01-.16,3.41.04,4.13,1.15.15,2.23.08,2.97-.99.46-.67.42-1.7-.08-2.34-.78-.99-1.85-.93-2.93-.81Z"/>
  <path class="cls-1" d="m89.24,29.02h-2.26c1.89-4.23,3.73-8.38,5.59-12.55h1.08c1.76,4.12,3.55,8.29,5.37,12.54h-2.87c-.43-1.12-.86-2.24-1.29-3.36h-4.41c-.4,1.11-.79,2.22-1.2,3.37Zm4.96-5.13c-.43-1.16-.89-2.23-1.45-3.36-.73,1.28-1.28,2.71-1.3,3.36h2.75Z"/>
  <path class="cls-1" d="m166.55,25.67c-.4,1.13-.8,2.23-1.2,3.36h-2.26c1.87-4.21,3.71-8.34,5.58-12.53h1.11c1.76,4.12,3.54,8.29,5.36,12.54h-2.86c-.43-1.1-.87-2.22-1.31-3.37h-4.42Zm2.34-5.02c-.08,0-.16,0-.24-.01-.44,1.05-.88,2.11-1.35,3.22h2.97c-.49-1.13-.94-2.17-1.38-3.21Z"/>
  <path class="cls-1" d="m99.18,25.52h1.02c.18.29.35.59.54.87.78,1.14,2.24,1.52,3.47.92.58-.29.95-.73.98-1.41.03-.67-.23-1.2-.82-1.5-.5-.26-1.06-.43-1.58-.67-.72-.34-1.48-.61-2.11-1.07-1.65-1.21-1.82-3.32-.47-4.85.87-.99,2-1.46,3.29-1.49,1.09-.02,2.14.22,3.14.76v2.19c-.51.18-.81.08-1.14-.36-.76-1.04-2.15-1.22-3.12-.47-.86.66-.88,1.69,0,2.33.35.26.77.44,1.18.62.64.28,1.31.49,1.95.78,2.39,1.09,2.86,4.05.94,5.84-1.66,1.55-4.98,1.84-6.88.57-.18-.12-.36-.38-.38-.58-.04-.79-.02-1.58-.02-2.48Z"/>
  <path class="cls-1" d="m188.47,18.5c-1.31.06-2.5.11-3.78.16v-1.96h9.79v2.01c-1.14-.07-2.3-.14-3.56-.22v10.51h-2.45v-10.51Z"/>
  <path class="cls-1" d="m113.64,29.02h-2.44v-10.52c-1.31.05-2.5.1-3.78.16v-1.96h9.81v2.02c-1.17-.07-2.32-.15-3.59-.23v10.53Z"/>
  <path class="cls-1" d="m198.2,16.71v12.3h-2.29c-.19-.65-.25-11.03-.05-12.3h2.35Z"/>
</svg>