<?xml version="1.0" encoding="UTF-8"?>
<svg id="Camada_1" data-name="Camada 1" xmlns="http://www.w3.org/2000/svg" viewBox="0 0 277.79 90">
  <defs>
    <style>
      .cls-1 {
        fill: #9c9c9c;
        stroke-width: 0px;
      }
    </style>
  </defs>
  <path class="cls-1" d="m23.5,29.98c-1.16-.31-2.31-.6-3.46-.93-1.08-.31-2.15-.65-3.21-1-.32-.11-.62-.27-.93-.42-.46-.21-.71-.57-.76-1.08-.13-1.33-.26-2.67-.4-4.1-.44-.21-.96-.46-1.49-.7-1.79-.83-3.59-1.65-5.38-2.49-.86-.4-.93-.54-.74-1.47.25-1.24.52-2.48.78-3.72.03-.14.05-.28.07-.46-.22-.12-.43-.24-.64-.35-2.04-1.05-4.07-2.12-6.13-3.12C.33,9.71.16,8.97,0,8.18c-.03-.13.09-.32.2-.44,1.19-1.39,2.4-2.77,3.59-4.15.47-.54,1.03-.76,1.76-.65,7.02.96,14.07,1.01,21.13.89,3.12-.05,6.24-.34,9.36-.48,2.29-.11,4.59-.19,6.88-.23,3.98-.06,7.96-.16,11.94-.09,4.44.08,8.88.32,13.32.5,3.42.14,6.83.37,10.25.43,2.71.05,5.42-.09,8.13-.16,4.61-.13,9.22-.52,13.84-.33,3.24.13,6.48.41,9.71.71,1.08.1,2.14.45,3.2.74.4.11.74.09,1.12-.07,3.49-1.48,7.1-2.58,10.81-3.39,2.99-.65,6.01-1.03,9.05-1.29,3.3-.27,6.59-.18,9.88.07,3.74.29,7.38,1.06,10.99,2.06,2.83.79,5.56,1.83,8.2,3.09.52.24.97.3,1.53.13,3.14-.96,6.35-1.58,9.61-1.9,3.09-.31,6.18-.43,9.29-.1,3.03.33,6.07.62,9.11.86,1.65.13,3.32.21,4.98.15,6.03-.22,12.05-.52,18.08-.77,3.68-.16,7.37-.37,11.06-.41,2.83-.03,5.66.16,8.49.29,2,.09,4,.24,6,.34,3.29.16,6.59.4,9.88.42,2.85.02,5.71-.13,8.56-.32,4.04-.28,8.08-.65,12.11-1.02.82-.07,1.43.15,2.02.73,1.28,1.25,2.45,2.59,3.54,4,.06.08.1.17.15.26-.39.9-.9,1.64-1.86,2.05-1.57.67-3.11,1.41-4.66,2.13-.24.11-.49.22-.78.34.23.57.45,1.1.65,1.64.37,1.01.69,2.03.67,3.13,0,.46-.18.7-.56.91-1.65.92-3.4,1.58-5.23,2.04-.35.09-.7.2-1.09.31,0,.91.03,1.79-.01,2.66-.02.48-.1.97-.24,1.43-.39,1.26-1.26,2.05-2.49,2.48-1.51.53-3.06.81-4.65.98-.14.02-.29.04-.45.06-.08.84-.11,1.66-.25,2.48-.12.67-.31,1.33-.57,1.95-.39.94-1.15,1.47-2.14,1.71-2.03.49-4.1.64-6.16.83-.19.02-.39.03-.64.05-.14.48-.29.97-.43,1.45-.48,1.63-1.34,3.03-2.56,4.21-.61.6-1.31.94-2.21.96-2.42.03-4.83.03-7.24-.3-.16-.02-.33-.02-.55-.03-.07.38-.1.74-.2,1.08-.24.82-.44,1.65-.77,2.43-.41.96-1.17,1.57-2.25,1.63-1.97.1-3.95.19-5.92.25-1.24.04-2.49,0-3.8,0-.05.14-.1.32-.17.5-.37.98-.69,1.98-1.12,2.93-.49,1.06-1.34,1.58-2.56,1.6-2.87.05-5.71-.15-8.46-1.03-.06-.02-.14-.01-.25-.02-.1.24-.2.48-.31.73-.36.84-.87,1.56-1.53,2.21-.75.73-1.62.99-2.62.8-1.6-.31-3.2-.65-4.79-1.01-.73-.17-1.45-.42-2.21-.64-.13.21-.25.42-.37.62-.5.82-1.13,1.52-1.92,2.08-.57.4-1.17.54-1.86.45-1.17-.15-2.29-.48-3.4-.86-.18-.06-.37-.13-.62-.22-.12.35-.25.69-.36,1.02-.94,2.77-2.31,5.32-3.91,7.76-2.23,3.42-4.92,6.43-7.97,9.13-4.47,3.96-9.51,6.98-15,9.28-.44.18-.73.42-.93.85-.44.95-.9,1.89-1.39,2.83-.36.69-.5.73-1.22.47-1.21-.44-2.42-.9-3.69-1.37-.28.41-.57.82-.85,1.24-.37.55-.72,1.1-1.1,1.65-.41.6-.55.64-1.2.29-.97-.52-1.92-1.06-2.88-1.59-.15-.08-.29-.17-.51-.29-.31.39-.61.76-.92,1.13-.49.6-.98,1.21-1.49,1.81-.35.41-.5.44-.93.15-.61-.41-1.18-.87-1.77-1.3-.47-.35-.94-.69-1.46-1.07-.7.67-1.39,1.33-2.07,1.99-.23.22-.45.45-.68.66-.45.41-.54.44-.98.04-.75-.66-1.47-1.36-2.19-2.05-.18-.17-.31-.37-.51-.61-.77.56-1.46,1.06-2.14,1.56-.35.26-.7.54-1.06.79-.45.31-.64.29-1-.12-.71-.84-1.41-1.68-2.12-2.53-.09-.11-.19-.22-.3-.36-.97.52-1.89,1.01-2.81,1.51-.24.13-.46.29-.69.41-.48.24-.68.2-.99-.24-.56-.8-1.1-1.62-1.64-2.42-.14-.2-.27-.4-.45-.65-.56.21-1.1.42-1.64.63-.66.25-1.32.52-1.98.75-.74.26-.94.18-1.29-.5-.45-.89-.91-1.78-1.32-2.7-.19-.44-.48-.68-.91-.86-3.23-1.33-6.38-2.84-9.31-4.75-2.61-1.69-5.07-3.56-7.27-5.77-2-2.01-3.93-4.08-5.59-6.39-2.06-2.88-3.57-6.04-4.81-9.34-.33-.87-.63-1.74-.96-2.66-.14.03-.3.06-.46.1-1.7.43-3.39.9-5.11,1.25-.7.14-1.45.04-2.18.02-.6-.02-1.07-.33-1.44-.78-.41-.51-.8-1.05-1.18-1.58-.17-.24-.3-.5-.49-.81-.78.18-1.55.36-2.33.55-2.02.48-4.06.82-6.14.99-1.33.11-2.32-.42-3.14-1.38-.76-.88-1.25-1.92-1.71-3.04-.22,0-.46,0-.7,0-2.1,0-4.2.03-6.3-.02-1.05-.02-2.09-.17-3.13-.27-.75-.07-1.31-.45-1.78-1.04-.63-.8-1.06-1.69-1.36-2.66-.08-.28-.18-.55-.28-.85-.66-.03-1.29-.06-1.92-.1-2.88-.21-5.73-.61-8.55-1.18-.64-.13-1.15-.4-1.53-.91-1.04-1.41-2.07-2.83-3.2-4.37-.78-.09-1.75-.17-2.71-.32-1.64-.26-3.27-.58-4.9-.86-.98-.17-1.56-.76-1.8-1.7-.32-1.28-.61-2.56-.91-3.84-.04-.19-.09-.37-.15-.6Zm.8-24.12c.01-.08.02-.16.04-.24.24,0,.47,0,.71,0,1.22.02,2.44.05,3.66.06.27,0,.6.04.78-.1.42-.32.87-.28,1.33-.29,1.42-.02,2.83-.02,4.25-.06,5.88-.13,11.77-.36,17.65-.04,2.63.15,5.27.36,7.83,1.01,2.2.56,4.37,1.2,6.55,1.83,2.33.67,4.69,1.18,7.12,1.25,2.61.07,5.23.09,7.84.14,3.08.06,6.16.06,9.23.19,2.66.12,5.31.37,7.96.61,1.36.12,2.73.24,4.03.68,2.06.69,3.87,1.75,5.18,3.53.91,1.23,1.22,2.61.81,4.09-.22.77-.5,1.54-.85,2.25-.61,1.22-1.3,2.4-1.97,3.59-.86,1.51-1.42,3.1-1.38,4.87.02.72-.07,1.41-.63,1.95-.23.22-.16.42.1.61.05-.06.1-.11.14-.17.96-1.54,2.07-2.96,3.28-4.3.5-.55.74-1.17.72-1.93-.03-1.06.15-2.09.71-3.02.58-.97,1.21-1.9,2.06-2.65,1.3-1.14,2.63-2.26,3.96-3.38.98-.82,1.87-1.72,2.61-2.76.93-1.31,1.07-2.68.31-4.13-.2-.38-.38-.79-.48-1.21-.13-.53-.41-.86-.92-1.03-.63-.2-1.14-.56-1.5-1.11-.22-.33-.53-.49-.92-.52-.41-.04-.83-.07-1.24-.13-1.71-.25-3.42-.58-5.14-.76-2.13-.23-4.28-.44-6.42-.51-2.46-.08-4.93-.05-7.4.01-3,.08-6,.22-9,.37-3.52.18-7.03.06-10.55-.08-4.12-.17-8.25-.36-12.37-.51-3.71-.14-7.42-.28-11.13-.35-2.29-.04-4.59.11-6.89.11-3.94,0-7.86.25-11.78.54-1.97.15-3.95.28-5.92.29-3.32,0-6.64-.07-9.96-.16-2.27-.07-4.54-.23-6.8-.37-1.44-.09-2.87-.2-4.31-.32-.59-.05-1.01.16-1.39.61-.89,1.07-1.83,2.09-2.75,3.14-.14.16-.25.33-.38.49.19.07.33.06.42,0,.19-.15.36-.33.53-.51.22-.22.43-.23.72-.08,2.01,1.05,4.05,2.05,6.04,3.13,1.07.58,2.18.81,3.37.83,5.01.09,10.01.21,15.02.28,4.42.06,8.84.06,13.26.08,4.35.02,8.69.04,13.04.05,4.61.01,9.23-.16,13.82.49.55.08,1.11.14,1.66.26.42.09.77.29.75.85.29-.05.58.12.74-.23.15-.33.34-.65.48-.99.16-.38.06-.6-.31-.76-.13-.06-.28-.1-.42-.12-2.44-.39-4.8-1.12-7.14-1.87-5.41-1.73-10.97-2.58-16.64-2.71-5.42-.12-10.84-.18-16.26-.3-1.68-.04-3.36-.19-5.05-.3-.27-.02-.54-.12-.81-.18Zm222.85.44c-.46,0-.87.02-1.28,0-3.05-.16-6.1-.21-9.15,0-2.41.16-4.83.3-7.23.51-2.6.23-5.2.48-7.79.82-2.56.35-5.11.82-7.66,1.25-2.55.43-5.09.93-7.58,1.63-.11.03-.2.1-.31.15.05.08.07.14.1.15.99.25,1.97.51,3.02.43,2.51-.2,5.02-.39,7.53-.48,2.42-.09,4.84-.05,7.25-.07,11.55-.12,23.11-.24,34.66-.37,3.1-.03,6.2-.11,9.31-.15,1.09-.01,2.13-.21,3.11-.69.74-.36,1.53-.65,2.28-.99.77-.35,1.46-.31,2.04.4.23-.1.46-.19.67-.3.5-.27.62-.59.36-1.08-.21-.38-.45-.76-.73-1.09-.45-.54-.98-1.03-1.41-1.58-.74-.95-1.69-1.2-2.85-1.09-3.28.33-6.57.58-9.85.9-4.8.47-9.61.45-14.42.41-2.85-.03-5.71-.26-8.56-.4-3.15-.15-6.29-.32-9.44-.45-3.93-.15-7.86-.03-11.79.16-3.05.15-6.1.37-9.14.5-3,.13-6,.25-9.01.28-2.49.03-4.99,0-7.47-.15-2.26-.14-4.51-.48-6.77-.72-3.02-.32-6.05-.3-9.07-.05-3.71.31-7.34,1.04-10.9,2.12-1.6.49-3.12,1.14-4.43,2.19-.33.27-.62.59-.97.93.79.22,1,.45,1.04,1.27.03.77.33,1.42.74,2.04.59.89,1.36,1.59,2.24,2.18.83.56,1.64,1.14,2.44,1.74.77.58,1.36,1.31,1.83,2.16.67,1.22,1.4,2.4,2.1,3.6.55.93,1.06,1.89,1.2,2.97.21,1.53.59,3.02,1.11,4.47.29.81.51,1.63.37,2.5-.05.3.03.57.34.85.1-.3.18-.54.25-.78.1-.35.11-.76.31-1.04.28-.4.33-.81.34-1.24.02-.85-.02-1.71.02-2.56.06-1.31-.44-2.41-1.12-3.49-.88-1.38-1.74-2.77-2.52-4.2-.97-1.78-.97-1.28-.71-3.6.12-1.09.43-2.05,1.38-2.7.03-.02.03-.09.05-.13-.47-.34-.51-.49-.2-.92.16-.21.34-.44.56-.57.56-.34,1.13-.69,1.74-.93,2.06-.81,4.22-1.21,6.42-1.34,4.1-.24,8.2-.14,12.31-.09,3.13.04,6.25,0,9.35-.56,4.3-.78,8.59-1.57,12.89-2.33,3.54-.63,7.11-.97,10.69-1.26,3-.24,6-.26,9-.04.73.05,1.46.06,2.2.06,2.83,0,5.67-.02,8.5,0,.92,0,1.85.1,2.83.16-.07.25-.13.45-.19.64Zm-77.85,21.67c.07-.03.15-.05.22-.08.1-1.74-.09-3.43-.96-5-.78-1.4-1.8-2.62-3.03-3.63-1.4-1.14-2.85-2.22-4.29-3.31-.89-.67-1.63-1.47-2.15-2.46-.87-1.65-.85-3.22.36-4.71.18-.22.33-.45.52-.71-.55-.33-.99-.69-1.51-.89-1.09-.43-2.2-.79-3.32-1.14-5.15-1.57-10.42-2.33-15.79-2.46-3.23-.08-6.44.24-9.63.73-3.36.52-6.66,1.26-9.85,2.47-.56.21-1.12.44-1.7.67.38.37.38.35.87.4.82.09,1.82.54,1.94,1.75.02.22.09.43.12.65.22,1.72-.28,3.18-1.56,4.36-.19.17-.45.32-.7.36-.2.03-.43-.12-.61-.18-.68.63-1.32,1.26-2,1.85-1.25,1.09-2.53,2.15-3.77,3.25-.52.46-.97,1.01-1.43,1.5.6.91.9.94,1.69.38,1.26-.88,2.52-1.77,3.84-2.55,3.02-1.78,6.25-3.1,9.65-3.96,6.71-1.69,13.48-2.06,20.34-1.05,4.11.61,8.06,1.71,11.83,3.43,2.81,1.28,5.47,2.82,7.72,4.98,1.24,1.19,2.32,2.5,2.64,4.29.07.37.37.7.57,1.05Zm2.81,26.98c-.54.79-1,1.54-1.53,2.23-2.05,2.64-4.51,4.86-7.25,6.77-2.66,1.85-5.57,3.21-8.56,4.42-.25.1-.5.22-.75.32.19.22.36.34.53.34,1.1.01,1.79.58,2.31,1.51.97,1.75,1.99,3.47,2.99,5.2.54.94.8,1.03,1.82.58.04-.02.09-.05.13-.06,3.66-1.59,7.14-3.5,10.48-5.67.47-.3.98-.57,1.5-.74.84-.26,1.53-.73,2.15-1.33,3.38-3.23,5.94-7.03,7.84-11.29.07-.16.12-.32.18-.48.12-.33,0-.58-.27-.76-.2-.13-.43-.22-.66-.3-.78-.27-1.57-.52-2.36-.79-.5-.17-1-.36-1.5-.55-.3.55-.57,1.06-.87,1.56-.29.48-.72.69-1.28.7-.9.02-1.74-.16-2.55-.55-.77-.36-1.53-.74-2.35-1.13Zm-80.08.29c-.02.05-.04.1-.06.15.18.06.36.16.55.18,1.13.16,1.91.73,2.42,1.77.54,1.09,1.13,2.17,1.79,3.19,3.2,4.93,7.37,8.88,12.35,12,2.24,1.4,4.57,2.62,6.96,3.73,1.17.55,1.41,1.11,1.09,2.33,0,.04.03.08.05.15.31-.03.34-.32.45-.51,1.01-1.7,2.01-3.4,3.02-5.1.73-1.24,1.47-2.48,2.19-3.72.28-.48.27-.58-.15-.93-.3-.24-.65-.43-1-.59-1.63-.77-3.31-1.45-4.89-2.31-4.68-2.55-8.64-5.93-11.58-10.42-.32-.48-.69-.87-1.24-1.13-.42.24-.85.47-1.26.73-.59.38-1.24.55-1.92.65-.8.11-1.37-.22-1.81-.85-.14-.2-.24-.42-.37-.63-.37-.57-.48-.62-1.15-.41-1.81.56-3.62,1.14-5.43,1.71ZM9.08,14.25c.19.15.33.29.49.4.52.35.75.84.65,1.45-.1.66.23,1,.78,1.24,1.65.73,3.29,1.49,4.96,2.18.5.21,1.09.33,1.63.32,3.37-.08,6.74-.18,10.1-.34,3.85-.19,7.7-.44,11.56-.67,2.54-.15,5.07-.31,7.6-.49,3-.21,5.99-.43,8.99-.67,2.63-.21,5.26-.45,7.88-.67,1.82-.15,3.65-.32,5.48-.45.38-.03.79.01,1.16.1.62.15.84.5.85,1.17.12-.03.29-.01.34-.08.4-.57.77-1.15,1.2-1.81-.14-.09-.26-.15-.35-.23-.6-.57-1.19-1.14-1.78-1.72-.24-.24-.49-.24-.8-.19-.65.1-1.31.19-1.96.2-1.76.02-3.52,0-5.28-.02-12.26-.05-24.53-.09-36.79-.17-4.66-.03-9.33-.16-13.99-.24-.81-.01-1.61,0-2.42,0-.06,0-.13.05-.21.08-.03.2-.06.39-.1.63Zm197.31.58c.8.19,1.48.4,2.17.51.7.11,1.41.12,2.12.17,3.12.22,6.24.45,9.35.66,2.58.18,5.17.34,7.75.5,2.88.18,5.75.37,8.63.53,3.24.18,6.49.32,9.73.49,5.1.26,10.2.48,15.31.43.73,0,1.48,0,2.19-.15,1.43-.31,2.84-.71,4.24-1.1.93-.26,1.36-.1,1.76.78.17-.07.35-.14.52-.23.68-.37.57-.42.52-.96-.12-1.31-.61-2.51-1.01-3.73-.14-.42-.46-.43-.83-.42-3.39.09-6.79.21-10.18.25-8.87.12-17.73.23-26.6.32-6.4.06-12.8.05-19.2.1-1.56.01-3.12.13-4.68.22-.2.01-.44.09-.58.23-.4.42-.77.87-1.21,1.4ZM16.07,22.26c-.02.58-.04.6.37.79.56.26,1,.66,1.18,1.23.23.77.75,1.17,1.47,1.37,1.5.42,3.01.82,4.51,1.26,1.21.36,2.43.48,3.69.42,3.76-.18,7.5-.52,11.23-1.02,5.08-.68,10.16-1.34,15.22-2.12,5.62-.87,11.21-1.87,16.82-2.8.38-.06.78-.02,1.16.02.62.07,1.04.38,1.02,1.12.3-.06.56-.11.81-.16.04-.23.05-.4.1-.56.06-.18.14-.36.22-.54.34-.7.31-.77-.31-1.28-.51-.41-1.04-.81-1.49-1.28-.32-.33-.62-.42-1.03-.33-.5.11-1,.23-1.51.28-2.89.28-5.78.54-8.68.79-3.28.28-6.57.57-9.85.81-4.63.34-9.25.67-13.89.93-5.95.34-11.9.6-17.85.89-1.05.05-2.09.12-3.19.18Zm60.25,4.75c.21-.58.36-1.04.54-1.49.3-.78.19-1.05-.57-1.35-.5-.2-1.05-.3-1.49-.58-.89-.57-1.76-.77-2.74-.27-.08.04-.19.03-.29.05-.96.17-1.92.35-2.88.52-3.99.7-7.97,1.45-11.97,2.09-4.14.66-8.31,1.21-12.46,1.83-5.05.75-10.12,1.29-15.21,1.63-1.47.1-2.95.24-4.39.36-.11.42,0,.63.31.72,1.01.27,1.64.91,1.88,1.93.14.62.52.95,1.15,1.06,1.25.21,2.5.45,3.75.65,2.47.4,4.95.46,7.44.18,4.91-.53,9.74-1.5,14.55-2.57,5.81-1.3,11.53-2.94,17.24-4.64.98-.29,1.96-.58,2.95-.85.33-.09.7-.18.98.08.25.23.43.53.68.85.15-.05.37-.12.54-.18Zm61.01-11.03c-1.57,0-4.17.2-6.76.62-5.23.86-10.17,2.53-14.73,5.26-4.19,2.51-7.74,5.69-10.36,9.85-2.02,3.22-3.23,6.72-3.4,10.54-.21,4.67,1.12,8.92,3.66,12.81,2.93,4.48,6.91,7.79,11.59,10.31,5.96,3.2,12.37,4.73,19.1,5,4.02.16,8-.16,11.94-1.01,5.36-1.16,10.35-3.18,14.83-6.36,3.84-2.73,7.01-6.07,9.14-10.31,2.05-4.09,2.79-8.4,2.01-12.94-.64-3.76-2.24-7.1-4.56-10.11-3.37-4.37-7.71-7.5-12.7-9.77-5.94-2.7-12.2-3.89-19.75-3.9Zm66.43,3.83c.4.03.66.08.91.06,1.43-.13,2.82.1,4.22.3,4.64.66,9.27,1.36,13.91,1.98,4.86.65,9.73,1.23,14.6,1.82,4.77.58,9.56,1.05,14.36,1.34,3.13.19,6.24.17,9.31-.59.79-.2,1.16.08,1.34.9.51-.16.78-.54,1.02-.98.62-1.16.67-2.43.7-3.7.01-.44-.17-.6-.63-.64-.29-.03-.59,0-.88,0-2.22.02-4.44.11-6.66.04-4.56-.13-9.12-.31-13.68-.52-3.73-.17-7.46-.4-11.19-.63-3.97-.25-7.94-.54-11.91-.81-3.31-.23-6.62-.48-9.94-.69-1.04-.06-2.09-.01-3.16-.01-.38,1.01-1.43,1.34-2.33,2.12Zm39.57,20.3c.11-.07.22-.13.3-.2,1.29-1.21,1.96-2.77,2.51-4.4.02-.05.02-.1.03-.14.06-.31-.05-.53-.36-.62-.16-.05-.33-.09-.5-.11-.97-.11-1.95-.19-2.91-.34-3.16-.5-6.31-1-9.46-1.54-7.29-1.26-14.5-2.89-21.67-4.67-2.72-.68-5.45-1.34-8.18-1.99-.58-.14-1.19-.18-1.85-.28-.05.34-.14.6-.11.85.08.65-.15.82-.73.96-.8.18-1.61.35-2.44.53-.04.4.28.53.58.59.64.12,1.3.19,1.94.29.6.09,1.22.11,1.79.28,1.05.32,2.07.73,3.1,1.1,6.96,2.5,13.98,4.79,21.17,6.51,3.11.75,6.25,1.33,9.42,1.78,1.99.28,3.99.37,5.99.34.91-.02,1.19.22,1.37,1.06Zm-162.75-8.5c-.09-.41-.2-.71-.22-1-.03-.41,0-.83,0-1.24,0-.71-.07-.83-.77-1.03-.8-.23-1.6-.42-2.4-.65-.48-.14-.9-.09-1.34.13-.32.16-.67.29-1.02.39-4.47,1.3-8.94,2.61-13.42,3.88-4.56,1.28-9.17,2.34-13.82,3.22-3.52.66-7.1,1.04-10.65,1.55-.47.07-.94.13-1.4.19.11.21.23.32.37.38.36.15.73.26,1.09.42.85.36,1.67.77,2.33,1.47.29.31.79.48,1.22.59.76.19,1.53.3,2.31.39,2.06.24,4.12.47,6.19.64.57.05,1.17-.05,1.73-.19,1.82-.47,3.63-.96,5.43-1.51,5.67-1.74,11.23-3.78,16.74-5.98,1.58-.63,3.15-1.31,4.73-1.95.31-.12.62-.24.99-.06.37.18.6.44.6.89.5-.19.92-.36,1.31-.51Zm173.75,1.31c.54-.21.86-.48,1.05-1.18.29-1.08.51-2.18.72-3.28.08-.41-.11-.63-.55-.7-.34-.06-.68-.05-1.02-.06-2.32-.11-4.64-.17-6.95-.35-2.8-.21-5.59-.49-8.38-.78-2.43-.25-4.85-.53-7.28-.82-2.76-.34-5.52-.7-8.28-1.06-2.73-.36-5.47-.73-8.2-1.12-3.09-.44-6.18-.91-9.27-1.35-.71-.1-1.44-.11-2.22-.16.14.92-.34,1.33-1.05,1.59-.49.18-.97.4-1.5.63.48.37.9.29,1.32.12.86-.35,1.73-.4,2.65-.17,2.98.74,5.97,1.47,8.97,2.14,5.66,1.27,11.32,2.57,17.01,3.7,4.09.82,8.22,1.42,12.34,2.05,1.27.2,2.58.32,3.86.27,1.78-.08,3.54-.36,5.31-.57.91-.11,1.36.22,1.46,1.12Zm-68.18-17.46c.54-.38,1.05-.62,1.73-.43,1.15.32,2.32.57,3.48.85.49.12.94.29,1.04.86,1.32-.43,1-.25,1.19-1.81-.23-.05-.46-.1-.69-.14-1.51-.27-3.03-.54-4.54-.81-.43-.08-.85-.2-1.08-.61.29-.14.53-.29.79-.38.2-.07.42-.14.63-.13,1.19.06,2.39.17,3.58.22.72.03,1.35.17,1.64.91.75-.18,1.09-.63,1.17-1.33.04-.36-.06-.59-.39-.68-.33-.09-.67-.14-1.01-.14-4.32.02-8.65.06-12.97.07-1.45,0-2.87.18-4.29.47-1.58.33-3.14.73-4.53,1.6-.47.3-.94.6-1.23,1.11.93.29,1.09.49,1.12,1.47.02.57.16,1.11.42,1.61.28.54.54,1.09.85,1.62.59,1.01,1.17,2.03,2.04,2.84.25.23.42.61.48.95.12.6.39,1.1.82,1.52.38.38.77.75,1.17,1.11.65.59,1.31,1.17,1.98,1.74.28.24.43.49.24.85.95.12.97-.18,1.1-.83.1-.51-.12-.9-.49-1.22-1.19-1.05-2.37-2.1-3.58-3.17.04-.09.09-.21.14-.34-.27-.25-.59-.44-.39-.87.18-.38.49-.51.88-.56.45-.05.72.16.96.52.3.44.61.89,1.01,1.24.93.83,1.92,1.59,2.87,2.39.26.22.47.5.73.79,0,0,.08,0,.15-.02.32-.06.72,0,.86-.42.16-.44.04-.82-.3-1.13-.32-.3-.63-.61-.97-.89-.83-.68-1.68-1.35-2.5-2.03-.16-.13-.38-.35-.36-.49.04-.25-.05-.35-.2-.49-.27-.25-.2-.55-.02-.79.2-.26.49-.45.83-.26.25.14.5.33.66.55.43.58.97,1.02,1.56,1.42.61.41,1.2.84,1.79,1.27.47.34.96.66,1.13,1.3.33-.07.61-.13.83-.17.14-.46.26-.85.4-1.32-.23-.19-.48-.41-.76-.6-.92-.64-1.85-1.27-2.78-1.91-.84-.58-.85-.58-1.2-1.49-.07-.17-.02-.46.09-.59.11-.13.39-.19.57-.15.22.05.42.24.62.37.51.34,1,.7,1.52,1.02.75.45,1.54.85,2.28,1.31.38.23.71.55,1.14.88.09-.02.27-.08.46-.12.52-.11.43-.58.56-.92.12-.33-.11-.51-.34-.65-.35-.22-.72-.42-1.08-.61-1.14-.6-2.29-1.19-3.3-1.71-.14-.47-.23-.78-.34-1.13.26-.34.64-.22.97-.1,1.42.53,2.83,1.07,4.23,1.63.54.22,1.04.52,1.1,1.16.84-.06.92-.78,1.23-1.26.27-.42.15-.72-.31-.94-.18-.08-.37-.12-.56-.18-1.35-.42-2.7-.85-4.05-1.28-.32-.1-.65-.2-.82-.59Zm45.31,29.78c.62-.25.69-.28.91-.84.32-.82.63-1.64.88-2.48.24-.81.05-1.08-.78-1.31-.16-.04-.33-.08-.5-.11-1.6-.32-3.22-.59-4.81-.97-8.11-1.89-16.04-4.38-23.87-7.21-1.6-.58-3.22-1.11-4.84-1.67-.65-.22-1.29-.16-1.94.05-.76.25-1.53.5-2.3.73-.38.11-.54.29-.36.7.52.18,1.06.36,1.58.56.73.27,1.48.5,2.17.85,2.37,1.2,4.71,2.47,7.08,3.67,4.2,2.13,8.47,4.11,12.91,5.71,2.28.82,4.58,1.34,7.02,1.19,1.78-.11,3.56-.11,5.35-.15.12,0,.24-.02.37,0,.72.06,1.12.49,1.13,1.28Zm-181.1-1.93c0,.4.23.38.46.39.81.04,1.48.43,1.92,1.06.53.75,1.23,1,2.07,1.02,2.49.05,4.98.08,7.46.11.82,0,1.57-.2,2.32-.55,5.95-2.82,11.8-5.84,17.58-8.99.23-.13.48-.27.73-.32.68-.13,1.38-.37,1.99.2.43-.21.85-.4,1.26-.62.42-.22.82-.47,1.38-.8-.39-.08-.61-.1-.81-.16-.56-.16-1.13-.3-1.68-.5-.56-.21-.83-.66-.87-1.24,0-.12,0-.24-.02-.37-.04-.68-.17-.81-.83-.83-.97-.03-1.89.14-2.76.58-.54.27-1.08.57-1.64.8-6.72,2.82-13.5,5.49-20.44,7.73-1.92.62-3.88,1.14-5.82,1.73-.79.24-1.56.52-2.31.77Zm13.51,4.77c.22.08.32.17.42.16,1.1-.09,1.87.4,2.42,1.31.3.51.78.72,1.35.74.27,0,.54,0,.8-.05,2.49-.47,4.99-.93,7.47-1.44,1.36-.28,2.67-.74,3.82-1.58,3.75-2.74,7.24-5.79,10.82-8.74.52-.42.97-.92,1.51-1.43-.16-.03-.21-.06-.26-.05-1.53.34-2.8.04-3.68-1.38-.23-.37-.44-.38-.87-.13-.32.18-.59.43-.91.61-3.49,1.91-6.95,3.87-10.47,5.71-3.85,2.01-7.76,3.9-11.64,5.85-.23.12-.46.25-.79.42Zm29.84-31.99c.49.3,1.04.48,1.31.85.29.4.31.99.46,1.56,1.14.06,1.85.66,1.94,1.85,1.75.17,2.03.5,2.17,2.05.45-.08.9-.23,1.34-.23.76,0,1.39.68,1.36,1.36-.03.6-.78,1.38-1.37,1.29-.69-.1-1.1.21-1.52.65-.39.41-.82.77-1.21,1.17-.31.32-.6.66-.9.99.54-.09,1.01-.2,1.39.27.33.41.44.87.33,1.5.19-.21.29-.32.38-.42,1.68-1.87,3.33-3.76,5.04-5.6,1.27-1.37,2.11-2.96,2.69-4.72.44-1.33.12-2.46-.85-3.41-.31-.3-.66-.58-1.04-.8-1.94-1.14-4.07-1.75-6.28-2.07-2.18-.31-4.38-.35-6.57-.32-.83.01-1.66,0-2.48-.09-2.02-.24-4.04-.2-6.07-.08-.41.02-.65.15-.61.65.74.51,1.54.88,2.5.78.53-.06,1.07-.11,1.6-.14.39-.02.81-.11,1.16.01.74.26,1.44.13,2.15,0,.29-.05.58-.07.87-.11.35-.05.59.1.83.35.24.26.53.49.83.69.58.39.78.8.65,1.49-.03.19-.07.37-.1.49Zm124.5,34.54c.44-.2.71-.54.89-.93.34-.7.65-1.42.95-2.14.43-1.03.32-1.21-.75-1.56-1.73-.57-3.49-1.1-5.19-1.77-5.11-2.02-10.01-4.48-14.88-7.02-1.97-1.03-3.93-2.06-5.89-3.09-.47-.25-.96-.35-1.48-.21-.8.22-1.59.44-2.37.65-.14.41.02.65.35.8.27.12.55.2.81.33.7.34,1.45.61,2.07,1.05,2.06,1.44,4.06,2.96,6.1,4.43,3.24,2.35,6.59,4.53,10.17,6.35.81.41,1.64.73,2.53.92,1.79.38,3.6.63,5.44.69.93.03,1.36.55,1.25,1.49Zm-125.28-12.94c-5.03,4.65-10.41,8.83-15.77,13.04.16.03.32.04.43-.03.62-.4,1.11-.14,1.58.27.17.14.33.29.46.47.35.46.83.58,1.36.55.34-.02.68-.06,1.01-.14,1.35-.32,2.7-.65,4.04-1.01.47-.12.89-.13,1.34.08.65.3.84.23,1.34-.3,2.87-3.1,5.72-6.21,8.6-9.28.43-.46.56-.92.48-1.51-.07-.49-.19-.63-.71-.63-.37,0-.73.06-1.09.07-1.3.04-2.42-.3-3.08-1.58Zm112.97,15.42c.13-.1.27-.17.35-.28.37-.51.77-1.01,1.09-1.55.69-1.15.62-1.42-.54-2.07-5.65-3.18-10.93-6.9-16.05-10.86-.56-.43-1.17-.79-1.76-1.18-.59-.39-1.23-.41-1.9-.27-.52.11-1.06.16-1.58.26-.17.03-.39.11-.47.24-.14.25-.07.51.16.72,1.15,1.06,2.28,2.13,3.42,3.19,2.77,2.57,5.56,5.13,8.32,7.71.77.72,1.66,1.19,2.67,1.43,1.64.39,3.27.79,4.91,1.17.96.22,1.23.49,1.38,1.47Zm-107.76-.38c.13-.17.21-.24.25-.33.96-1.97,1.93-3.94,2.88-5.92.15-.32.26-.7.26-1.05.02-1.32,0-2.63-.03-3.95-.01-.49-.15-.57-.66-.5-.68.1-1.35.23-2.02.31-.4.04-.67.22-.92.51-.57.7-1.15,1.4-1.76,2.06-2.22,2.4-4.46,4.78-6.68,7.18-.12.13-.22.28-.39.5.72-.01,1.08.35,1.37.84.22.37.59.51,1.01.46.46-.06.92-.14,1.36-.25,1.14-.28,2.27-.56,3.4-.87.58-.16,1.06-.08,1.43.42.14.19.31.36.52.6Zm96.45,1.68c.74-.36,1.14-.97,1.49-1.61.32-.57.29-.77-.17-1.23-.44-.45-.9-.9-1.36-1.33-3-2.79-6.02-5.57-9-8.37-.6-.56-1.15-1.2-1.62-1.88-.36-.52-.77-.72-1.35-.65-.72.09-1.44.2-2.2.31-.07.26-.15.54-.19.68.89,1.1,1.7,2.1,2.5,3.12,1.82,2.32,3.65,4.64,5.43,6.99.81,1.06,1.86,1.69,3.1,2.06.19.06.37.11.56.17.61.18,1.22.34,1.82.54.55.18,1.01.48.98,1.2ZM115.32,5.39c.44.3.44.28.76.24.48-.06.97-.14,1.44-.1.6.05,1.16-.05,1.72-.25,4.11-1.48,8.35-2.37,12.68-2.85,3.62-.4,7.25-.5,10.9-.2,3.49.28,6.94.75,10.32,1.66,2.26.61,4.51,1.25,6.66,2.19.54.24,1.12.44,1.39,1.07.63-.34,1.28-.51,1.78-.89-.5-.35-.93-.65-1.36-.95-.1-.07-.22-.11-.33-.15-3.14-1.31-6.37-2.31-9.69-3.06-3.94-.89-7.94-1.3-11.98-1.37-3.55-.06-7.08.14-10.59.7-3.77.6-7.45,1.57-11.02,2.9-.89.33-1.76.69-2.68,1.05Zm44.59,74.15c.01.05.03.11.04.16.42.02.85.01,1.27.07.76.11,1.44-.06,2.12-.37,4.2-1.88,8.15-4.2,11.92-6.84.52-.36,1.05-.72,1.52-1.15,3.22-2.93,6.01-6.21,8.21-9.97,1.25-2.13,2.36-4.33,3-6.73.05-.19.07-.39.1-.58-.05-.02-.1-.04-.15-.05-.13.16-.26.32-.4.47-.76.82-1.45,1.72-2.69,1.89-.08.23-.16.46-.23.68.63.41.78.73.5,1.32-.95,2.01-2,3.97-3.57,5.59-1.46,1.51-2.93,3.01-4.43,4.48-1.01.99-2.02,1.99-3.11,2.89-2.78,2.29-5.83,4.18-9.07,5.74-1.52.73-3.05,1.41-4.58,2.12-.16.07-.3.18-.44.28Zm-42.94-.06c-.29-.19-.51-.38-.76-.48-2.61-1.05-5.12-2.29-7.52-3.76-3.32-2.03-6.42-4.37-9.14-7.17-2.98-3.07-5.48-6.48-7.24-10.4-.22-.48-.39-1-.49-1.52-.16-.84-.48-1.11-1.32-.84-.63.21-1.14.14-1.6-.33-.03-.03-.11-.03-.26-.06.16.46.29.84.42,1.22.8.05,1.22.53,1.52,1.16.09.2.19.4.28.6,1.62,3.56,3.71,6.82,6.33,9.72,4.62,5.11,10.16,8.95,16.42,11.78.44.2.91.38,1.32.62.37.22.77.48.54,1.05-.03.06.15.21.29.38.41-.67.77-1.25,1.21-1.96Zm4.49,4.29c.53.03.67-.33.8-.67,1.37-3.41,2.74-6.83,4.11-10.24.26-.66.54-1.31.8-1.96.29-.72.22-.94-.47-1.28-.37-.18-.77-.31-1.18-.36-.52-.06-1.06-.01-1.64-.01-.08.13-.19.32-.3.51-.1.19-.2.38-.29.56.68.55.73.78.36,1.51-.07.13-.14.26-.21.39-.98,1.68-1.97,3.36-2.95,5.05-.64,1.12-1.25,2.26-1.89,3.38-.23.4-.24.78-.06,1.19.09.2.19.4.29.59.35.66.43.69,1.15.51.83-.21,1.19,0,1.48.84Zm53.9-41.93c1.13.46,1.63,1.28,1.63,2.42,0,.92.26,1.77.71,2.57.78,1.38,1.55,2.77,2.27,4.18.47.93,1.18,1.52,2.16,1.83.53.17,1.06.36,1.58.56.45.18.9.37,1.33.6.44.24.82.54.63,1.23.75-.43,1.19-.98,1.59-1.63-.38-.55-.72-1.08-1.11-1.58-1.91-2.47-3.84-4.92-5.72-7.4-.66-.87-1.35-1.73-1.71-2.79-.15-.45-.52-.6-.98-.61-.75-.01-1.51-.05-2.26-.06-.04,0-.08.05-.12.08v.61Zm-25.91,28.16c.06.32.16.5.52.49,1.01-.02,1.62.59,2.02,1.43.28.59.52,1.21.77,1.82.94,2.38,1.89,4.76,2.82,7.15.34.88.81,1.59,1.8,1.87.68.19.97.77,1.12,1.42.06.26.1.52.15.77.61-.9,1.1-1.82,1.58-2.75.16-.31.06-.62-.1-.91-.53-.99-1.04-1.99-1.59-2.96-1.64-2.91-3.3-5.81-4.95-8.72-.32-.57-.5-.7-1.11-.53-1.01.28-2,.61-3.02.92Zm-21.65,1.2c.92.58,1.07,1.02.73,1.99-.05.14-.1.27-.15.41-1.01,2.59-2.02,5.18-3.03,7.77-.16.41-.32.82-.44,1.24-.23.8.12,1.43.64,1.98.21.23.5.26.81.2.25-.05.57-.11.76,0,.2.11.29.43.42.65.62-.13.95-.53,1.07-1.14.07-.36.21-.7.29-1.06.83-3.46,1.65-6.93,2.47-10.39.1-.4.22-.8.28-1.21.11-.72-.07-1.02-.78-1.14-.88-.15-1.78-.21-2.67-.31-.16.39-.28.68-.41,1.01Zm8.88.82c.61.06,1.01.41,1.16.92.14.45.2.95.17,1.42-.21,3.06-.43,6.13-.69,9.18-.07.87.08,1.59.82,2.13.16.11.28.27.42.41.84.9.71.81.27,1.61-.02.03,0,.09,0,.19.87-.59,1.58-1.32,2.26-2.06.1-.11.11-.32.11-.48,0-.66,0-1.32-.05-1.97-.23-3.72-.48-7.44-.72-11.16-.06-.97-.18-1.11-1.17-1.18-.22-.01-.44-.01-.66,0-.58.06-1.16.13-1.74.21-.04,0-.08.05-.15.11,0,.16-.02.35-.04.66Zm-4.37-.28c1.07.67,1.25,1.03.98,2.25-.68,3.04-1.36,6.09-2.11,9.11-.3,1.2.02,2.01,1.33,2.84.36.23.74.42,1.14.65.73-.29,1.18-.82,1.26-1.66.06-.65.21-1.3.26-1.95.29-3.65.56-7.29.84-10.94.05-.72-.14-1.03-.86-1.08-.89-.06-1.79,0-2.68,0-.07.34-.12.57-.16.8Zm19.56,14.94c.05.02.1.03.15.05.36-.51.75-1.01,1.09-1.54,1.02-1.57,1.04-1.19.36-3.01-1.44-3.86-2.97-7.69-4.46-11.52-.22-.55-.26-.57-.87-.57-.19,0-.4-.01-.58.04-.81.25-1.61.52-2.4.77.01.29.04.52.39.52.96,0,1.44.64,1.73,1.43.23.61.35,1.27.5,1.91.64,2.68,1.28,5.36,1.9,8.04.15.67.51,1.15,1.12,1.45.13.07.26.13.39.21.67.41.91,1.01.73,1.79-.03.14-.03.28-.04.42Zm-6.75,1.09s.1.07.15.11c.6-.7,1.18-1.42,1.8-2.1.38-.42.5-.87.43-1.41-.03-.19-.05-.39-.09-.58-.53-2.33-1.06-4.66-1.58-6.99-.39-1.76-.74-3.53-1.11-5.3-.11-.54-.21-.65-.76-.71-.24-.03-.49-.03-.73,0-.72.11-1.43.25-2.18.39v.62c1.16.25,1.62,1.06,1.7,2.17.06.85.14,1.7.21,2.55.18,2.31.39,4.62.52,6.94.05.85.4,1.43,1.11,1.85.39.23.68.54.87.96.16.37.2.69-.08,1.02-.12.13-.17.32-.26.48Zm-46.28-57.42c-.09-.08-.11-.1-.13-.11-1.05-.12-2.03-.34-2.38-1.55-.09-.32-.4-.44-.72-.28-.43.21-.92.39-1.26.71-1.61,1.52-3.18,3.09-4.76,4.65-.08.08-.13.21-.23.36.8-.18.78-.15,1.51.29.29.18.68.27,1.03.26.67-.02,1.2.14,1.49.93,1.86-1.8,3.65-3.53,5.45-5.27Zm-5.16-1.7c-.1-.72-.19-1.32-.27-1.92-.04-.3-.16-.56-.48-.54-.69.06-1.44-.04-2.03.44-1.89,1.54-3.77,3.1-5.65,4.65-.12.1-.19.24-.24.3.48.14.93.28,1.38.41.19.05.37.13.56.15.8.07,1.53.26,1.91,1.14,1.65-1.59,3.24-3.13,4.81-4.64Zm5.9,2.06c-1.83,1.79-3.7,3.62-5.57,5.45.65-.05,1.11.18,1.52.61.16.16.43.29.65.3.78.03,1.1.52,1.33,1.15.04.1.09.19.16.32,1.75-2.58,3.46-5.11,5.19-7.66-1.11.44-2.16.15-3.29-.17Zm-8.95-6.39c-1.19-.02-2.3-.3-3.33.38-.49.32-1.01.58-1.52.88-1.52.92-3.04,1.84-4.56,2.77-.17.1-.3.25-.52.44.47.04.82,0,1.12.1,1.14.39,2.27.83,3.42,1.26,1.67-1.33,3.37-2.68,5.06-4.04.12-.1.24-.26.26-.41.05-.41.05-.82.08-1.38Zm-2.97-.62c.07-.53.13-.96.19-1.38.12-.74-.06-1-.81-1.17-.33-.08-.66-.19-1-.2-.33-.02-.7-.02-.99.11-2.37,1.09-4.72,2.2-7.07,3.32-.14.07-.26.18-.47.34.76.45,1.42.91,2.14,1.23.71.31,1.44.32,2.12-.24.46-.39,1.02-.67,1.54-.98.56-.34,1.13-.67,1.71-.99.73-.4,1.04-.33,1.58.29.04.05.11.08.19.14.32-.17.63-.34.87-.47Zm104.02,9.73c.52,0,.78-.18.86-.62.04-.23.17-.45.29-.67.27-.53.26-.67-.2-1.07-.2-.18-.42-.34-.65-.48-.43-.27-.88-.52-1.31-.8-1.58-1.01-3.16-2.03-4.73-3.05-.45-.29-.88-.32-1.2-.03-.68.62-1.47.93-2.38.97-.23.01-.46.06-.7.09q.09.5.68.8c.07-.06.14-.13.22-.17.08-.04.18-.07.27-.07.97-.04,1.89.08,2.7.7.93.71,1.89,1.39,2.82,2.09.73.54,1.47,1.03,2.39,1.2.56.1,1,.42.93,1.11Zm-107.2-12.88c.25-.14.62-.05.76-.45.14-.41.29-.82.44-1.23.09-.25.11-.52-.14-.65-.78-.43-1.58-.77-2.5-.46-1.08.37-2.17.72-3.25,1.09-1.52.52-3.04,1.04-4.56,1.57-.3.1-.61.2-.59.6.47.21.91.41,1.35.6.93.41,1.84.52,2.81.05,1.32-.63,2.67-1.18,4.02-1.74.8-.33,1.19-.17,1.66.61Zm107.89-1.8c.37.25.65.44.93.61.35.21.7.45,1.09.58,1.04.35,2.1.63,3.14.96,1.16.36,2.32.73,3.48,1.11.52.17,1,.4,1.07,1.06.29-.12.54-.22.78-.33.22-.1.32-.27.31-.52-.03-.49-.01-.98-.05-1.46-.05-.67-.17-.79-.82-.91-.43-.08-.87-.13-1.3-.22-2.11-.48-4.22-.98-6.33-1.48-.74-.18-1.47-.25-2.27-.17-.01.3-.03.56-.04.78Zm7.98,8.07c.07-.32.08-.57.17-.78.41-.99.13-1.62-.87-1.98-2.55-.92-5.09-1.83-7.62-2.79-.61-.23-1.2-.34-1.87-.28-.06.4-.12.77-.19,1.23.84.41,1.63.83,2.45,1.18,1.98.84,3.97,1.63,5.95,2.45.53.22,1,.49,1.08,1.16.32-.07.6-.13.9-.19Zm3.48-8.15c.41-.29.75-.52,1.08-.76.31-.22.43-.52.37-.89-.03-.17-.02-.34-.04-.51-.07-.85-.21-.98-1.08-1.03-.58-.03-1.17-.02-1.75-.1-1.86-.24-3.72-.53-5.58-.77-.6-.08-1.22-.12-1.82-.11-.53.01-.69.22-.76.76.26.12.57.18.77.37.72.68,1.62.83,2.54,1,1.75.32,3.49.68,5.24,1.04.5.1,1.02.24,1.03,1.01Zm-120.39-1.66c.14-.39.23-.75.4-1.06.17-.31.15-.57-.11-.78-.39-.32-.79-.66-1.24-.89-.25-.13-.61-.12-.9-.06-.91.18-1.8.42-2.7.63-1.65.4-3.31.81-4.96,1.22-.42.11-.75.33-.89.85.32.18.65.37.99.55.81.43,1.6.53,2.52.21,1.47-.51,2.99-.87,4.49-1.29.39-.11.79-.12,1.13.1.25.17.45.43.71.69.16-.05.39-.13.57-.18Zm113.67,12.96c.06-.42.04-.71.14-.97.23-.64.15-.93-.46-1.25-.15-.08-.31-.14-.47-.21-2.2-1.03-4.42-2.04-6.6-3.12-.72-.35-1.45-.52-2.24-.64-.11.55-.21,1.08-.31,1.6.24.08.59.12.88.28,1.62.9,3.23,1.81,4.83,2.74.71.41,1.44.72,2.25.79.62.06,1.08.28,1.08,1.03.37-.1.67-.19.9-.25Zm-14.14,8.77c.78,0,.82-.03,1.01-.64.05-.16.08-.34.18-.47.32-.39.18-.73-.07-1.06-.19-.25-.42-.48-.64-.7-1.33-1.29-2.66-2.58-4-3.87-.32-.31-.63-.62-.97-.89-.53-.43-1.1-.42-1.69-.07-.22.13-.48.23-.73.23-.44,0-.88-.07-1.44-.12.34.47.6.83.91,1.27.24-.37.5-.39.84-.32.76.14,1.26.62,1.72,1.16.79.93,1.56,1.87,2.33,2.83.44.54.95.98,1.57,1.29.2.1.39.2.58.32.48.3.52.41.39,1.05Zm-4.47-9.37c-.04.21-.08.34-.09.49-.05.49.17.65.67.55.18-.04.38-.02.57,0,.96.1,1.74.53,2.45,1.18,1.52,1.4,2.98,2.89,4.85,3.86.16.08.32.24.4.4.07.14.01.34.01.53.31-.01.65.15.79-.32.13-.46.31-.91.51-1.46-.12-.35-.48-.64-.85-.93-.71-.56-1.42-1.11-2.14-1.66-1.08-.84-2.15-1.68-3.24-2.51-.79-.59-1.61-.58-2.46-.09-.21.12-.5.13-.75.12-.21,0-.42-.1-.72-.18Zm17.11-16.73c.93.15,1.81.34,2.7.42.73.07,1.46-.01,2.19,0,.97.02,1.95.08,2.92.12.95.05,1.66.43,1.92,1.48.29-.27.52-.48.75-.7.1-.1.19-.22.3-.32.25-.26.29-.53.15-.87-.16-.38-.28-.78-.39-1.18-.26-.92-.52-1.1-1.48-.94-1.15.19-2.3.42-3.46.6-1.83.28-3.66.52-5.5.79-.04,0-.08.05-.15.09.01.12.02.26.05.51Zm-112.95-.75c-.63-.09-1.16-.22-1.68-.22-2.83-.03-5.66-.02-8.48-.03-.74,0-.75.02-.9.82.31.19.61.39.93.55.74.37,1.46.8,2.35.65.5-.08,1.01-.16,1.52-.21,1.24-.13,2.47-.25,3.71-.36.39-.04.86-.04,1.08.3.29.45.57.31.89.19.19-.55.37-1.07.58-1.69Zm95.91,28.6c.63.02.65,0,.87-.43.31-.62.2-1.17-.2-1.7-1.17-1.56-2.3-3.14-3.49-4.69-.43-.56-.98-1.04-1.51-1.6-.18.69-.35,1.31-.54,2.01.47-.11.69.09.87.43.52.99,1.13,1.94,1.58,2.96.37.86.81,1.58,1.71,1.96.44.18.73.54.72,1.07Zm-1.62,15.54c.71-.14.81-.69,1.09-1.11.5-.74.47-1.43.01-2.18-.98-1.6-1.92-3.22-2.89-4.83-.03-.05-.12-.07-.21-.12-.17.94-.7,1.8-.09,2.8.33.54.2,1.23,0,1.85-.26.78-.17.94.54,1.36.34.2.69.37.99.61.49.4.82.89.56,1.62Zm-76.16-15.72c.33-.1.66-.13.78-.55.32-1.1.64-2.19,1.01-3.27.35-1.01.72-2.02,1.14-3,.39-.92.42-.9-.17-1.66-.04-.05-.11-.08-.23-.17-.17.21-.35.4-.5.61-1.28,1.76-1.92,3.82-2.67,5.82-.16.42-.09.8.13,1.19.18.31.32.64.5,1.03Zm2.83,13.09c-.09-2.16-1.22-3.91-2.04-5.92-.3.66-.52,1.19-.78,1.71-.18.36-.19.67-.02,1.04.11.23.13.52.13.78,0,.39-.04.78-.09,1.16-.07.5.13.84.57,1.07.32.17.62.39.95.53.18.08.43.09.62.03.24-.08.45-.27.66-.39Zm-5.83-30.63c-.96.59-3.05,2.5-3.3,2.97.37.16.77.28,1.12.48.37.22.71.51,1.02.74.87-.85,1.87-1.83,2.83-2.78-.13-.26-.22-.52-.38-.73-.1-.13-.31-.28-.45-.26-.39.05-.66-.06-.84-.42Zm-9.51-1.25c.03.06.05.13.08.19.62-.22,1.14,0,1.68.25.24.11.52.15.76.27.35.17.66.12.95-.12.6-.49,1.24-.95,1.79-1.5.3-.29.52-.7.68-1.1.18-.43-.03-.72-.51-.72-.3,0-.64.06-.91.2-1.38.71-2.75,1.45-4.12,2.18-.15.08-.26.23-.39.35Zm3.36,2.29c.73.26,1.42.48,2.1.74.27.1.49.18.74-.04.67-.6,1.36-1.18,2.02-1.79.1-.09.12-.34.09-.5-.05-.22-.19-.42-.28-.63-.18-.47-.77-.72-1.18-.44-1.2.82-2.43,1.62-3.49,2.66Zm-7.23-7.86c.43.06.78.12,1.14.15.46.04.94.14,1.37.04,1.21-.28,2.39-.64,3.58-.99.62-.18.94-.67,1.3-1.26-.57-.03-1.03-.09-1.49-.05-.41.03-.8.18-1.21.27-1.45.31-2.89.68-4.26,1.25-.26.11-.59.19-.43.59Zm1.78,2.75c.56.14.93.27,1.31.33.38.05.82.16,1.14.02,1.18-.51,2.34-1.1,3.48-1.69.32-.16.6-.46.52-.88-.06-.3-.48-.41-1.04-.24-1.71.51-3.38,1.13-4.95,1.98-.16.09-.27.27-.48.49Zm88.3,9.04c.21.1.44.13.56.26.51.59.99,1.19,1.45,1.82.13.17.12.44.2.75.37.04.68-.21.85-.61.18-.42.42-.88.04-1.3-.49-.53-.98-1.09-1.56-1.52-.61-.45-1.2-.91-1.69-1.48-.11-.12-.24-.22-.45-.41.23.94.43,1.73.61,2.48Zm-70.99-2.2c-1.01,1.08-1.99,2.06-2.87,3.23.86.22,1.13.86,1.38,1.56.3-.17.55-.31.8-.45.23-1.43.46-2.83.7-4.34Z"/>
  <path class="cls-1" d="m138.1,17.23c6.22.04,11.98,1.02,17.47,3.35,5.09,2.16,9.53,5.23,13,9.6,2.33,2.93,3.96,6.2,4.62,9.91.63,3.56.2,7-1.14,10.34-1.69,4.23-4.48,7.64-7.99,10.49-4.54,3.68-9.74,5.99-15.41,7.28-4.51,1.03-9.08,1.33-13.68,1-6.39-.45-12.45-2.09-18.01-5.33-4.24-2.47-7.82-5.66-10.44-9.85-1.87-2.99-3.01-6.23-3.21-9.77-.19-3.36.56-6.55,2.03-9.56,2.11-4.32,5.29-7.7,9.19-10.44,4.53-3.17,9.56-5.13,14.97-6.18,3.13-.6,6.14-.81,8.6-.84Zm14.42,24.58c.21-.14.42-.25.61-.4.89-.68,1.83-1.31,2.66-2.05,3.11-2.8,2.86-7.43.88-10.15-1.41-1.93-3.3-3.23-5.43-4.22-3-1.4-6.19-2.06-9.47-2.33-3.77-.32-7.51-.1-11.21.72-3.85.84-7.48,2.21-10.73,4.48-.9.63-1.75,1.33-2.44,2.2-.67.85-.6,1.57.2,2.32.37.35.81.63,1.24.91.52.33.73.76.72,1.4-.02,5.74-.02,11.47,0,17.21,0,.66-.19,1.19-.64,1.64-.44.45-.9.9-1.31,1.38-.7.83-.68,1.25.09,2.01.86.85,1.86,1.5,2.91,2.08,4.73,2.64,9.86,3.9,15.22,4.35,2.81.24,5.61.2,8.41-.14,2.75-.34,5.43-.96,7.95-2.14,2.2-1.03,4.15-2.38,5.54-4.42,1.11-1.63,1.66-3.43,1.47-5.4-.3-3.11-1.67-5.68-4.08-7.67-.78-.65-1.68-1.16-2.58-1.78Z"/>
  <path class="cls-1" d="m138.95,43.71c1.33.1,2.64.21,3.91.61,2.67.84,4.35,2.6,4.95,5.36.36,1.64.38,3.29,0,4.94-.6,2.63-2.2,4.38-4.74,5.2-2.87.93-5.79.85-8.65-.04-2.52-.79-4.01-2.58-4.52-5.18-.3-1.53-.31-3.05-.04-4.58.57-3.23,2.54-5.13,5.69-5.83,1.11-.25,2.26-.32,3.4-.47Z"/>
  <path class="cls-1" d="m137.84,41.06c-.64-.09-1.74-.18-2.8-.42-2.68-.63-4.34-2.3-4.88-5.03-.28-1.38-.32-2.76-.04-4.14.59-2.85,2.41-4.56,5.15-5.31,2.19-.61,4.4-.55,6.58.07,2.66.75,4.21,2.52,4.66,5.25.25,1.53.22,3.06-.16,4.57-.59,2.3-2.05,3.76-4.3,4.47-1.22.39-2.48.48-4.21.55Z"/>
</svg>