<?xml version="1.0" encoding="UTF-8"?>
<svg id="Camada_1" data-name="Camada 1" xmlns="http://www.w3.org/2000/svg" viewBox="0 0 119.79 90.08">
  <defs>
    <style>
      .cls-1 {
        fill: #9c9c9c;
        stroke-width: 0px;
      }
    </style>
  </defs>
  <path class="cls-1" d="m35.67,57.98h-14.39c-.02-.41-.06-.79-.06-1.17,0-8.68.02-17.36-.02-26.05,0-1.04.2-1.42,1.34-1.4,3.91.08,7.82.03,11.73.03.42,0,.84,0,1.39,0v5.64h13.93V14.64H14.62v7.13H.08c-.02-.35-.06-.7-.06-1.05C.02,14.19.04,7.66,0,1.13,0,.22.29,0,1.17,0c30.57.02,61.13,0,91.7.03,12.41.01,23.54,9.8,25.27,22.06,1.09,7.77-.78,14.71-5.74,20.8-.11.14-.21.29-.3.42,1.04,1.35,2.13,2.63,3.06,4.02,11.02,16.47,1.37,38.95-18.16,42.29-1.69.29-3.42.42-5.14.42-30.17.03-60.34.01-90.51.04-1.01,0-1.35-.22-1.34-1.29.05-6.42.03-12.84.03-19.27,0-.39,0-.78,0-1.24h14.49c.02.32.05.66.05,1,0,1.76.03,3.52,0,5.27-.01.66.13.96.88.96,11.12-.02,22.24-.02,33.36,0,.63,0,.89-.17.89-.85-.02-7.21-.02-14.42,0-21.63,0-.61-.21-.81-.82-.81-4.13.02-8.25.02-12.38,0-.68,0-.85.27-.84.89.03,1.58.01,3.15.01,4.86Zm33.16,17.46c.28.03.45.06.63.07,7.82,0,15.63.03,23.45-.02,2.25-.02,4.38-.67,6.26-1.98,3.95-2.76,5.7-8.07,4.32-13.02-1.37-4.89-5.21-8.05-10.49-8.15-7.88-.16-15.77-.07-23.66-.07-.16,0-.33.09-.5.14v23.05Zm.02-40.36c8.09,0,16.04.09,24-.03,7.16-.1,10.85-6.54,9.47-12.69-1.1-4.88-4.82-7.78-9.95-7.8-7.56-.04-15.13-.01-22.69,0-.27,0-.55.05-.82.08v20.45Z"/>
</svg>