<?xml version="1.0" encoding="UTF-8"?>
<svg id="Camada_1" data-name="Camada 1" xmlns="http://www.w3.org/2000/svg" viewBox="0 0 300 66.36">
  <defs>
    <style>
      .cls-1 {
        fill: #9c9c9c;
        stroke-width: 0px;
      }
    </style>
  </defs>
  <path class="cls-1" d="m0,66.27C0,63.25,0,60.28,0,57.31c0-.11.03-.23.05-.4h9.52V9.45H.04V.05h273.52v9.39H24.22v18.66h4.68v-4.25h6.85v17.51h-6.83v-4.24h-4.68v19.76h9.52v9.4H0Z"/>
  <path class="cls-1" d="m193.8,32.31h-14.02c-.06-.08-.12-.13-.12-.18.04-2.6-.03-5.21.17-7.79.28-3.61,2.38-5.96,5.75-7.04,1.69-.54,3.51-.87,5.29-.91,5.66-.11,11.33-.11,17-.01,2.82.05,5.56.61,7.67,2.75,1.36,1.38,2.08,3.1,2.24,4.98.18,2.13.2,4.28.2,6.42.02,8.39,0,16.79,0,25.18v1.17h3.59v9.42c-.29.01-.58.04-.87.04-10.24,0-20.48.06-30.73-.03-4.93-.04-8.88-2.66-10.06-7.83-.17-.73-.28-1.48-.28-2.22-.03-3.82-.06-7.64.01-11.45.08-4.28,2.27-7.12,6.79-7.9,1.53-.26,3.11-.35,4.66-.37,3.91-.05,7.82-.02,11.73-.01.29,0,.59,0,.97,0,0-.68,0-1.28,0-1.88,0-2.94,0-5.88,0-8.82,0-1.76-.85-2.69-2.55-2.6-1.57.09-3.15.02-4.73.02-1.68,0-2.72,1.04-2.72,2.75,0,1.79,0,3.58,0,5.36,0,.3,0,.59,0,.94Zm9.96,9.67c-2.64,0-5.19-.03-7.73.01-1.18.02-1.9.66-2.07,1.84-.14.98-.17,1.98-.16,2.97.03,3.44.04,6.89.16,10.33.05,1.5,1.05,2.29,2.56,2.3,1.48,0,2.97,0,4.45,0h2.78v-17.45Z"/>
  <path class="cls-1" d="m81.99,45.22h-26.82c-.03.26-.08.46-.08.66,0,3.51-.04,7.03.01,10.54.03,1.69.46,2.43,1.7,2.86.27.1.58.15.87.15,2.57.01,5.15,0,7.72,0,1.56,0,2.42-.88,2.42-2.47,0-2.29,0-4.59,0-6.93h14.18c0,.28,0,.57,0,.86,0,1.88-.05,3.76,0,5.63.14,4.2-2.64,7.39-6.15,8.73-2.01.77-4.1,1.09-6.24,1.09-5.79,0-11.57.03-17.36-.02-2.29-.02-4.53-.45-6.53-1.67-2.77-1.68-4.34-4.17-4.63-7.4-.13-1.44-.18-2.89-.18-4.34-.02-8.66.02-17.33-.02-25.99-.02-5.38,2.89-8.59,7.66-9.97,1.42-.41,2.95-.57,4.44-.59,5.94-.06,11.87-.07,17.81,0,2.39.03,4.76.41,6.9,1.63,2.29,1.31,3.56,3.34,4.08,5.86.16.76.19,1.55.19,2.33.01,6,0,12,0,17.99,0,.32,0,.65,0,1.04Zm-14.18-5.64c0-4.83.02-9.58-.01-14.32,0-1.11-.97-2-2.03-2.01-2.78-.01-5.57-.02-8.35,0-.96,0-1.79.64-2.05,1.58-.16.57-.27,1.18-.28,1.77-.02,4.02-.01,8.05,0,12.07,0,.29.03.58.04.9h12.69Z"/>
  <path class="cls-1" d="m128.54,43.57h-14.36c0-.33,0-.65,0-.97,0-5.03.01-10.06-.02-15.09,0-.56-.28-1.12-.42-1.68-.61.17-1.33.2-1.82.54-2.63,1.83-4.61,4.3-6.4,6.92-.17.25-.25.62-.25.93-.01,7.42,0,14.85,0,22.27,0,.09.02.18.04.37h4.44v9.4h-22.97v-9.35h4.62V24.57h-4.62v-8.17h18.46v7.13c2.5-2.6,5.29-4.41,8.36-5.78,3.04-1.36,6.18-1.92,9.42-.85,3,.99,4.9,3.02,5.32,6.24.11.83.18,1.68.18,2.51.02,5.64,0,11.27,0,16.91,0,.32,0,.65,0,1.02Z"/>
  <path class="cls-1" d="m156.29,66.3h-22.97v-9.37h4.62V24.55h-4.61v-8.15h18.45v7.13c2.51-2.59,5.29-4.41,8.36-5.78,3.07-1.37,6.25-1.95,9.51-.84,2.94,1,4.84,3.02,5.25,6.21.11.86.18,1.74.18,2.6.02,5.61,0,11.21,0,16.82v1.02h-14.36c0-.31,0-.63,0-.95,0-5.03.01-10.06-.02-15.09,0-.56-.27-1.13-.41-1.69-.64.19-1.37.23-1.89.58-2.61,1.82-4.55,4.27-6.33,6.86-.16.23-.25.56-.25.84-.01,7.54-.01,15.09-.01,22.73h4.49v9.44Z"/>
  <path class="cls-1" d="m244.96,56.92h4.43v9.36h-22.96v-9.34h4.58V24.55h-4.61v-8.13h18.45v6.94c1.34-1.07,2.54-2.18,3.88-3.09,3.31-2.24,6.82-4.06,10.96-3.9,3.49.14,6.36,1.48,7.81,4.89.38.89.63,1.9.64,2.86.05,6.36.03,12.73.02,19.09,0,.09-.02.18-.04.33h-14.31c0-.32,0-.65,0-.97,0-5.03.01-10.06-.02-15.09,0-.56-.29-1.11-.45-1.67-.61.18-1.32.22-1.81.56-2.64,1.83-4.6,4.31-6.39,6.93-.16.23-.23.56-.23.85-.01,7.45,0,14.91,0,22.36,0,.09.03.17.06.39Z"/>
  <path class="cls-1" d="m295.14,56.89h4.4v9.4h-23.3v-9.37h4.6V24.56h-4.62v-8.17h23.33v8.12h-4.42v32.38Z"/>
  <path class="cls-1" d="m288.34,9.84c-3.55-.13-6.56-.39-9.37-1.7-.67-.32-1.34-.7-1.9-1.19-1.71-1.47-1.29-3.13.26-4.33,1.75-1.34,3.83-1.95,5.96-2.25,1.87-.26,3.79-.44,5.67-.36,3.3.15,6.59.53,9.43,2.47,2.15,1.46,2.13,3.45-.02,4.93-1.74,1.2-3.75,1.68-5.79,2-1.57.25-3.17.32-4.25.43Z"/>
</svg>