<?xml version="1.0" encoding="UTF-8"?>
<svg id="Camada_1" data-name="Camada 1" xmlns="http://www.w3.org/2000/svg" viewBox="0 0 299.59 70.56">
  <defs>
    <style>
      .cls-1 {
        fill: #9c9c9c;
        stroke-width: 0px;
      }
    </style>
  </defs>
  <path class="cls-1" d="m265.95,32.74c-.23.91-.39,1.53-.59,2.29.34-.03.57,0,.75-.08,1.92-.83,3.77-1.96,5.78-2.41,1.28-.29,3.2-.02,4.05.81.65.63.44,2.69-.04,3.83-1.54,3.63-3.38,7.12-5.1,10.67-.39.81-.76,1.62-.87,2.73,3.27-1.71,7.39-1.79,9.23-5.86,1.45-3.21,3.3-6.23,4.77-9.43.89-1.94,2.03-2.88,4.23-2.65,1.71.18,3.45.04,5.64.04-3.08,6-5.93,11.56-8.78,17.11.17.21.34.41.51.62,2.6-1.78,5.2-3.57,8.23-5.65.43.52.94,1.12,1.84,2.21-4.33,2.88-8.31,5.81-12.56,8.26-3.42,1.97-5.14.9-6.05-3.06-.07-.31-.18-.61-.37-1.23-1.67.87-3.19,1.7-4.75,2.44-1.81.86-3.61,1.85-5.52,2.39-3.15.9-5.07-.72-4.53-3.94.33-2.01,1.3-3.95,2.17-5.83,1.1-2.39,2.39-4.69,3.83-7.47-3.53.49-5.58,2.03-6.91,4.51-1.71,3.18-3.41,6.36-4.92,9.64-1.01,2.21-2.41,3.23-4.88,2.84-1.28-.2-2.61-.04-4.43-.04,1.12-2.48,2.02-4.47,2.91-6.46-.11-.1-.22-.2-.33-.29-1.55,1.2-3.04,2.51-4.68,3.58-1.88,1.23-3.81,2.49-5.89,3.31-3.25,1.28-4.83.32-5.85-3.01-.12-.39-.22-.78-.39-1.34-2.73,1.37-5.31,2.73-7.95,3.98-1.79.84-3.8,1.49-5.36-.24-1.52-1.68-.8-3.63.07-5.42,1.54-3.17,3.14-6.31,4.69-9.48.39-.79.67-1.62.73-2.69-3.02.96-5.61,2.44-7.17,5.24-1.47,2.64-2.8,5.35-4.16,8.05q-2.67,5.3-9.14,4.42c1.96-4.08,3.87-8.05,5.78-12.01l-.77-.49c-3.61,3.03-8.1,4.98-10.25,9.78-1.98,4.43-4.3,8.74-6.8,12.91-4.06,6.8-11.66,6.93-15.67.41-.42-.68-.49-1.58-.73-2.38.18-.13.36-.27.55-.4.76.41,1.55.77,2.27,1.24,3.62,2.35,6.07,1.73,7.89-2.14,1.1-2.33,2.05-4.73,3.32-7.69-5.47,1.92-8.41-.2-9.8-5.36-1.25.86-2.22,1.59-3.25,2.21-2.42,1.47-4.75,3.21-7.35,4.24-3.36,1.32-6.43-1.02-6.66-4.63-.23-3.69,1.74-6.37,4.11-8.85,1.02-1.06,2.13-2.05,3.24-3.11-3.34-2.2-7.46-.78-8.79,2.8-1.47,3.97-3.26,7.71-6.33,10.74-2.52,2.49-5.54,3.37-8.96,3.06-3.92-.36-6.54-4.14-6.23-8.92.06-.88.18-1.75.26-2.58-2.28,2.75-4.33,5.6-6.77,8.08-2.47,2.51-5.59,3.92-9.26,3.85-4.02-.08-7.18-1.17-7.37-6.42-1.33.86-2.17,1.49-3.09,1.97-2.73,1.42-5.39,3.12-8.29,4.02-1.33.41-3.7-.33-4.6-1.4-.78-.93-.61-3.21-.07-4.6,1.31-3.41,3.06-6.65,4.93-10.57-3.68.99-6.35,2.25-7.93,5.19-1.47,2.73-2.97,5.46-4.31,8.25-.94,1.96-2.19,3.01-4.49,2.7-1.37-.19-2.79-.03-4.77-.03,2.75-5.56,5.28-10.68,8.05-16.26-3.88,1.03-6.24,3.03-7.8,6.06-1.31,2.54-2.65,5.06-3.84,7.65-.88,1.92-2.1,2.84-4.28,2.55-1.39-.18-2.83-.03-4.91-.03,1.26-2.61,2.34-4.85,3.42-7.08-.14-.13-.28-.25-.43-.38-1.62,1.23-3.23,2.48-4.85,3.7-1.47,1.11-2.91,2.29-4.44,3.31-3.56,2.37-5.61,1.65-6.81-2.09-2.36,1.07-4.64,2.53-7.13,3.13-3.37.82-4.42-2.29-5.94-4.78-1.29,1.04-2.42,1.97-3.58,2.88-3.29,2.57-5.75,2.68-9.17.46-.56-.37-1.17-.68-1.68-1.11-1.67-1.45-3.08-1.36-5.13-.24-5.53,3.04-11.55,4.44-17.93,3.76-.33-.04-.67-.05-1-.13-2.89-.7-5.69-1.92-6.42-4.99-.68-2.87,1.6-4.82,3.6-6.47,5.11-4.22,11.15-4.77,17.38-3.81,4.67.72,4.66.91,6.84-3.37,4.15-8.15,8.25-16.33,12.41-24.47C45.74,2.73,58.41-1.5,67.86.47c6.05,1.26,9.47,5.18,9.12,9.98-.4,5.51-5.42,10.72-10.91,11.2-3.51.31-6.84-.17-9.99-3.07,1.3-.39,2.35-.54,3.23-1.01,2.12-1.13,4.38-2.16,6.19-3.7,2.19-1.87,2.4-5.34.95-7.64-1.26-2.01-3.8-2.69-6.75-1.76-2.97.93-5.53,2.43-7.04,5.3-2.97,5.64-5.94,11.28-8.9,16.92-3.16,6.02-6.32,12.04-9.46,18.06-.71,1.36-1.87,2.68-.15,4.23,1.67,1.51,3.45,2.59,5.66,1.5,3.07-1.51,5.51-3.78,7.05-6.9,2.12-4.31,4.92-8.02,9.29-10.26,3.44-1.77,6.86-2.21,10.15.76,2.19-3.86,5.57-1.51,9.03-2.2-2.87,5.64-5.45,10.71-8.03,15.78.23.17.46.34.69.5,4.15-3.96,9.92-5.97,12.63-11.71,2.49-5.27,3.3-5.47,9.6-4.18-.18.93-.36,1.86-.64,3.33,1.61-1,2.91-1.77,4.18-2.59,3.84-2.46,6.11-1.7,7.82,2.97,1.89-1.09,3.7-2.19,5.57-3.18.86-.46,1.82-.92,2.76-1.01,3.76-.33,5.57,2.06,4.07,5.56-1.42,3.31-3.15,6.49-4.75,9.72-.39.79-.77,1.6-.94,2.56,4.98-2.67,10.18-4.63,12.77-10.51,3.24-7.36,7.37-14.32,10.93-21.54,1.01-2.04,2.21-2.93,4.46-2.67,1.53.18,3.1.03,5.24.03-2.9,5.86-5.51,11.16-8.12,16.44,2.24.36,4.77.08,6.25,1.2,1.38,1.05,1.64,3.58,2.55,5.86.43-.34,1.01-.87,1.65-1.3,2.54-1.72,4.91-3.85,7.68-5,4.37-1.8,7.01-.51,9.83,3.82.16-.02.39.01.48-.08,3.03-3.35,6.85-4.07,11.17-3.65,2.82.27,5.69.05,8.74.05-.46,2.75-1,5.04-3.71,6.45-2.12,1.1-3.99,2.76-5.85,4.3-.74.62-1.47,1.55-1.67,2.45-.28,1.29-.05,2.68-.05,4.03,1.24-.14,2.7.09,3.68-.49,3.4-1.99,6.49-4.28,8.3-8.1,1.63-3.44,4.09-6.38,7.65-8.08,3.01-1.44,6.09-1.7,9.2-.22.39.19.88.25,1.32.22,2.61-.19,5.22-.42,8.49-.69-1.71,3.38-3.08,6.08-4.45,8.78.17.14.34.29.51.43,3.21-2.97,7.58-4.49,9.71-8.84,2.47-5.05,5.28-9.93,7.78-14.96.86-1.73,1.82-2.6,3.83-2.36,1.55.19,3.14.04,5.4.04-3.1,6.08-5.96,11.69-9.1,17.83,1.43-.45,2.35-.75,3.27-1.02,2.15-.63,4.22-.55,5.8,1.23,1.56,1.76.8,3.58-.14,5.37-1.52,2.9-3,5.82-4.48,8.74-.32.62-.56,1.29-.59,2.18,3.35-1.4,6.99-2.29,8.95-5.67,1.8-3.12,3.41-6.36,4.99-9.61.68-1.41,1.51-1.96,3.12-1.78,1.82.21,3.67.05,6.14.05-3.07,5.99-5.9,11.52-8.73,17.04.33.17.55.35.61.3,5.34-3.9,11.78-6.71,14.31-13.5,1.27-3.42,3.45-4.59,6.89-3.91.81.16,1.65.14,2.81.24Zm-203.92,2.03c-.5.31-1.84.67-2.37,1.52-2.1,3.4-3.99,6.93-5.83,10.49-.32.61-.26,2.04.09,2.23.65.36,1.83.39,2.47,0,4.5-2.69,6.68-7.09,8.18-11.87.43-1.37-.16-2.5-2.54-2.38Zm135.48,3.02c.08-2.03-.94-2.77-2.34-2.35-1,.3-2.08,1.16-2.59,2.07-1.73,3.05-3.27,6.21-4.78,9.38-.56,1.17-2.06,2.76-.26,3.62.91.43,2.63-.75,3.93-1.33.39-.18.63-.76.87-1.2,1.48-2.72,2.96-5.43,4.39-8.17.38-.73.6-1.54.78-2.02Zm-41.27-.77c-.4-.47-.9-1.48-1.28-1.43-.89.11-2.14.49-2.52,1.16-2.18,3.85-4.19,7.81-6.13,11.79-.29.6.07,1.53.13,2.31.8-.07,1.72.09,2.36-.26.67-.37,1.19-1.17,1.57-1.88,1.74-3.24,3.41-6.52,5.1-9.79.26-.51.44-1.07.77-1.89Zm-31.6,14.22c.32.04.64.09.95.13.9-.9,2.05-1.66,2.64-2.72,1.86-3.36,3.59-6.8,5.19-10.3.35-.77-.04-1.89-.1-2.84-.95.34-2.41.39-2.78,1.05-2.31,4.16-4.43,8.43-6.48,12.72-.22.45.37,1.29.58,1.96Zm-104.48-5.35c-2.27-.32-4.24-.77-6.22-.84-2.81-.09-5.55.46-7.53,2.69-.34.39-.25,1.85.08,2.04,3.34,1.87,11.23-.25,13.66-3.9Z"/>
  <path class="cls-1" d="m250.7,25.85c-2.75-.03-5.02-2.32-4.94-4.99.08-2.59,2.35-4.69,5.01-4.64,2.75.06,4.95,2.15,4.94,4.7-.01,2.72-2.27,4.94-5.01,4.92Z"/>
  <path class="cls-1" d="m294.43,25.81c-2.83-.19-4.66-2.38-4.45-5.3.19-2.55,2.36-4.42,4.97-4.29,2.74.14,4.79,2.46,4.63,5.25-.16,2.66-2.36,4.51-5.15,4.33Z"/>
</svg>