<?xml version="1.0" encoding="UTF-8"?>
<svg id="Camada_1" data-name="Camada 1" xmlns="http://www.w3.org/2000/svg" viewBox="0 0 300 44.69">
  <defs>
    <style>
      .cls-1 {
        fill: #9c9c9c;
        stroke-width: 0px;
      }
    </style>
  </defs>
  <path class="cls-1" d="m56.19,32.81c-.93.84-1.87,1.69-2.8,2.53-3.21,2.92-6.43,5.83-9.63,8.76-.43.39-.86.59-1.46.58-3.54-.03-7.09-.01-10.63-.01h-1.01c-.02-2.05,0-4.01-.01-5.98,0-1.94,0-3.88,0-6.01-.36.27-.6.43-.83.6-4.58,3.59-9.16,7.18-13.73,10.8-.53.42-1.04.6-1.72.6-4.48-.03-8.96-.01-13.44-.01-.29,0-.58,0-.87,0-.02-.06-.04-.12-.06-.18.24-.19.48-.4.73-.58,8.2-6.18,16.4-12.37,24.61-18.55,1.16-.88,2.33-1.74,3.51-2.6,1.83-1.34,3.88-2.06,6.14-2.1,2.97-.05,5.93-.02,8.9-.02.13,0,.26.04.48.08v11.83c.33-.23.52-.36.69-.5,3.03-2.58,6.08-5.14,9.09-7.76,2.84-2.48,6.11-3.71,9.88-3.66,1.7.02,3.41,0,5.11,0,.27,0,.55,0,.76,0,.07.07.1.08.11.1.02.02.05.04.05.06.02.24.05.49.05.73,0,7.6,0,15.21-.02,22.81,0,.08-.05.15-.1.28h-13.59c-.05-1.99-.02-3.95-.02-5.92,0-1.94,0-3.88,0-5.82-.06-.02-.13-.05-.19-.07Z"/>
  <path class="cls-1" d="m270.69,33.84c.15-.22.3-.43.45-.65,1.6-2.21,3.12-4.46,4.11-7.01.42-1.09.76-2.24.93-3.4.45-3-.77-5.31-3.45-6.75-1.92-1.03-4.01-1.47-6.15-1.69-3.76-.39-7.51-.18-11.26.28-4.4.54-8.72,1.44-12.96,2.7-1.13.33-2.23.72-3.41,1,.23-.16.46-.32.69-.47,6.25-3.9,12.78-7.28,19.59-10.12,6.37-2.65,12.89-4.85,19.65-6.31,3.42-.74,6.87-1.23,10.35-1.39,2.12-.1,4.23.07,6.28.65.84.23,1.65.6,2.41,1.03,1.5.85,2.4,2.78,1.97,4.6-.34,1.47-.94,2.8-1.73,4.07-1.64,2.63-3.74,4.87-5.95,7.02-3.66,3.57-7.64,6.78-11.76,9.8-2.94,2.16-5.96,4.22-8.94,6.32-.22.16-.46.3-.68.45-.04-.04-.09-.08-.13-.11Z"/>
  <path class="cls-1" d="m155.83,30.93c.02-.32.06-.54.04-.75-.03-.69-.19-.87-.88-.95-.43-.05-.88-.05-1.32-.05-6.35,0-12.69,0-19.04,0-.33,0-.65,0-1.03,0v-6.77c.25-.02.49-.06.72-.06,7.94,0,15.88,0,23.82,0,2.01,0,4,.19,5.92.86,2.14.74,3.88,1.99,4.76,4.13.36.87.65,1.84.68,2.78.07,2.6,0,5.21-.04,7.82,0,.43-.12.87-.24,1.29-.52,1.92-1.71,3.28-3.52,4.11-1.49.68-3.08,1-4.71,1.11-1.81.12-3.62.21-5.43.22-3.74.03-7.47.03-11.21,0-2.31-.01-4.62-.08-6.89-.5-.7-.13-1.39-.33-2.07-.53-2.14-.65-3.24-2.2-3.48-4.34-.11-1.02-.06-2.09.09-3.11.3-1.99,1.46-3.39,3.26-4.27,1.25-.61,2.6-.91,3.98-.94,2.17-.05,4.34-.04,6.51-.04,3.02,0,6.04,0,9.07,0h1Zm.03,5.18c-.22-.02-.33-.05-.43-.05-2.91,0-5.81,0-8.72,0-.14,0-.28,0-.41.03-.41.09-.69.41-.71.8-.01.42.28.78.73.85.21.04.44.03.66.03,2.5,0,4.99,0,7.49,0,.19,0,.39,0,.58-.02.48-.06.74-.3.81-.78.04-.26,0-.53,0-.86Z"/>
  <path class="cls-1" d="m227.86,37.76v6.91h-.93c-7.34,0-14.67,0-22.01,0-1.87,0-3.74-.15-5.54-.69-2.16-.65-3.93-1.82-4.94-3.93-.47-.98-.75-2.01-.77-3.09-.03-2.03-.08-4.06,0-6.09.18-4.26,2.41-6.97,6.57-7.94,1.33-.31,2.71-.51,4.07-.52,5.55-.05,11.1-.04,16.65.05,1.38.02,2.77.38,4.14.64.5.09.99.32,1.46.54,1.69.8,2.77,2.09,2.94,3.97.1,1.08.11,2.2-.01,3.27-.21,1.82-1.27,3.12-2.86,3.98-1.63.89-3.42,1.18-5.25,1.19-4.92.02-9.84.01-14.76.01-.3,0-.6,0-.98,0,0,.66.25,1.12.8,1.33.43.17.89.28,1.35.32.65.06,1.32.05,1.98.05,5.69,0,11.38,0,17.07,0h1.02Zm-22.25-6.89c.26.02.41.05.57.05,3.4,0,6.8,0,10.2,0,.19,0,.39-.01.57-.06.39-.09.61-.35.65-.75.04-.4-.2-.75-.62-.86-.23-.06-.49-.07-.73-.07-3.1,0-6.2,0-9.3,0-.16,0-.33-.01-.49.01-.51.07-.79.35-.85.85-.03.24,0,.49,0,.82Z"/>
  <path class="cls-1" d="m231.46,22.39c.2-.01.42-.04.63-.04,7.03,0,14.06,0,21.1.03,2.09,0,4.17.17,6.21.69.37.09.74.21,1.1.33,2.87.95,4.48,2.96,4.92,5.91.13.89.2,1.8.21,2.7.02,3.95.01,7.9.01,11.86,0,.22-.02.43-.03.64-.59.2-10.66.27-11.93.08-.01-.27-.04-.57-.04-.86,0-2.55.02-5.11-.01-7.66-.03-2.21-1.1-3.81-3.12-4.73-.49-.22-1.05-.36-1.59-.38-1.73-.05-3.46-.03-5.19-.03-.1,0-.2.04-.4.09v13.6h-11.84c-.2-.6-.23-21.35-.04-22.23Z"/>
  <path class="cls-1" d="m104.42,44.67c-.43,0-.73,0-1.03,0-6.21,0-12.42.01-18.62,0-2.2,0-4.39-.12-6.54-.66-3.98-1.01-5.97-3.23-6.31-7.31-.14-1.66-.11-3.36.09-5.01.36-3.09,2.1-5.24,4.96-6.46,1.82-.78,3.74-1.11,5.7-1.14,3.41-.05,6.81-.03,10.22-.03,3.52,0,7.03,0,10.55,0h.94v6.82c-.32.01-.64.04-.96.04-5.27,0-10.55,0-15.82,0-.33,0-.67-.02-.99.03-.37.06-.77.14-1.1.32-1.68.91-1.87,2.35-1.58,4.12.23,1.38,1.49,2.33,2.99,2.35,1.57.03,3.13.01,4.7.01,3.93,0,7.86,0,11.78,0h1.01c.02,2.3.01,4.53,0,6.91Z"/>
  <path class="cls-1" d="m106.19,20.68h13.61c.09,1.91.03,3.79.04,5.67.01,1.87,0,3.73,0,5.6v5.78c.88.07,1.73.03,2.56.04.85,0,1.7,0,2.55,0h5c.22.6.27,5.92.06,6.86h-23.75c-.18-.6-.26-22.25-.08-23.94Z"/>
  <path class="cls-1" d="m191.86,22.4v6.75h-8.52c0,1.08-.02,2.09-.02,3.09,0,1.02,0,2.03,0,3.05v9.31c-.82.15-1.61.06-2.39.07-.8.02-1.59,0-2.39,0h-7.17c-.03-.27-.06-.43-.06-.59,0-5.9-.01-11.81,0-17.71,0-1.88,1.09-3.34,2.79-3.85.39-.12.81-.17,1.22-.17,5.28,0,10.55,0,15.83,0,.21,0,.43.03.72.05Z"/>
</svg>