<?xml version="1.0" encoding="UTF-8"?>
<svg id="Camada_1" data-name="Camada 1" xmlns="http://www.w3.org/2000/svg" viewBox="0 0 300 20.68">
  <defs>
    <style>
      .cls-1 {
        fill: #9c9c9c;
        stroke-width: 0px;
      }
    </style>
  </defs>
  <path class="cls-1" d="m300,8.32v3.91h-35.01v4.41h34.97v3.85h-39.62V.13h39.62v3.68h-34.98v4.51h35.02Z"/>
  <path class="cls-1" d="m132.38,20.62v-3.92c.67,0,1.24,0,1.81,0,9.92,0,19.84,0,29.76-.02.61,0,1.71-.27,1.74-.52.14-1.18.06-2.41-.13-3.58-.03-.19-1.05-.3-1.61-.3-8.84-.02-17.69-.01-26.53-.01-4.22,0-5.87-1.63-5.86-5.83,0-.97,0-1.97.18-2.91.38-1.96,2.18-3.49,4.17-3.5,11.04-.03,22.09-.01,33.13,0,.19,0,.37.06.65.11v3.61c-.6.03-1.17.07-1.73.07-9.87,0-19.74,0-29.61,0-2.14,0-2.15.01-2.16,2.09q0,2.47,2.48,2.47c8.85,0,17.69,0,26.54,0,3.44,0,5.1,1.79,5.28,5.22.27,5.17-1.42,7.2-7.01,7.08-9.77-.21-19.55-.06-29.32-.06-.57,0-1.15,0-1.77,0Z"/>
  <path class="cls-1" d="m87.52,0c.66,0,1.19,0,1.71,0,10.6,0,21.2,0,31.81,0,3.23,0,4.94,1.45,5.27,4.62.14,1.35.09,2.73.02,4.09-.13,2.51-1.44,4.17-4.05,4.97,2.36,1.75,4.01,3.74,3.9,6.82h-4.35c-.25-.98-.34-1.99-.75-2.83-.77-1.57-2.17-2.41-3.91-2.41-8.16-.03-16.32-.01-24.48,0-.18,0-.37.09-.71.18,0,1.36-.03,2.72.01,4.07.03.81-.25,1.15-1.09,1.12-1.11-.05-2.22-.01-3.39-.01V0Zm4.57,4.71v5.89c.66,0,1.24,0,1.81,0,7.92,0,15.83,0,23.75,0q4.13,0,4.1-4.08c-.01-1.85-.03-1.88-1.9-1.88-8.75,0-17.49,0-26.24,0-.48,0-.95.04-1.52.07Z"/>
  <path class="cls-1" d="m63.05,20.62c-4.64,0-9.28,0-13.92,0-3.23,0-5.08-1.86-5.09-5.08,0-3.56-.01-7.13,0-10.69.01-2.95,1.9-4.84,4.85-4.85,9.47-.01,18.95-.01,28.42,0,2.87,0,4.77,1.89,4.8,4.76.03,3.61.02,7.22,0,10.83-.01,3.15-1.87,5.01-5,5.01-4.69.01-9.38,0-14.07,0Zm.02-15.98c-4.34,0-8.69.02-13.03-.02-1.07,0-1.49.37-1.47,1.45.04,2.83.04,5.66,0,8.49-.02,1.09.43,1.45,1.49,1.45,8.69-.02,17.38-.02,26.06,0,1.07,0,1.49-.39,1.48-1.46-.04-2.78-.05-5.56,0-8.34.03-1.23-.45-1.6-1.64-1.58-4.29.05-8.59.02-12.89.02Z"/>
  <path class="cls-1" d="m0,0h1.72c10.6,0,21.2,0,31.79,0,3.44,0,5.18,1.77,5.19,5.25,0,1.71,0,3.42,0,5.12-.02,2.99-1.84,4.85-4.84,4.86-9.18.02-18.36,0-27.55,0-.57,0-1.14,0-1.85,0v5.24H0V0Zm4.52,10.6h1.81c7.91,0,15.82,0,23.74,0,4.16,0,4.12,0,4.13-4.22,0-1.33-.41-1.77-1.77-1.77-8.84.05-17.68.03-26.52.03-.46,0-.93.06-1.38.09v5.86Z"/>
  <path class="cls-1" d="m212.95,15.99v4.53c-.49.03-.96.09-1.42.09-10.26,0-20.52,0-30.79,0-3.07,0-4.97-1.85-5-4.89-.03-3.66-.03-7.32,0-10.99.03-2.75,1.9-4.72,4.54-4.73,10.6-.03,21.21-.01,31.81,0,.24,0,.47.04.81.07v4.57c-.59,0-1.16,0-1.72,0-9.68,0-19.35.02-29.03-.03-1.38,0-1.91.35-1.86,1.8.1,2.58.1,5.18,0,7.76-.05,1.4.4,1.85,1.82,1.84,9.63-.05,19.25-.03,28.88-.03.58,0,1.17,0,1.94,0Z"/>
  <path class="cls-1" d="m254.87,20.52h-4.39v-8.14h-27.5v8.23c-1.41,0-2.66.04-3.91-.03-.24-.01-.65-.47-.65-.72-.04-6.53-.03-13.07-.03-19.73h4.49v8.16c.68.04,1.15.08,1.63.08,8.11,0,16.22-.03,24.33.03,1.3,0,1.7-.35,1.64-1.64-.1-2.18-.03-4.37-.03-6.66h4.42v20.42Z"/>
</svg>