<?xml version="1.0" encoding="UTF-8"?>
<svg id="Camada_1" data-name="Camada 1" xmlns="http://www.w3.org/2000/svg" viewBox="0 0 68.35 90">
  <defs>
    <style>
      .cls-1 {
        fill: #9c9c9c;
        stroke-width: 0px;
      }
    </style>
  </defs>
  <path class="cls-1" d="m33.08,45.1c-1.03.36-2.01.73-3.01,1.05-2.74.89-5.54,1.54-8.39,2-2.13.34-4.26.64-6.4.91-1.36.17-2.74.26-4.11.38-.22.02-.45.05-.7.07,0,.14-.02.27-.02.39,0,8.72,0,17.44,0,26.17,0,1.02.08,2.04.33,3.04.03.14.07.28.11.41.34,1.06.87,1.97,1.88,2.54v.45H.02c0-.14-.01-.29-.02-.44,1.33-.77,1.85-2.02,2.1-3.41.15-.85.23-1.72.23-2.58.01-23.2.01-46.4,0-69.61,0-1.21-.1-2.41-.48-3.57C1.53,1.89.99,1.03.02.48.01.42,0,.35,0,.28,0,.21,0,.14.02.02.18.01.35,0,.51,0c2.89,0,5.79,0,8.68,0,6.4,0,12.8,0,19.2,0,2.66,0,5.3.24,7.88.89,5.52,1.39,9.55,4.68,12.29,9.62,1.43,2.58,2.24,5.36,2.43,8.3.44,6.73-1.63,12.62-6.02,17.71-1.98,2.29-4.3,4.19-6.84,5.84-.12.08-.23.15-.37.25.23.36.44.69.65,1.02,3.77,5.96,6.79,12.26,8.94,18.99,1.16,3.64,2.05,7.34,2.77,11.08.33,1.72.63,3.46.95,5.18.06.35.15.69.26,1.03.26.81.74,1.46,1.46,1.93.25.16.36.35.25.66h-16.44c-.06-.27-.05-.45.23-.6,2.41-1.32,3.78-3.39,4.36-6.04.39-1.78.4-3.57.29-5.38-.31-5.1-1.62-9.97-3.39-14.73-1.3-3.49-2.86-6.85-4.67-10.1-.1-.18-.21-.36-.33-.56Zm-22.6-.92c.17,0,.33,0,.48,0,.69-.03,1.39-.04,2.08-.09,3-.18,5.93-.7,8.81-1.54,3.48-1.02,6.75-2.47,9.71-4.59,3.69-2.64,6.47-6.02,8.05-10.29,1.54-4.17,1.91-8.46,1.2-12.85-.27-1.65-.79-3.22-1.63-4.67-1.85-3.21-4.71-4.85-8.31-5.28-.83-.1-1.67-.12-2.5-.12-5.79-.01-11.57,0-17.36,0-.18,0-.36.02-.54.03v39.42Z"/>
  <path class="cls-1" d="m48.76,53.34c-1.08.39-2.12.76-3.15,1.13-.9-1.86-1.78-3.69-2.69-5.55.15-.08.31-.17.49-.26,2.03-1.01,3.92-2.21,5.64-3.7,3.9-3.37,6.31-7.59,7.22-12.67.42-2.34.54-4.7.31-7.07-.22-2.26-.78-4.43-1.97-6.4-.66-1.09-1.49-2.04-2.51-2.8-.18-.14-.29-.28-.34-.51-.44-1.99-1.16-3.88-2.13-5.67-.03-.06-.05-.13-.08-.19,0-.01,0-.03.02-.08.26.04.52.08.78.12,2.17.41,4.27,1.06,6.2,2.15,3.35,1.9,5.86,4.62,7.62,8.03,1.23,2.38,1.96,4.92,2.15,7.6.45,6.48-1.47,12.19-5.62,17.16-1.94,2.32-4.24,4.25-6.77,5.9-.18.12-.35.23-.56.36.26.42.51.81.76,1.2,3.69,5.86,6.64,12.06,8.72,18.67,1.09,3.45,1.94,6.96,2.62,10.51.33,1.72.63,3.46.95,5.18.05.28.12.55.2.83.24.85.7,1.54,1.44,2.04.34.23.33.24.28.68h-16.13v-.43c.34-.21.67-.4.99-.61,1.69-1.15,2.76-2.74,3.33-4.68.42-1.43.54-2.89.54-4.37-.01-3.04-.46-6.01-1.17-8.96-1.25-5.21-3.2-10.15-5.64-14.91-.42-.82-.88-1.62-1.32-2.43-.05-.09-.1-.16-.17-.26Z"/>
  <path class="cls-1" d="m18.64,49.95c2.69-.5,5.32-.99,7.98-1.48v3.96c2.83.02,5.57-.31,8.29-.87.35.47,1.92,4.29,2.01,4.89-3.39.58-6.81.94-10.27,1.2-.01.15-.03.27-.03.39,0,8.62,0,17.24,0,25.86,0,1.17.12,2.32.52,3.43.31.86.77,1.61,1.57,2.11.22.14.21.15.15.56h-12.47c-.05-.22-.09-.41.15-.56.81-.48,1.27-1.24,1.58-2.09.31-.86.44-1.76.5-2.66.02-.4.02-.79.02-1.19,0-11,0-22,0-33.01v-.54Z"/>
  <path class="cls-1" d="m16.38,9.17c-.02.24-.08.42.14.55.9.54,1.39,1.39,1.69,2.37.34,1.09.44,2.22.44,3.36,0,3.76,0,7.52,0,11.27,0,4.94,0,9.87,0,14.81,0,.16.01.32.02.52,2.79-.59,5.44-1.44,7.99-2.65V13.78h12.64c-.01-.09-.02-.15-.03-.2-.4-1.49-1.04-2.87-2-4.1-.18-.24-.38-.32-.68-.32-6.58,0-13.16,0-19.75,0-.14,0-.28,0-.45,0Z"/>
  <path class="cls-1" d="m16.38,9.17c.17,0,.31,0,.45,0,6.58,0,13.16,0,19.75,0,.3,0,.49.09.68.32.96,1.22,1.6,2.6,2,4.1.01.05.02.11.03.2h-12.64v25.61c-2.55,1.22-5.2,2.06-7.99,2.65,0-.19-.02-.36-.02-.52,0-4.94,0-9.87,0-14.81,0-3.76,0-7.52,0-11.27,0-1.14-.09-2.27-.44-3.36-.31-.97-.79-1.82-1.69-2.37-.21-.13-.16-.3-.14-.55Z"/>
</svg>